Literata-M5.ufo
<glyph name="numbersign" format="2">
	<unicode hex="0023"/>
	<advance width="555"/>
	<outline>
		<contour>
			<point x="130" y="6" type="line"/>
			<point x="158" y="6" type="line"/>
			<point x="183" y="174" type="line"/>
			<point x="344" y="174" type="line"/>
			<point x="319" y="6" type="line"/>
			<point x="347" y="6" type="line"/>
			<point x="372" y="174" type="line"/>
			<point x="484" y="174" type="line"/>
			<point x="488" y="199" type="line"/>
			<point x="376" y="199" type="line"/>
			<point x="399" y="359" type="line"/>
			<point x="505" y="359" type="line"/>
			<point x="509" y="384" type="line"/>
			<point x="403" y="384" type="line"/>
			<point x="427" y="544" type="line"/>
			<point x="399" y="544" type="line"/>
			<point x="375" y="384" type="line"/>
			<point x="214" y="384" type="line"/>
			<point x="238" y="544" type="line"/>
			<point x="210" y="544" type="line"/>
			<point x="186" y="384" type="line"/>
			<point x="76" y="384" type="line"/>
			<point x="72" y="359" type="line"/>
			<point x="182" y="359" type="line"/>
			<point x="159" y="199" type="line"/>
			<point x="52" y="199" type="line"/>
			<point x="48" y="174" type="line"/>
			<point x="155" y="174" type="line"/>
		</contour>
		<contour>
			<point x="187" y="199" type="line"/>
			<point x="210" y="359" type="line"/>
			<point x="371" y="359" type="line"/>
			<point x="348" y="199" type="line"/>
		</contour>
	</outline>
</glyph>
<glyph name="dollar" format="2">
	<unicode hex="0024"/>
	<advance width="557"/>
	<outline>
		<contour>
			<point x="263" y="-80" type="line"/>
			<point x="282" y="-80" type="line"/>
			<point x="282" y="-14" type="line"/>
			<point x="417" y="-14"/>
			<point x="497" y="66"/>
			<point x="497" y="193" type="curve" smooth="yes"/>
			<point x="497" y="278"/>
			<point x="451" y="359"/>
			<point x="298" y="410" type="curve" smooth="yes"/>
			<point x="289" y="413"/>
			<point x="287" y="414"/>
			<point x="282" y="416" type="curve"/>
			<point x="282" y="729" type="line"/>
			<point x="352" y="726"/>
			<point x="427" y="689"/>
			<point x="462" y="563" type="curve"/>
			<point x="474" y="564" type="line"/>
			<point x="464" y="744" type="line"/>
			<point x="452" y="744" type="line"/>
			<point x="436" y="679" type="line"/>
			<point x="390" y="716"/>
			<point x="345" y="743"/>
			<point x="282" y="744" type="curve"/>
			<point x="282" y="818" type="line"/>
			<point x="263" y="818" type="line"/>
			<point x="263" y="744" type="line"/>
			<point x="164" y="739"/>
			<point x="76" y="683"/>
			<point x="76" y="572" type="curve" smooth="yes"/>
			<point x="76" y="488"/>
			<point x="109" y="424"/>
			<point x="234" y="375" type="curve" smooth="yes"/>
			<point x="243" y="371"/>
			<point x="253" y="368"/>
			<point x="263" y="364" type="curve"/>
			<point x="263" y="2" type="line"/>
			<point x="185" y="8"/>
			<point x="96" y="49"/>
			<point x="67" y="195" type="curve"/>
			<point x="57" y="195" type="line"/>
			<point x="68" y="-14" type="line"/>
			<point x="80" y="-14" type="line"/>
			<point x="92" y="58" type="line"/>
			<point x="133" y="26"/>
			<point x="181" y="-8"/>
			<point x="263" y="-13" type="curve"/>
		</contour>
		<contour>
			<point x="282" y="1" type="curve"/>
			<point x="282" y="357" type="line"/>
			<point x="412" y="314"/>
			<point x="453" y="252"/>
			<point x="453" y="156" type="curve" smooth="yes"/>
			<point x="453" y="60"/>
			<point x="388" y="1"/>
		</contour>
		<contour>
			<point x="263" y="423" type="line"/>
			<point x="152" y="466"/>
			<point x="120" y="517"/>
			<point x="120" y="594" type="curve" smooth="yes"/>
			<point x="120" y="674"/>
			<point x="174" y="725"/>
			<point x="263" y="729" type="curve"/>
		</contour>
	</outline>
	<anchor name="bottom" x="282" y="-30"/>
	<anchor name="top" x="280" y="729"/>
</glyph>
<glyph name="percent" format="2">
	<unicode hex="0025"/>
	<advance width="734"/>
	<outline>
		<contour>
			<point x="209" y="-14" type="line"/>
			<point x="189" y="-14" type="line"/>
			<point x="546" y="597" type="line"/>
			<point x="566" y="597" type="line"/>
		</contour>
		<contour>
			<point x="198" y="275" type="curve" smooth="yes"/>
			<point x="280" y="275"/>
			<point x="347" y="335"/>
			<point x="347" y="446" type="curve" smooth="yes"/>
			<point x="347" y="546"/>
			<point x="280" y="598"/>
			<point x="203" y="598" type="curve" smooth="yes"/>
			<point x="128" y="598"/>
			<point x="52" y="554"/>
			<point x="52" y="430" type="curve" smooth="yes"/>
			<point x="52" y="342"/>
			<point x="105" y="275"/>
		</contour>
		<contour>
			<point x="204" y="287" type="curve" smooth="yes"/>
			<point x="136" y="287"/>
			<point x="92" y="339"/>
			<point x="92" y="440" type="curve" smooth="yes"/>
			<point x="92" y="542"/>
			<point x="134" y="586"/>
			<point x="196" y="586" type="curve" smooth="yes"/>
			<point x="264" y="586"/>
			<point x="306" y="538"/>
			<point x="306" y="434" type="curve" smooth="yes"/>
			<point x="306" y="333"/>
			<point x="271" y="287"/>
		</contour>
		<contour>
			<point x="553" y="-12" type="curve" smooth="yes"/>
			<point x="635" y="-12"/>
			<point x="702" y="48"/>
			<point x="702" y="159" type="curve" smooth="yes"/>
			<point x="702" y="259"/>
			<point x="635" y="311"/>
			<point x="558" y="311" type="curve" smooth="yes"/>
			<point x="483" y="311"/>
			<point x="407" y="267"/>
			<point x="407" y="143" type="curve" smooth="yes"/>
			<point x="407" y="55"/>
			<point x="460" y="-12"/>
		</contour>
		<contour>
			<point x="559" y="0" type="curve" smooth="yes"/>
			<point x="491" y="0"/>
			<point x="447" y="52"/>
			<point x="447" y="153" type="curve" smooth="yes"/>
			<point x="447" y="255"/>
			<point x="489" y="299"/>
			<point x="551" y="299" type="curve" smooth="yes"/>
			<point x="619" y="299"/>
			<point x="661" y="251"/>
			<point x="661" y="147" type="curve" smooth="yes"/>
			<point x="661" y="46"/>
			<point x="626" y="0"/>
		</contour>
	</outline>
</glyph>
<glyph name="plus" format="2">
	<unicode hex="002B"/>
	<advance width="582"/>
	<outline>
		<contour>
			<point x="281" y="98" type="line"/>
			<point x="300" y="98" type="line"/>
			<point x="300" y="295" type="line"/>
			<point x="109" y="295" type="line"/>
			<point x="109" y="313" type="line"/>
			<point x="300" y="313" type="line"/>
			<point x="300" y="505" type="line"/>
			<point x="281" y="505" type="line"/>
			<point x="281" y="313" type="line"/>
			<point x="472" y="313" type="line"/>
			<point x="472" y="295" type="line"/>
			<point x="281" y="295" type="line"/>
		</contour>
	</outline>
</glyph>
<glyph name="hyphen" format="2">
	<unicode hex="002D"/>
	<advance width="343"/>
	<outline>
		<contour>
			<point x="54" y="272" type="line"/>
			<point x="289" y="272" type="line"/>
			<point x="289" y="306" type="line"/>
			<point x="54" y="306" type="line"/>
		</contour>
	</outline>
</glyph>
<glyph name="period" format="2">
	<unicode hex="002E"/>
	<advance width="271"/>
	<outline>
		<contour>
			<point x="135" y="-7" type="curve" smooth="yes"/>
			<point x="165" y="-7"/>
			<point x="186" y="14"/>
			<point x="186" y="43" type="curve" smooth="yes"/>
			<point x="186" y="71"/>
			<point x="164" y="93"/>
			<point x="135" y="93" type="curve" smooth="yes"/>
			<point x="107" y="93"/>
			<point x="86" y="71"/>
			<point x="86" y="42" type="curve" smooth="yes"/>
			<point x="86" y="14"/>
			<point x="107" y="-7"/>
		</contour>
	</outline>
</glyph>
<glyph name="one" format="2">
	<unicode hex="0031"/>
	<advance width="376"/>
	<outline>
		<contour>
			<point x="48" y="0" type="line"/>
			<point x="349" y="0" type="line"/>
			<point x="349" y="12" type="line"/>
			<point x="260" y="17" type="line" smooth="yes"/>
			<point x="225" y="19"/>
			<point x="222" y="37"/>
			<point x="222" y="70" type="curve"/>
			<point x="222" y="731" type="line"/>
			<point x="215" y="739" type="line"/>
			<point x="42" y="705" type="line"/>
			<point x="43" y="694" type="line"/>
			<point x="127" y="690" type="line" smooth="yes"/>
			<point x="175" y="688"/>
			<point x="175" y="669"/>
			<point x="175" y="620" type="curve" smooth="yes"/>
			<point x="175" y="73" type="line"/>
			<point x="175" y="39"/>
			<point x="168" y="19"/>
			<point x="137" y="17" type="curve" smooth="yes"/>
			<point x="48" y="12" type="line"/>
		</contour>
	</outline>
</glyph>
<glyph name="four" format="2">
	<unicode hex="0034"/>
	<advance width="537"/>
	<outline>
		<contour>
			<point x="217" y="0" type="line"/>
			<point x="487" y="0" type="line"/>
			<point x="487" y="12" type="line"/>
			<point x="426" y="18" type="line" smooth="yes"/>
			<point x="397" y="21"/>
			<point x="393" y="36"/>
			<point x="393" y="71" type="curve" smooth="yes"/>
			<point x="393" y="199" type="line"/>
			<point x="505" y="199" type="line"/>
			<point x="505" y="180" type="line"/>
			<point x="393" y="180" type="line"/>
			<point x="393" y="731" type="line"/>
			<point x="386" y="738" type="line"/>
			<point x="354" y="729" type="line"/>
			<point x="41" y="193" type="line"/>
			<point x="44" y="180" type="line"/>
			<point x="344" y="180" type="line"/>
			<point x="344" y="74" type="line" smooth="yes"/>
			<point x="344" y="37"/>
			<point x="337" y="22"/>
			<point x="313" y="20" type="curve" smooth="yes"/>
			<point x="217" y="12" type="line"/>
		</contour>
		<contour>
			<point x="67" y="199" type="line"/>
			<point x="343" y="671" type="line"/>
			<point x="344" y="671" type="line"/>
			<point x="344" y="199" type="line"/>
		</contour>
	</outline>
</glyph>
<glyph name="question" format="2">
	<unicode hex="003F"/>
	<advance width="454"/>
	<outline>
		<contour>
			<point x="207" y="176" type="line"/>
			<point x="226" y="176" type="line"/>
			<point x="226" y="256" type="line" smooth="yes"/>
			<point x="226" y="331"/>
			<point x="236" y="337"/>
			<point x="308" y="407" type="curve" smooth="yes"/>
			<point x="382" y="479"/>
			<point x="394" y="532"/>
			<point x="394" y="592" type="curve" smooth="yes"/>
			<point x="394" y="686"/>
			<point x="327" y="744"/>
			<point x="225" y="744" type="curve" smooth="yes"/>
			<point x="150" y="744"/>
			<point x="60" y="699"/>
			<point x="60" y="621" type="curve" smooth="yes"/>
			<point x="60" y="595"/>
			<point x="71" y="572"/>
			<point x="101" y="572" type="curve" smooth="yes"/>
			<point x="126" y="572"/>
			<point x="143" y="586"/>
			<point x="143" y="604" type="curve" smooth="yes"/>
			<point x="143" y="627"/>
			<point x="134" y="644"/>
			<point x="102" y="682" type="curve"/>
			<point x="126" y="707"/>
			<point x="167" y="729"/>
			<point x="228" y="729" type="curve" smooth="yes"/>
			<point x="298" y="729"/>
			<point x="350" y="687"/>
			<point x="350" y="608" type="curve" smooth="yes"/>
			<point x="350" y="542"/>
			<point x="335" y="497"/>
			<point x="270" y="434" type="curve" smooth="yes"/>
			<point x="220" y="386"/>
			<point x="207" y="352"/>
			<point x="207" y="317" type="curve" smooth="yes"/>
		</contour>
		<contour>
			<point x="216" y="-7" type="curve" smooth="yes"/>
			<point x="246" y="-7"/>
			<point x="267" y="14"/>
			<point x="267" y="43" type="curve" smooth="yes"/>
			<point x="267" y="71"/>
			<point x="245" y="93"/>
			<point x="216" y="93" type="curve" smooth="yes"/>
			<point x="188" y="93"/>
			<point x="167" y="71"/>
			<point x="167" y="42" type="curve" smooth="yes"/>
			<point x="167" y="14"/>
			<point x="188" y="-7"/>
		</contour>
	</outline>
</glyph>
<glyph name="at" format="2">
	<unicode hex="0040"/>
	<advance width="783"/>
	<outline>
		<contour>
			<point x="392" y="-170" type="curve" smooth="yes"/>
			<point x="483" y="-170"/>
			<point x="559" y="-144"/>
			<point x="618" y="-90" type="curve"/>
			<point x="608" y="-79" type="line"/>
			<point x="551" y="-129"/>
			<point x="491" y="-155"/>
			<point x="394" y="-155" type="curve" smooth="yes"/>
			<point x="219" y="-155"/>
			<point x="61" y="-57"/>
			<point x="61" y="189" type="curve" smooth="yes"/>
			<point x="61" y="400"/>
			<point x="202" y="539"/>
			<point x="403" y="539" type="curve" smooth="yes"/>
			<point x="604" y="539"/>
			<point x="719" y="437"/>
			<point x="719" y="234" type="curve" smooth="yes"/>
			<point x="719" y="85"/>
			<point x="649" y="11"/>
			<point x="580" y="11" type="curve" smooth="yes"/>
			<point x="529" y="11"/>
			<point x="525" y="33"/>
			<point x="526" y="83" type="curve" smooth="yes"/>
			<point x="534" y="384" type="line"/>
			<point x="524" y="386" type="line"/>
			<point x="505" y="362" type="line"/>
			<point x="470" y="376"/>
			<point x="442" y="384"/>
			<point x="394" y="384" type="curve" smooth="yes"/>
			<point x="300" y="384"/>
			<point x="219" y="316"/>
			<point x="219" y="148" type="curve" smooth="yes"/>
			<point x="219" y="59"/>
			<point x="253" y="-6"/>
			<point x="329" y="-6" type="curve" smooth="yes"/>
			<point x="412" y="-6"/>
			<point x="435" y="52"/>
			<point x="462" y="147" type="curve" smooth="yes"/>
			<point x="487" y="236" type="line"/>
			<point x="489" y="236" type="line"/>
			<point x="482" y="86" type="line" smooth="yes"/>
			<point x="480" y="40"/>
			<point x="490" y="-6"/>
			<point x="577" y="-6" type="curve" smooth="yes"/>
			<point x="650" y="-6"/>
			<point x="736" y="66"/>
			<point x="735" y="240" type="curve" smooth="yes"/>
			<point x="734" y="448"/>
			<point x="605" y="554"/>
			<point x="403" y="554" type="curve" smooth="yes"/>
			<point x="192" y="554"/>
			<point x="45" y="402"/>
			<point x="45" y="191" type="curve" smooth="yes"/>
			<point x="45" y="-64"/>
			<point x="208" y="-170"/>
		</contour>
		<contour>
			<point x="342" y="13" type="curve" smooth="yes"/>
			<point x="291" y="12"/>
			<point x="264" y="78"/>
			<point x="264" y="157" type="curve" smooth="yes"/>
			<point x="264" y="258"/>
			<point x="307" y="368"/>
			<point x="406" y="368" type="curve" smooth="yes"/>
			<point x="444" y="368"/>
			<point x="464" y="363"/>
			<point x="499" y="348" type="curve"/>
			<point x="484" y="289" type="line"/>
			<point x="431" y="91"/>
			<point x="419" y="15"/>
		</contour>
	</outline>
</glyph>
<glyph name="A" format="2">
	<unicode hex="0041"/>
	<advance width="592"/>
	<outline>
		<contour>
			<point x="-10" y="0" type="line"/>
			<point x="161" y="0" type="line"/>
			<point x="161" y="12" type="line"/>
			<point x="104" y="17" type="line" smooth="yes"/>
			<point x="77" y="19"/>
			<point x="77" y="37"/>
			<point x="85" y="61" type="curve" smooth="yes"/>
			<point x="146" y="250" type="line"/>
			<point x="407" y="250" type="line"/>
			<point x="461" y="64" type="line" smooth="yes"/>
			<point x="469" y="36"/>
			<point x="470" y="20"/>
			<point x="443" y="17" type="curve" smooth="yes"/>
			<point x="394" y="12" type="line"/>
			<point x="394" y="0" type="line"/>
			<point x="602" y="0" type="line"/>
			<point x="602" y="12" type="line"/>
			<point x="563" y="17" type="line" smooth="yes"/>
			<point x="535" y="21"/>
			<point x="524" y="32"/>
			<point x="513" y="67" type="curve" smooth="yes"/>
			<point x="306" y="730" type="line"/>
			<point x="279" y="730" type="line"/>
			<point x="67" y="61" type="line" smooth="yes"/>
			<point x="56" y="28"/>
			<point x="52" y="20"/>
			<point x="29" y="17" type="curve" smooth="yes"/>
			<point x="-10" y="12" type="line"/>
		</contour>
		<contour>
			<point x="151" y="266" type="line"/>
			<point x="277" y="669" type="line"/>
			<point x="278" y="669" type="line"/>
			<point x="401" y="266" type="line"/>
		</contour>
	</outline>
	<anchor name="bottom" x="272" y="-30"/>
	<anchor name="top" x="293" y="730"/>
</glyph>
<glyph name="C" format="2">
	<unicode hex="0043"/>
	<advance width="657"/>
	<outline>
		<contour>
			<point x="354" y="-14" type="curve" smooth="yes"/>
			<point x="438" y="-14"/>
			<point x="543" y="14"/>
			<point x="617" y="124" type="curve"/>
			<point x="605" y="134" type="line"/>
			<point x="542" y="43"/>
			<point x="458" y="15"/>
			<point x="375" y="15" type="curve" smooth="yes"/>
			<point x="189" y="15"/>
			<point x="101" y="157"/>
			<point x="101" y="374" type="curve" smooth="yes"/>
			<point x="101" y="600"/>
			<point x="197" y="729"/>
			<point x="352" y="729" type="curve" smooth="yes"/>
			<point x="471" y="729"/>
			<point x="546" y="658"/>
			<point x="599" y="522" type="curve"/>
			<point x="611" y="522" type="line"/>
			<point x="576" y="744" type="line"/>
			<point x="564" y="744" type="line"/>
			<point x="554" y="659" type="line"/>
			<point x="509" y="706"/>
			<point x="445" y="744"/>
			<point x="356" y="744" type="curve" smooth="yes"/>
			<point x="169" y="744"/>
			<point x="50" y="593"/>
			<point x="50" y="357" type="curve" smooth="yes"/>
			<point x="50" y="120"/>
			<point x="170" y="-14"/>
		</contour>
	</outline>
	<anchor name="bottom" x="362" y="-30"/>
	<anchor name="top" x="352" y="730"/>
</glyph>
<glyph name="F" format="2">
	<unicode hex="0046"/>
	<advance width="550"/>
	<outline>
		<contour>
			<point x="55" y="0" type="line"/>
			<point x="336" y="0" type="line"/>
			<point x="336" y="12" type="line"/>
			<point x="234" y="16" type="line" smooth="yes"/>
			<point x="207" y="17"/>
			<point x="199" y="30"/>
			<point x="199" y="63" type="curve" smooth="yes"/>
			<point x="199" y="361" type="line"/>
			<point x="324" y="361" type="line" smooth="yes"/>
			<point x="403" y="361"/>
			<point x="411" y="346"/>
			<point x="423" y="271" type="curve"/>
			<point x="435" y="270" type="line"/>
			<point x="435" y="469" type="line"/>
			<point x="423" y="469" type="line"/>
			<point x="408" y="389"/>
			<point x="403" y="377"/>
			<point x="328" y="377" type="curve" smooth="yes"/>
			<point x="199" y="377" type="line"/>
			<point x="199" y="714" type="line"/>
			<point x="333" y="714" type="line" smooth="yes"/>
			<point x="437" y="714"/>
			<point x="458" y="709"/>
			<point x="498" y="581" type="curve"/>
			<point x="510" y="580" type="line"/>
			<point x="482" y="730" type="line"/>
			<point x="55" y="730" type="line"/>
			<point x="55" y="718" type="line"/>
			<point x="117" y="714" type="line" smooth="yes"/>
			<point x="143" y="712"/>
			<point x="150" y="702"/>
			<point x="150" y="666" type="curve" smooth="yes"/>
			<point x="150" y="63" type="line" smooth="yes"/>
			<point x="150" y="29"/>
			<point x="144" y="19"/>
			<point x="119" y="17" type="curve" smooth="yes"/>
			<point x="55" y="12" type="line"/>
		</contour>
	</outline>
</glyph>
<glyph name="G" format="2">
	<unicode hex="0047"/>
	<advance width="700"/>
	<outline>
		<contour>
			<point x="351" y="-14" type="curve" smooth="yes"/>
			<point x="415" y="-14"/>
			<point x="492" y="5"/>
			<point x="557" y="62" type="curve"/>
			<point x="590" y="-1" type="line"/>
			<point x="603" y="-1" type="line"/>
			<point x="603" y="267" type="line" smooth="yes"/>
			<point x="603" y="307"/>
			<point x="613" y="309"/>
			<point x="631" y="310" type="curve" smooth="yes"/>
			<point x="686" y="314" type="line"/>
			<point x="686" y="326" type="line"/>
			<point x="450" y="326" type="line"/>
			<point x="450" y="314" type="line"/>
			<point x="521" y="310" type="line" smooth="yes"/>
			<point x="546" y="309"/>
			<point x="554" y="299"/>
			<point x="554" y="267" type="curve" smooth="yes"/>
			<point x="554" y="83" type="line"/>
			<point x="500" y="33"/>
			<point x="441" y="10"/>
			<point x="369" y="10" type="curve" smooth="yes"/>
			<point x="196" y="10"/>
			<point x="101" y="157"/>
			<point x="101" y="374" type="curve" smooth="yes"/>
			<point x="101" y="600"/>
			<point x="197" y="729"/>
			<point x="354" y="729" type="curve" smooth="yes"/>
			<point x="477" y="729"/>
			<point x="552" y="658"/>
			<point x="605" y="522" type="curve"/>
			<point x="617" y="522" type="line"/>
			<point x="582" y="744" type="line"/>
			<point x="570" y="744" type="line"/>
			<point x="560" y="659" type="line"/>
			<point x="515" y="706"/>
			<point x="451" y="744"/>
			<point x="358" y="744" type="curve" smooth="yes"/>
			<point x="169" y="744"/>
			<point x="50" y="593"/>
			<point x="50" y="357" type="curve" smooth="yes"/>
			<point x="50" y="120"/>
			<point x="170" y="-14"/>
		</contour>
	</outline>
	<anchor name="bottom" x="354" y="-30"/>
	<anchor name="top" x="346" y="730"/>
</glyph>
<glyph name="K" format="2">
	<unicode hex="004B"/>
	<advance width="655"/>
	<outline>
		<contour>
			<point x="575" y="-14" type="curve" smooth="yes"/>
			<point x="608" y="-14"/>
			<point x="636" y="-2"/>
			<point x="655" y="19" type="curve"/>
			<point x="649" y="26" type="line"/>
			<point x="636" y="15"/>
			<point x="618" y="6"/>
			<point x="599" y="6" type="curve" smooth="yes"/>
			<point x="554" y="6"/>
			<point x="522" y="52"/>
			<point x="483" y="119" type="curve" smooth="yes"/>
			<point x="304" y="423" type="line"/>
			<point x="531" y="663" type="line" smooth="yes"/>
			<point x="562" y="696"/>
			<point x="582" y="712"/>
			<point x="617" y="715" type="curve" smooth="yes"/>
			<point x="651" y="718" type="line"/>
			<point x="651" y="730" type="line"/>
			<point x="448" y="730" type="line"/>
			<point x="448" y="718" type="line"/>
			<point x="487" y="716" type="line" smooth="yes"/>
			<point x="553" y="713"/>
			<point x="537" y="695"/>
			<point x="511" y="668" type="curve" smooth="yes"/>
			<point x="199" y="341" type="line"/>
			<point x="199" y="666" type="line" smooth="yes"/>
			<point x="199" y="703"/>
			<point x="205" y="712"/>
			<point x="230" y="714" type="curve" smooth="yes"/>
			<point x="294" y="718" type="line"/>
			<point x="294" y="730" type="line"/>
			<point x="55" y="730" type="line"/>
			<point x="55" y="718" type="line"/>
			<point x="117" y="714" type="line" smooth="yes"/>
			<point x="143" y="712"/>
			<point x="150" y="702"/>
			<point x="150" y="666" type="curve" smooth="yes"/>
			<point x="150" y="63" type="line" smooth="yes"/>
			<point x="150" y="29"/>
			<point x="144" y="19"/>
			<point x="119" y="17" type="curve" smooth="yes"/>
			<point x="55" y="12" type="line"/>
			<point x="55" y="0" type="line"/>
			<point x="296" y="0" type="line"/>
			<point x="296" y="12" type="line"/>
			<point x="232" y="17" type="line" smooth="yes"/>
			<point x="206" y="19"/>
			<point x="199" y="31"/>
			<point x="199" y="62" type="curve" smooth="yes"/>
			<point x="199" y="314" type="line"/>
			<point x="271" y="388" type="line"/>
			<point x="445" y="86" type="line" smooth="yes"/>
			<point x="472" y="39"/>
			<point x="504" y="-14"/>
		</contour>
	</outline>
	<anchor name="bottom" x="350" y="-30"/>
	<anchor name="top" x="367" y="730"/>
</glyph>
<glyph name="L" format="2">
	<unicode hex="004C"/>
	<advance width="543"/>
	<outline>
		<contour>
			<point x="55" y="0" type="line"/>
			<point x="487" y="0" type="line"/>
			<point x="513" y="174" type="line"/>
			<point x="501" y="174" type="line"/>
			<point x="459" y="28"/>
			<point x="454" y="16"/>
			<point x="350" y="16" type="curve" smooth="yes"/>
			<point x="199" y="16" type="line"/>
			<point x="199" y="666" type="line" smooth="yes"/>
			<point x="199" y="702"/>
			<point x="204" y="713"/>
			<point x="230" y="714" type="curve" smooth="yes"/>
			<point x="314" y="718" type="line"/>
			<point x="314" y="730" type="line"/>
			<point x="55" y="730" type="line"/>
			<point x="55" y="718" type="line"/>
			<point x="117" y="714" type="line" smooth="yes"/>
			<point x="143" y="712"/>
			<point x="150" y="702"/>
			<point x="150" y="666" type="curve" smooth="yes"/>
			<point x="150" y="63" type="line" smooth="yes"/>
			<point x="150" y="29"/>
			<point x="144" y="19"/>
			<point x="119" y="17" type="curve" smooth="yes"/>
			<point x="55" y="12" type="line"/>
		</contour>
	</outline>
	<anchor name="bottom" x="298" y="-30"/>
	<anchor name="top" x="177" y="730"/>
</glyph>
<glyph name="N" format="2">
	<unicode hex="004E"/>
	<advance width="767"/>
	<outline>
		<contour>
			<point x="55" y="0" type="line"/>
			<point x="260" y="0" type="line"/>
			<point x="260" y="12" type="line"/>
			<point x="202" y="15" type="line" smooth="yes"/>
			<point x="177" y="16"/>
			<point x="169" y="27"/>
			<point x="169" y="62" type="curve" smooth="yes"/>
			<point x="169" y="690" type="line"/>
			<point x="171" y="690" type="line"/>
			<point x="599" y="0" type="line"/>
			<point x="622" y="0" type="line"/>
			<point x="622" y="666" type="line" smooth="yes"/>
			<point x="622" y="702"/>
			<point x="629" y="714"/>
			<point x="654" y="715" type="curve" smooth="yes"/>
			<point x="717" y="718" type="line"/>
			<point x="717" y="730" type="line"/>
			<point x="512" y="730" type="line"/>
			<point x="512" y="718" type="line"/>
			<point x="565" y="714" type="line" smooth="yes"/>
			<point x="594" y="712"/>
			<point x="603" y="702"/>
			<point x="603" y="667" type="curve" smooth="yes"/>
			<point x="603" y="93" type="line"/>
			<point x="602" y="93" type="line"/>
			<point x="203" y="730" type="line"/>
			<point x="55" y="730" type="line"/>
			<point x="55" y="718" type="line"/>
			<point x="117" y="714" type="line" smooth="yes"/>
			<point x="145" y="712"/>
			<point x="150" y="703"/>
			<point x="150" y="668" type="curve" smooth="yes"/>
			<point x="150" y="62" type="line" smooth="yes"/>
			<point x="150" y="27"/>
			<point x="141" y="16"/>
			<point x="116" y="15" type="curve" smooth="yes"/>
			<point x="55" y="12" type="line"/>
		</contour>
	</outline>
	<anchor name="bottom" x="377" y="-30"/>
	<anchor name="top" x="391" y="730"/>
</glyph>
<glyph name="R" format="2">
	<unicode hex="0052"/>
	<advance width="626"/>
	<outline>
		<contour>
			<point x="578" y="-14" type="curve" smooth="yes"/>
			<point x="603" y="-14"/>
			<point x="631" y="-3"/>
			<point x="651" y="20" type="curve"/>
			<point x="645" y="26" type="line"/>
			<point x="632" y="15"/>
			<point x="613" y="7"/>
			<point x="590" y="7" type="curve" smooth="yes"/>
			<point x="546" y="7"/>
			<point x="518" y="70"/>
			<point x="486" y="149" type="curve" smooth="yes"/>
			<point x="447" y="245" type="line" smooth="yes"/>
			<point x="427" y="295"/>
			<point x="386" y="347"/>
			<point x="323" y="361" type="curve"/>
			<point x="323" y="363" type="line"/>
			<point x="482" y="386"/>
			<point x="524" y="475"/>
			<point x="524" y="560" type="curve" smooth="yes"/>
			<point x="524" y="670"/>
			<point x="445" y="730"/>
			<point x="263" y="730" type="curve" smooth="yes"/>
			<point x="55" y="730" type="line"/>
			<point x="55" y="718" type="line"/>
			<point x="117" y="714" type="line" smooth="yes"/>
			<point x="143" y="712"/>
			<point x="150" y="702"/>
			<point x="150" y="666" type="curve" smooth="yes"/>
			<point x="150" y="63" type="line" smooth="yes"/>
			<point x="150" y="29"/>
			<point x="144" y="19"/>
			<point x="119" y="17" type="curve" smooth="yes"/>
			<point x="55" y="12" type="line"/>
			<point x="55" y="0" type="line"/>
			<point x="296" y="0" type="line"/>
			<point x="296" y="12" type="line"/>
			<point x="232" y="17" type="line" smooth="yes"/>
			<point x="206" y="19"/>
			<point x="199" y="31"/>
			<point x="199" y="62" type="curve" smooth="yes"/>
			<point x="199" y="353" type="line"/>
			<point x="217" y="355"/>
			<point x="236" y="355"/>
			<point x="264" y="355" type="curve" smooth="yes"/>
			<point x="328" y="355"/>
			<point x="355" y="339"/>
			<point x="400" y="228" type="curve" smooth="yes"/>
			<point x="456" y="89" type="line" smooth="yes"/>
			<point x="488" y="9"/>
			<point x="525" y="-14"/>
		</contour>
		<contour>
			<point x="274" y="371" type="curve" smooth="yes"/>
			<point x="260" y="371"/>
			<point x="240" y="370"/>
			<point x="199" y="372" type="curve"/>
			<point x="199" y="714" type="line"/>
			<point x="265" y="714" type="line" smooth="yes"/>
			<point x="402" y="714"/>
			<point x="470" y="665"/>
			<point x="470" y="556" type="curve" smooth="yes"/>
			<point x="470" y="432"/>
			<point x="385" y="371"/>
		</contour>
	</outline>
	<anchor name="bottom" x="336" y="-30"/>
	<anchor name="top" x="300" y="730"/>
</glyph>
<glyph name="S" format="2">
	<unicode hex="0053"/>
	<advance width="552"/>
	<outline>
		<contour>
			<point x="286" y="-14" type="curve" smooth="yes"/>
			<point x="434" y="-14"/>
			<point x="497" y="85"/>
			<point x="497" y="193" type="curve" smooth="yes"/>
			<point x="497" y="278"/>
			<point x="451" y="359"/>
			<point x="293" y="412" type="curve" smooth="yes"/>
			<point x="158" y="457"/>
			<point x="120" y="510"/>
			<point x="120" y="594" type="curve" smooth="yes"/>
			<point x="120" y="677"/>
			<point x="178" y="729"/>
			<point x="273" y="729" type="curve" smooth="yes"/>
			<point x="346" y="729"/>
			<point x="426" y="694"/>
			<point x="462" y="563" type="curve"/>
			<point x="474" y="564" type="line"/>
			<point x="464" y="744" type="line"/>
			<point x="452" y="744" type="line"/>
			<point x="436" y="679" type="line"/>
			<point x="389" y="717"/>
			<point x="343" y="744"/>
			<point x="277" y="744" type="curve" smooth="yes"/>
			<point x="172" y="744"/>
			<point x="76" y="688"/>
			<point x="76" y="572" type="curve" smooth="yes"/>
			<point x="76" y="479"/>
			<point x="116" y="411"/>
			<point x="277" y="359" type="curve" smooth="yes"/>
			<point x="411" y="316"/>
			<point x="453" y="253"/>
			<point x="453" y="156" type="curve" smooth="yes"/>
			<point x="453" y="42"/>
			<point x="365" y="1"/>
			<point x="285" y="1" type="curve" smooth="yes"/>
			<point x="203" y="1"/>
			<point x="99" y="35"/>
			<point x="67" y="195" type="curve"/>
			<point x="57" y="195" type="line"/>
			<point x="68" y="-14" type="line"/>
			<point x="80" y="-14" type="line"/>
			<point x="92" y="58" type="line"/>
			<point x="137" y="23"/>
			<point x="190" y="-14"/>
		</contour>
	</outline>
	<anchor name="bottom" x="282" y="-30"/>
	<anchor name="top" x="280" y="729"/>
</glyph>
<glyph name="T" format="2">
	<unicode hex="0054"/>
	<advance width="614"/>
	<outline>
		<contour>
			<point x="172" y="0" type="line"/>
			<point x="441" y="0" type="line"/>
			<point x="441" y="12" type="line"/>
			<point x="365" y="17" type="line" smooth="yes"/>
			<point x="338" y="19"/>
			<point x="331" y="27"/>
			<point x="331" y="63" type="curve" smooth="yes"/>
			<point x="331" y="714" type="line"/>
			<point x="420" y="714" type="line" smooth="yes"/>
			<point x="516" y="714"/>
			<point x="536" y="694"/>
			<point x="585" y="526" type="curve"/>
			<point x="597" y="526" type="line"/>
			<point x="568" y="730" type="line"/>
			<point x="48" y="730" type="line"/>
			<point x="17" y="526" type="line"/>
			<point x="30" y="526" type="line"/>
			<point x="79" y="694"/>
			<point x="93" y="714"/>
			<point x="195" y="714" type="curve" smooth="yes"/>
			<point x="282" y="714" type="line"/>
			<point x="282" y="63" type="line" smooth="yes"/>
			<point x="282" y="26"/>
			<point x="271" y="19"/>
			<point x="247" y="17" type="curve" smooth="yes"/>
			<point x="172" y="12" type="line"/>
		</contour>
	</outline>
	<anchor name="bottom" x="306" y="-30"/>
	<anchor name="top" x="307" y="730"/>
</glyph>
<glyph name="U" format="2">
	<unicode hex="0055"/>
	<advance width="730"/>
	<outline>
		<contour>
			<point x="374" y="-14" type="curve" smooth="yes"/>
			<point x="526" y="-14"/>
			<point x="610" y="89"/>
			<point x="610" y="271" type="curve" smooth="yes"/>
			<point x="610" y="667" type="line" smooth="yes"/>
			<point x="610" y="702"/>
			<point x="614" y="712"/>
			<point x="639" y="714" type="curve" smooth="yes"/>
			<point x="690" y="718" type="line"/>
			<point x="690" y="730" type="line"/>
			<point x="512" y="730" type="line"/>
			<point x="512" y="718" type="line"/>
			<point x="561" y="714" type="line" smooth="yes"/>
			<point x="587" y="712"/>
			<point x="592" y="700"/>
			<point x="592" y="668" type="curve" smooth="yes"/>
			<point x="592" y="281" type="line" smooth="yes"/>
			<point x="592" y="115"/>
			<point x="528" y="12"/>
			<point x="391" y="12" type="curve" smooth="yes"/>
			<point x="241" y="12"/>
			<point x="182" y="100"/>
			<point x="182" y="273" type="curve" smooth="yes"/>
			<point x="182" y="668" type="line" smooth="yes"/>
			<point x="182" y="706"/>
			<point x="190" y="713"/>
			<point x="212" y="714" type="curve" smooth="yes"/>
			<point x="277" y="718" type="line"/>
			<point x="277" y="730" type="line"/>
			<point x="40" y="730" type="line"/>
			<point x="40" y="718" type="line"/>
			<point x="103" y="714" type="line" smooth="yes"/>
			<point x="129" y="712"/>
			<point x="135" y="702"/>
			<point x="135" y="668" type="curve" smooth="yes"/>
			<point x="135" y="250" type="line" smooth="yes"/>
			<point x="135" y="67"/>
			<point x="214" y="-14"/>
		</contour>
	</outline>
	<anchor name="bottom" x="380" y="-30"/>
	<anchor name="top" x="391" y="730"/>
</glyph>
<glyph name="Y" format="2">
	<unicode hex="0059"/>
	<advance width="546"/>
	<outline>
		<contour>
			<point x="149" y="0" type="line"/>
			<point x="407" y="0" type="line"/>
			<point x="407" y="12" type="line"/>
			<point x="335" y="17" type="line" smooth="yes"/>
			<point x="309" y="19"/>
			<point x="304" y="31"/>
			<point x="304" y="62" type="curve" smooth="yes"/>
			<point x="304" y="351" type="line"/>
			<point x="477" y="669" type="line" smooth="yes"/>
			<point x="495" y="702"/>
			<point x="498" y="710"/>
			<point x="521" y="713" type="curve" smooth="yes"/>
			<point x="556" y="718" type="line"/>
			<point x="556" y="730" type="line"/>
			<point x="387" y="730" type="line"/>
			<point x="387" y="718" type="line"/>
			<point x="437" y="713" type="line" smooth="yes"/>
			<point x="464" y="710"/>
			<point x="469" y="693"/>
			<point x="456" y="669" type="curve" smooth="yes"/>
			<point x="297" y="377" type="line"/>
			<point x="296" y="377" type="line"/>
			<point x="135" y="666" type="line" smooth="yes"/>
			<point x="116" y="701"/>
			<point x="123" y="710"/>
			<point x="150" y="713" type="curve" smooth="yes"/>
			<point x="198" y="718" type="line"/>
			<point x="198" y="730" type="line"/>
			<point x="-7" y="730" type="line"/>
			<point x="-7" y="718" type="line"/>
			<point x="23" y="713" type="line" smooth="yes"/>
			<point x="53" y="708"/>
			<point x="62" y="698"/>
			<point x="82" y="663" type="curve" smooth="yes"/>
			<point x="255" y="350" type="line"/>
			<point x="255" y="63" type="line" smooth="yes"/>
			<point x="255" y="29"/>
			<point x="249" y="19"/>
			<point x="224" y="17" type="curve" smooth="yes"/>
			<point x="149" y="12" type="line"/>
		</contour>
	</outline>
	<anchor name="bottom" x="278" y="-30"/>
	<anchor name="top" x="290" y="730"/>
</glyph>
<glyph name="a" format="2">
	<unicode hex="0061"/>
	<advance width="483"/>
	<outline>
		<contour>
			<point x="193" y="-14" type="curve" smooth="yes"/>
			<point x="252" y="-14"/>
			<point x="303" y="8"/>
			<point x="337" y="73" type="curve"/>
			<point x="336" y="8"/>
			<point x="368" y="-14"/>
			<point x="411" y="-14" type="curve" smooth="yes"/>
			<point x="443" y="-14"/>
			<point x="467" y="3"/>
			<point x="487" y="30" type="curve"/>
			<point x="481" y="37" type="line"/>
			<point x="467" y="26"/>
			<point x="450" y="17"/>
			<point x="427" y="17" type="curve" smooth="yes"/>
			<point x="399" y="17"/>
			<point x="384" y="31"/>
			<point x="384" y="69" type="curve" smooth="yes"/>
			<point x="384" y="365" type="line" smooth="yes"/>
			<point x="384" y="459"/>
			<point x="342" y="523"/>
			<point x="225" y="523" type="curve" smooth="yes"/>
			<point x="147" y="523"/>
			<point x="57" y="486"/>
			<point x="57" y="410" type="curve" smooth="yes"/>
			<point x="57" y="384"/>
			<point x="74" y="370"/>
			<point x="97" y="370" type="curve" smooth="yes"/>
			<point x="123" y="370"/>
			<point x="137" y="383"/>
			<point x="137" y="403" type="curve" smooth="yes"/>
			<point x="137" y="419"/>
			<point x="131" y="431"/>
			<point x="109" y="474" type="curve"/>
			<point x="137" y="495"/>
			<point x="174" y="508"/>
			<point x="222" y="508" type="curve" smooth="yes"/>
			<point x="294" y="508"/>
			<point x="335" y="476"/>
			<point x="335" y="383" type="curve" smooth="yes"/>
			<point x="335" y="278" type="line"/>
			<point x="123" y="271"/>
			<point x="55" y="215"/>
			<point x="55" y="118" type="curve" smooth="yes"/>
			<point x="55" y="32"/>
			<point x="107" y="-14"/>
		</contour>
		<contour>
			<point x="210" y="13" type="curve" smooth="yes"/>
			<point x="148" y="13"/>
			<point x="106" y="52"/>
			<point x="106" y="126" type="curve" smooth="yes"/>
			<point x="106" y="229"/>
			<point x="164" y="254"/>
			<point x="335" y="263" type="curve"/>
			<point x="335" y="131" type="line" smooth="yes"/>
			<point x="335" y="52"/>
			<point x="271" y="13"/>
		</contour>
	</outline>
	<anchor name="bottom" x="241" y="-30"/>
	<anchor name="top" x="222" y="550"/>
</glyph>
<glyph name="b" format="2">
	<unicode hex="0062"/>
	<advance width="566"/>
	<outline>
		<contour>
			<point x="116" y="-4" type="line"/>
			<point x="154" y="23" type="line"/>
			<point x="201" y="-3"/>
			<point x="245" y="-14"/>
			<point x="293" y="-14" type="curve" smooth="yes"/>
			<point x="430" y="-14"/>
			<point x="519" y="90"/>
			<point x="519" y="261" type="curve" smooth="yes"/>
			<point x="519" y="435"/>
			<point x="449" y="523"/>
			<point x="320" y="523" type="curve" smooth="yes"/>
			<point x="245" y="523"/>
			<point x="191" y="487"/>
			<point x="163" y="429" type="curve"/>
			<point x="162" y="429" type="line"/>
			<point x="162" y="762" type="line"/>
			<point x="156" y="766" type="line"/>
			<point x="21" y="761" type="line"/>
			<point x="20" y="751" type="line"/>
			<point x="70" y="748" type="line" smooth="yes"/>
			<point x="106" y="746"/>
			<point x="113" y="737"/>
			<point x="113" y="690" type="curve" smooth="yes"/>
			<point x="113" y="-3" type="line"/>
		</contour>
		<contour>
			<point x="300" y="2" type="curve" smooth="yes"/>
			<point x="250" y="2"/>
			<point x="205" y="16"/>
			<point x="162" y="44" type="curve"/>
			<point x="162" y="349" type="line" smooth="yes"/>
			<point x="162" y="445"/>
			<point x="220" y="497"/>
			<point x="308" y="497" type="curve" smooth="yes"/>
			<point x="410" y="497"/>
			<point x="468" y="415"/>
			<point x="468" y="253" type="curve" smooth="yes"/>
			<point x="468" y="69"/>
			<point x="400" y="2"/>
		</contour>
	</outline>
</glyph>
<glyph name="e" format="2">
	<unicode hex="0065"/>
	<advance width="453"/>
	<outline>
		<contour>
			<point x="242" y="-14" type="curve" smooth="yes"/>
			<point x="309" y="-14"/>
			<point x="365" y="13"/>
			<point x="416" y="88" type="curve"/>
			<point x="409" y="94" type="line"/>
			<point x="364" y="44"/>
			<point x="318" y="26"/>
			<point x="262" y="26" type="curve" smooth="yes"/>
			<point x="170" y="26"/>
			<point x="86" y="90"/>
			<point x="91" y="277" type="curve"/>
			<point x="411" y="277" type="line"/>
			<point x="413" y="302"/>
			<point x="414" y="330"/>
			<point x="414" y="350" type="curve" smooth="yes"/>
			<point x="414" y="450"/>
			<point x="356" y="523"/>
			<point x="251" y="523" type="curve" smooth="yes"/>
			<point x="127" y="523"/>
			<point x="42" y="416"/>
			<point x="42" y="250" type="curve" smooth="yes"/>
			<point x="42" y="66"/>
			<point x="130" y="-14"/>
		</contour>
		<contour>
			<point x="92" y="296" type="line"/>
			<point x="100" y="442"/>
			<point x="159" y="508"/>
			<point x="248" y="508" type="curve" smooth="yes"/>
			<point x="327" y="508"/>
			<point x="364" y="460"/>
			<point x="364" y="350" type="curve" smooth="yes"/>
			<point x="364" y="334"/>
			<point x="363" y="317"/>
			<point x="361" y="296" type="curve"/>
		</contour>
	</outline>
	<anchor name="bottom" x="255" y="-30"/>
	<anchor name="top" x="245" y="550"/>
</glyph>
<glyph name="f" format="2">
	<unicode hex="0066"/>
	<advance width="323"/>
	<outline>
		<contour>
			<point x="40" y="0" type="line"/>
			<point x="279" y="0" type="line"/>
			<point x="279" y="11" type="line"/>
			<point x="192" y="16" type="line" smooth="yes"/>
			<point x="172" y="17"/>
			<point x="167" y="28"/>
			<point x="167" y="59" type="curve" smooth="yes"/>
			<point x="167" y="493" type="line"/>
			<point x="315" y="493" type="line"/>
			<point x="315" y="509" type="line"/>
			<point x="167" y="509" type="line"/>
			<point x="167" y="608" type="line" smooth="yes"/>
			<point x="167" y="733"/>
			<point x="206" y="767"/>
			<point x="270" y="767" type="curve" smooth="yes"/>
			<point x="297" y="767"/>
			<point x="318" y="761"/>
			<point x="334" y="750" type="curve"/>
			<point x="319" y="728"/>
			<point x="308" y="711"/>
			<point x="308" y="692" type="curve" smooth="yes"/>
			<point x="308" y="677"/>
			<point x="319" y="665"/>
			<point x="338" y="665" type="curve" smooth="yes"/>
			<point x="367" y="665"/>
			<point x="378" y="685"/>
			<point x="378" y="705" type="curve" smooth="yes"/>
			<point x="378" y="756"/>
			<point x="331" y="782"/>
			<point x="269" y="782" type="curve" smooth="yes"/>
			<point x="191" y="782"/>
			<point x="118" y="720"/>
			<point x="118" y="558" type="curve" smooth="yes"/>
			<point x="118" y="509" type="line"/>
			<point x="45" y="503" type="line"/>
			<point x="45" y="493" type="line"/>
			<point x="118" y="493" type="line"/>
			<point x="118" y="60" type="line" smooth="yes"/>
			<point x="118" y="25"/>
			<point x="113" y="18"/>
			<point x="92" y="16" type="curve" smooth="yes"/>
			<point x="40" y="12" type="line"/>
		</contour>
	</outline>
</glyph>
<glyph name="g" format="2">
	<unicode hex="0067"/>
	<advance width="495"/>
	<outline>
		<contour>
			<point x="237" y="-230" type="curve" smooth="yes"/>
			<point x="330" y="-230"/>
			<point x="470" y="-194"/>
			<point x="470" y="-56" type="curve" smooth="yes"/>
			<point x="470" y="22"/>
			<point x="407" y="53"/>
			<point x="310" y="53" type="curve" smooth="yes"/>
			<point x="171" y="53" type="line" smooth="yes"/>
			<point x="107" y="53"/>
			<point x="103" y="84"/>
			<point x="103" y="109" type="curve" smooth="yes"/>
			<point x="103" y="146"/>
			<point x="125" y="177"/>
			<point x="140" y="196" type="curve"/>
			<point x="167" y="184"/>
			<point x="199" y="177"/>
			<point x="235" y="177" type="curve" smooth="yes"/>
			<point x="340" y="177"/>
			<point x="415" y="238"/>
			<point x="415" y="353" type="curve" smooth="yes"/>
			<point x="415" y="399"/>
			<point x="398" y="441"/>
			<point x="368" y="471" type="curve"/>
			<point x="373" y="497"/>
			<point x="382" y="521"/>
			<point x="397" y="541" type="curve"/>
			<point x="415" y="515" type="line" smooth="yes"/>
			<point x="428" y="496"/>
			<point x="437" y="491"/>
			<point x="452" y="491" type="curve" smooth="yes"/>
			<point x="473" y="491"/>
			<point x="493" y="513"/>
			<point x="493" y="537" type="curve" smooth="yes"/>
			<point x="493" y="556"/>
			<point x="476" y="579"/>
			<point x="439" y="579" type="curve" smooth="yes"/>
			<point x="406" y="579"/>
			<point x="377" y="549"/>
			<point x="357" y="481" type="curve"/>
			<point x="326" y="507"/>
			<point x="285" y="523"/>
			<point x="236" y="523" type="curve" smooth="yes"/>
			<point x="121" y="523"/>
			<point x="55" y="448"/>
			<point x="55" y="344" type="curve" smooth="yes"/>
			<point x="55" y="278"/>
			<point x="82" y="229"/>
			<point x="128" y="202" type="curve"/>
			<point x="128" y="200" type="line"/>
			<point x="91" y="157"/>
			<point x="67" y="125"/>
			<point x="67" y="92" type="curve" smooth="yes"/>
			<point x="67" y="53"/>
			<point x="84" y="26"/>
			<point x="124" y="10" type="curve"/>
			<point x="124" y="7" type="line"/>
			<point x="60" y="-13"/>
			<point x="29" y="-57"/>
			<point x="29" y="-103" type="curve" smooth="yes"/>
			<point x="29" y="-193"/>
			<point x="121" y="-230"/>
		</contour>
		<contour>
			<point x="238" y="-215" type="curve" smooth="yes"/>
			<point x="138" y="-215"/>
			<point x="70" y="-186"/>
			<point x="70" y="-98" type="curve" smooth="yes"/>
			<point x="70" y="-43"/>
			<point x="104" y="-15"/>
			<point x="141" y="4" type="curve"/>
			<point x="326" y="4" type="line" smooth="yes"/>
			<point x="400" y="4"/>
			<point x="441" y="-14"/>
			<point x="441" y="-82" type="curve" smooth="yes"/>
			<point x="441" y="-168"/>
			<point x="343" y="-215"/>
		</contour>
		<contour>
			<point x="236" y="192" type="curve" smooth="yes"/>
			<point x="155" y="192"/>
			<point x="103" y="242"/>
			<point x="103" y="348" type="curve" smooth="yes"/>
			<point x="103" y="461"/>
			<point x="150" y="508"/>
			<point x="230" y="508" type="curve" smooth="yes"/>
			<point x="318" y="508"/>
			<point x="367" y="456"/>
			<point x="367" y="350" type="curve" smooth="yes"/>
			<point x="367" y="238"/>
			<point x="319" y="192"/>
		</contour>
	</outline>
	<anchor name="top" x="236" y="548"/>
</glyph>
<glyph name="n" format="2">
	<unicode hex="006E"/>
	<advance width="584"/>
	<outline>
		<contour>
			<point x="33" y="0" type="line"/>
			<point x="240" y="0" type="line"/>
			<point x="240" y="12" type="line"/>
			<point x="187" y="16" type="line" smooth="yes"/>
			<point x="166" y="18"/>
			<point x="162" y="28"/>
			<point x="162" y="59" type="curve" smooth="yes"/>
			<point x="162" y="344" type="line" smooth="yes"/>
			<point x="162" y="433"/>
			<point x="228" y="493"/>
			<point x="318" y="493" type="curve" smooth="yes"/>
			<point x="395" y="493"/>
			<point x="433" y="450"/>
			<point x="433" y="359" type="curve" smooth="yes"/>
			<point x="433" y="58" type="line" smooth="yes"/>
			<point x="433" y="28"/>
			<point x="429" y="18"/>
			<point x="402" y="16" type="curve" smooth="yes"/>
			<point x="355" y="12" type="line"/>
			<point x="355" y="0" type="line"/>
			<point x="560" y="0" type="line"/>
			<point x="560" y="12" type="line"/>
			<point x="512" y="16" type="line" smooth="yes"/>
			<point x="487" y="18"/>
			<point x="482" y="28"/>
			<point x="482" y="57" type="curve" smooth="yes"/>
			<point x="482" y="364" type="line" smooth="yes"/>
			<point x="482" y="465"/>
			<point x="435" y="523"/>
			<point x="335" y="523" type="curve" smooth="yes"/>
			<point x="261" y="523"/>
			<point x="194" y="488"/>
			<point x="163" y="414" type="curve"/>
			<point x="161" y="414" type="line"/>
			<point x="162" y="511" type="line"/>
			<point x="158" y="515" type="line"/>
			<point x="33" y="503" type="line"/>
			<point x="32" y="493" type="line"/>
			<point x="80" y="489" type="line" smooth="yes"/>
			<point x="108" y="487"/>
			<point x="113" y="477"/>
			<point x="113" y="427" type="curve" smooth="yes"/>
			<point x="113" y="60" type="line" smooth="yes"/>
			<point x="113" y="25"/>
			<point x="108" y="18"/>
			<point x="87" y="16" type="curve" smooth="yes"/>
			<point x="33" y="12" type="line"/>
		</contour>
	</outline>
	<anchor name="bottom" x="298" y="-30"/>
	<anchor name="top" x="296" y="550"/>
</glyph>
<glyph name="o" format="2">
	<unicode hex="006F"/>
	<advance width="515"/>
	<outline>
		<contour>
			<point x="260" y="-14" type="curve" smooth="yes"/>
			<point x="393" y="-14"/>
			<point x="473" y="98"/>
			<point x="473" y="270" type="curve" smooth="yes"/>
			<point x="473" y="421"/>
			<point x="393" y="521"/>
			<point x="264" y="521" type="curve" smooth="yes"/>
			<point x="122" y="521"/>
			<point x="42" y="413"/>
			<point x="42" y="248" type="curve" smooth="yes"/>
			<point x="42" y="88"/>
			<point x="125" y="-14"/>
		</contour>
		<contour>
			<point x="266" y="2" type="curve" smooth="yes"/>
			<point x="158" y="2"/>
			<point x="93" y="85"/>
			<point x="93" y="263" type="curve" smooth="yes"/>
			<point x="93" y="432"/>
			<point x="154" y="506"/>
			<point x="257" y="506" type="curve" smooth="yes"/>
			<point x="367" y="506"/>
			<point x="422" y="420"/>
			<point x="422" y="248" type="curve" smooth="yes"/>
			<point x="422" y="78"/>
			<point x="364" y="2"/>
		</contour>
	</outline>
	<anchor name="bottom" x="259" y="-30"/>
	<anchor name="top" x="258" y="550"/>
</glyph>
<glyph name="s" format="2">
	<unicode hex="0073"/>
	<advance width="413"/>
	<outline>
		<contour>
			<point x="50" y="-14" type="line"/>
			<point x="62" y="-14" type="line"/>
			<point x="71" y="38" type="line"/>
			<point x="113" y="-1"/>
			<point x="161" y="-14"/>
			<point x="209" y="-14" type="curve" smooth="yes"/>
			<point x="310" y="-14"/>
			<point x="369" y="50"/>
			<point x="369" y="135" type="curve" smooth="yes"/>
			<point x="369" y="240"/>
			<point x="280" y="271"/>
			<point x="218" y="287" type="curve" smooth="yes"/>
			<point x="151" y="304"/>
			<point x="86" y="323"/>
			<point x="86" y="409" type="curve" smooth="yes"/>
			<point x="86" y="468"/>
			<point x="133" y="508"/>
			<point x="197" y="508" type="curve" smooth="yes"/>
			<point x="273" y="508"/>
			<point x="321" y="467"/>
			<point x="345" y="377" type="curve"/>
			<point x="355" y="378" type="line"/>
			<point x="345" y="523" type="line"/>
			<point x="336" y="523" type="line"/>
			<point x="324" y="477" type="line"/>
			<point x="296" y="503"/>
			<point x="256" y="523"/>
			<point x="200" y="523" type="curve" smooth="yes"/>
			<point x="106" y="523"/>
			<point x="55" y="456"/>
			<point x="55" y="383" type="curve" smooth="yes"/>
			<point x="55" y="280"/>
			<point x="139" y="254"/>
			<point x="190" y="241" type="curve" smooth="yes"/>
			<point x="281" y="218"/>
			<point x="332" y="198"/>
			<point x="332" y="116" type="curve" smooth="yes"/>
			<point x="332" y="55"/>
			<point x="291" y="2"/>
			<point x="210" y="2" type="curve" smooth="yes"/>
			<point x="144" y="2"/>
			<point x="79" y="37"/>
			<point x="49" y="155" type="curve"/>
			<point x="39" y="155" type="line"/>
		</contour>
	</outline>
	<anchor name="bottom" x="204" y="-30"/>
	<anchor name="top" x="205" y="550"/>
</glyph>
<glyph name="v" format="2">
	<unicode hex="0076"/>
	<advance width="491"/>
	<outline>
		<contour>
			<point x="242" y="0" type="line"/>
			<point x="261" y="0" type="line"/>
			<point x="418" y="448" type="line" smooth="yes"/>
			<point x="432" y="487"/>
			<point x="436" y="489"/>
			<point x="456" y="492" type="curve" smooth="yes"/>
			<point x="491" y="497" type="line"/>
			<point x="491" y="509" type="line"/>
			<point x="340" y="509" type="line"/>
			<point x="340" y="497" type="line"/>
			<point x="379" y="492" type="line" smooth="yes"/>
			<point x="406" y="488"/>
			<point x="406" y="472"/>
			<point x="398" y="448" type="curve" smooth="yes"/>
			<point x="264" y="67" type="line"/>
			<point x="263" y="67" type="line"/>
			<point x="128" y="445" type="line" smooth="yes"/>
			<point x="118" y="473"/>
			<point x="120" y="488"/>
			<point x="146" y="492" type="curve" smooth="yes"/>
			<point x="185" y="497" type="line"/>
			<point x="185" y="509" type="line"/>
			<point x="0" y="509" type="line"/>
			<point x="0" y="497" type="line"/>
			<point x="29" y="492" type="line" smooth="yes"/>
			<point x="61" y="487"/>
			<point x="69" y="470"/>
			<point x="79" y="442" type="curve" smooth="yes"/>
		</contour>
	</outline>
	<anchor name="top" x="271" y="550"/>
</glyph>
<glyph name="w" format="2">
	<unicode hex="0077"/>
	<advance width="723"/>
	<outline>
		<contour>
			<point x="215" y="0" type="line"/>
			<point x="234" y="0" type="line"/>
			<point x="360" y="423" type="line"/>
			<point x="361" y="423" type="line"/>
			<point x="493" y="0" type="line"/>
			<point x="511" y="0" type="line"/>
			<point x="650" y="448" type="line"/>
			<point x="662" y="481"/>
			<point x="665" y="489"/>
			<point x="688" y="492" type="curve" smooth="yes"/>
			<point x="723" y="497" type="line"/>
			<point x="723" y="509" type="line"/>
			<point x="572" y="509" type="line"/>
			<point x="572" y="497" type="line"/>
			<point x="611" y="492" type="line" smooth="yes"/>
			<point x="638" y="488"/>
			<point x="636" y="472"/>
			<point x="629" y="448" type="curve" smooth="yes"/>
			<point x="514" y="74" type="line"/>
			<point x="513" y="74" type="line"/>
			<point x="382" y="506" type="line"/>
			<point x="364" y="506" type="line"/>
			<point x="236" y="74" type="line"/>
			<point x="235" y="74" type="line"/>
			<point x="127" y="445" type="line"/>
			<point x="119" y="473"/>
			<point x="119" y="489"/>
			<point x="146" y="492" type="curve" smooth="yes"/>
			<point x="185" y="497" type="line"/>
			<point x="185" y="509" type="line"/>
			<point x="0" y="509" type="line"/>
			<point x="0" y="497" type="line"/>
			<point x="29" y="492" type="line" smooth="yes"/>
			<point x="57" y="487"/>
			<point x="69" y="477"/>
			<point x="79" y="442" type="curve"/>
		</contour>
	</outline>
	<anchor name="top" x="372" y="550"/>
</glyph>
<glyph name="braceleft" format="2">
	<unicode hex="007B"/>
	<advance width="330"/>
	<outline>
		<contour>
			<point x="239" y="-237" type="curve" smooth="yes"/>
			<point x="259" y="-237"/>
			<point x="272" y="-233"/>
			<point x="290" y="-228" type="curve"/>
			<point x="288" y="-219" type="line"/>
			<point x="274" y="-222"/>
			<point x="262" y="-225"/>
			<point x="249" y="-225" type="curve" smooth="yes"/>
			<point x="205" y="-225"/>
			<point x="182" y="-202"/>
			<point x="182" y="-125" type="curve" smooth="yes"/>
			<point x="182" y="-66"/>
			<point x="199" y="99"/>
			<point x="199" y="167" type="curve" smooth="yes"/>
			<point x="199" y="264"/>
			<point x="199" y="291"/>
			<point x="116" y="302" type="curve"/>
			<point x="200" y="312"/>
			<point x="199" y="350"/>
			<point x="199" y="428" type="curve" smooth="yes"/>
			<point x="199" y="505"/>
			<point x="181" y="661"/>
			<point x="181" y="719" type="curve" smooth="yes"/>
			<point x="181" y="800"/>
			<point x="205" y="820"/>
			<point x="249" y="820" type="curve" smooth="yes"/>
			<point x="262" y="820"/>
			<point x="274" y="817"/>
			<point x="288" y="814" type="curve"/>
			<point x="290" y="823" type="line"/>
			<point x="272" y="828"/>
			<point x="259" y="832"/>
			<point x="239" y="832" type="curve" smooth="yes"/>
			<point x="173" y="832"/>
			<point x="136" y="776"/>
			<point x="136" y="702" type="curve" smooth="yes"/>
			<point x="136" y="643"/>
			<point x="153" y="479"/>
			<point x="153" y="409" type="curve" smooth="yes"/>
			<point x="153" y="322"/>
			<point x="140" y="309"/>
			<point x="60" y="308" type="curve"/>
			<point x="60" y="296" type="line"/>
			<point x="140" y="295"/>
			<point x="155" y="295"/>
			<point x="155" y="196" type="curve" smooth="yes"/>
			<point x="155" y="129"/>
			<point x="136" y="-45"/>
			<point x="136" y="-113" type="curve" smooth="yes"/>
			<point x="136" y="-181"/>
			<point x="173" y="-237"/>
		</contour>
	</outline>
</glyph>
<glyph name="braceright" format="2">
	<unicode hex="007D"/>
	<advance width="330"/>
	<outline>
		<contour>
			<point x="91" y="-237" type="curve" smooth="yes"/>
			<point x="157" y="-237"/>
			<point x="194" y="-181"/>
			<point x="194" y="-113" type="curve" smooth="yes"/>
			<point x="194" y="-45"/>
			<point x="175" y="129"/>
			<point x="175" y="196" type="curve" smooth="yes"/>
			<point x="175" y="295"/>
			<point x="190" y="295"/>
			<point x="270" y="296" type="curve"/>
			<point x="270" y="308" type="line"/>
			<point x="190" y="309"/>
			<point x="177" y="322"/>
			<point x="177" y="409" type="curve" smooth="yes"/>
			<point x="177" y="479"/>
			<point x="194" y="643"/>
			<point x="194" y="702" type="curve" smooth="yes"/>
			<point x="194" y="776"/>
			<point x="157" y="832"/>
			<point x="91" y="832" type="curve" smooth="yes"/>
			<point x="71" y="832"/>
			<point x="58" y="828"/>
			<point x="40" y="823" type="curve"/>
			<point x="42" y="814" type="line"/>
			<point x="56" y="817"/>
			<point x="68" y="820"/>
			<point x="81" y="820" type="curve" smooth="yes"/>
			<point x="125" y="820"/>
			<point x="149" y="800"/>
			<point x="149" y="719" type="curve" smooth="yes"/>
			<point x="149" y="661"/>
			<point x="131" y="505"/>
			<point x="131" y="428" type="curve" smooth="yes"/>
			<point x="131" y="350"/>
			<point x="130" y="312"/>
			<point x="214" y="302" type="curve"/>
			<point x="131" y="291"/>
			<point x="131" y="264"/>
			<point x="131" y="167" type="curve" smooth="yes"/>
			<point x="131" y="99"/>
			<point x="148" y="-66"/>
			<point x="148" y="-125" type="curve" smooth="yes"/>
			<point x="148" y="-202"/>
			<point x="125" y="-225"/>
			<point x="81" y="-225" type="curve" smooth="yes"/>
			<point x="68" y="-225"/>
			<point x="56" y="-222"/>
			<point x="42" y="-219" type="curve"/>
			<point x="40" y="-228" type="line"/>
			<point x="58" y="-233"/>
			<point x="71" y="-237"/>
		</contour>
	</outline>
</glyph>
<glyph name="asciitilde" format="2">
	<unicode hex="007E"/>
	<advance width="576"/>
	<outline>
		<contour>
			<point x="84" y="261" type="line"/>
			<point x="93" y="279"/>
			<point x="105" y="303"/>
			<point x="138" y="303" type="curve" smooth="yes"/>
			<point x="182" y="303"/>
			<point x="213" y="299"/>
			<point x="268" y="285" type="curve" smooth="yes"/>
			<point x="328" y="271"/>
			<point x="366" y="262"/>
			<point x="409" y="262" type="curve" smooth="yes"/>
			<point x="436" y="262"/>
			<point x="470" y="267"/>
			<point x="501" y="336" type="curve"/>
			<point x="492" y="340" type="line"/>
			<point x="481" y="320"/>
			<point x="471" y="302"/>
			<point x="438" y="302" type="curve" smooth="yes"/>
			<point x="393" y="302"/>
			<point x="349" y="308"/>
			<point x="293" y="322" type="curve" smooth="yes"/>
			<point x="239" y="336"/>
			<point x="196" y="343"/>
			<point x="162" y="343" type="curve" smooth="yes"/>
			<point x="131" y="343"/>
			<point x="104" y="332"/>
			<point x="75" y="265" type="curve"/>
		</contour>
	</outline>
</glyph>
<glyph name="cent" format="2">
	<unicode hex="00A2"/>
	<advance width="470"/>
	<outline>
		<contour>
			<point x="189" y="-29" type="line"/>
			<point x="207" y="-29" type="line"/>
			<point x="341" y="637" type="line"/>
			<point x="323" y="637" type="line"/>
		</contour>
		<contour>
			<point x="262" y="42" type="curve" smooth="yes"/>
			<point x="346" y="42"/>
			<point x="396" y="83"/>
			<point x="434" y="146" type="curve"/>
			<point x="426" y="151" type="line"/>
			<point x="401" y="116"/>
			<point x="356" y="77"/>
			<point x="279" y="77" type="curve" smooth="yes"/>
			<point x="182" y="77"/>
			<point x="113" y="151"/>
			<point x="113" y="321" type="curve" smooth="yes"/>
			<point x="113" y="509"/>
			<point x="186" y="562"/>
			<point x="279" y="562" type="curve" smooth="yes"/>
			<point x="322" y="562"/>
			<point x="352" y="549"/>
			<point x="377" y="527" type="curve"/>
			<point x="356" y="496"/>
			<point x="341" y="477"/>
			<point x="341" y="455" type="curve" smooth="yes"/>
			<point x="341" y="434"/>
			<point x="351" y="416"/>
			<point x="380" y="416" type="curve" smooth="yes"/>
			<point x="407" y="416"/>
			<point x="424" y="432"/>
			<point x="424" y="474" type="curve" smooth="yes"/>
			<point x="424" y="530"/>
			<point x="363" y="577"/>
			<point x="275" y="577" type="curve" smooth="yes"/>
			<point x="156" y="577"/>
			<point x="62" y="484"/>
			<point x="62" y="303" type="curve" smooth="yes"/>
			<point x="62" y="129"/>
			<point x="148" y="42"/>
		</contour>
	</outline>
	<anchor name="bottom" x="268" y="26"/>
	<anchor name="top" x="269" y="606"/>
</glyph>
<glyph name="sterling" format="2">
	<unicode hex="00A3"/>
	<advance width="544"/>
	<outline>
		<contour>
			<point x="72" y="0" type="line"/>
			<point x="469" y="0" type="line"/>
			<point x="501" y="179" type="line"/>
			<point x="485" y="179" type="line"/>
			<point x="452" y="55"/>
			<point x="434" y="44"/>
			<point x="330" y="44" type="curve" smooth="yes"/>
			<point x="127" y="44" type="line"/>
			<point x="127" y="46" type="line"/>
			<point x="212" y="78"/>
			<point x="243" y="148"/>
			<point x="243" y="221" type="curve" smooth="yes"/>
			<point x="243" y="271"/>
			<point x="228" y="313"/>
			<point x="211" y="354" type="curve"/>
			<point x="402" y="354" type="line"/>
			<point x="402" y="369" type="line"/>
			<point x="204" y="369" type="line"/>
			<point x="178" y="427"/>
			<point x="149" y="485"/>
			<point x="149" y="560" type="curve" smooth="yes"/>
			<point x="149" y="666"/>
			<point x="206" y="729"/>
			<point x="301" y="729" type="curve" smooth="yes"/>
			<point x="361" y="729"/>
			<point x="406" y="715"/>
			<point x="444" y="677" type="curve"/>
			<point x="416" y="643"/>
			<point x="406" y="623"/>
			<point x="406" y="605" type="curve" smooth="yes"/>
			<point x="406" y="583"/>
			<point x="422" y="569"/>
			<point x="445" y="569" type="curve" smooth="yes"/>
			<point x="468" y="569"/>
			<point x="483" y="589"/>
			<point x="483" y="623" type="curve" smooth="yes"/>
			<point x="483" y="694"/>
			<point x="402" y="745"/>
			<point x="302" y="745" type="curve" smooth="yes"/>
			<point x="193" y="745"/>
			<point x="110" y="670"/>
			<point x="110" y="532" type="curve" smooth="yes"/>
			<point x="110" y="468"/>
			<point x="130" y="418"/>
			<point x="152" y="369" type="curve"/>
			<point x="35" y="369" type="line"/>
			<point x="33" y="354" type="line"/>
			<point x="159" y="354" type="line"/>
			<point x="182" y="302"/>
			<point x="205" y="251"/>
			<point x="205" y="183" type="curve" smooth="yes"/>
			<point x="205" y="100"/>
			<point x="150" y="61"/>
			<point x="68" y="32" type="curve"/>
		</contour>
	</outline>
</glyph>
<glyph name="ordfeminine" format="2">
	<unicode hex="00AA"/>
	<advance width="391"/>
	<outline>
		<contour>
			<point x="152" y="362" type="curve" smooth="yes"/>
			<point x="214" y="362"/>
			<point x="245" y="384"/>
			<point x="265" y="427" type="curve"/>
			<point x="266" y="381"/>
			<point x="282" y="361"/>
			<point x="322" y="361" type="curve" smooth="yes"/>
			<point x="349" y="361"/>
			<point x="365" y="374"/>
			<point x="380" y="387" type="curve"/>
			<point x="375" y="394" type="line"/>
			<point x="365" y="388"/>
			<point x="352" y="382"/>
			<point x="336" y="382" type="curve" smooth="yes"/>
			<point x="312" y="382"/>
			<point x="304" y="393"/>
			<point x="304" y="426" type="curve" smooth="yes"/>
			<point x="304" y="612" type="line" smooth="yes"/>
			<point x="304" y="708"/>
			<point x="252" y="742"/>
			<point x="178" y="742" type="curve" smooth="yes"/>
			<point x="102" y="742"/>
			<point x="41" y="699"/>
			<point x="41" y="652" type="curve" smooth="yes"/>
			<point x="41" y="627"/>
			<point x="56" y="609"/>
			<point x="80" y="609" type="curve" smooth="yes"/>
			<point x="103" y="609"/>
			<point x="120" y="624"/>
			<point x="120" y="634" type="curve" smooth="yes"/>
			<point x="120" y="654"/>
			<point x="104" y="679"/>
			<point x="89" y="703" type="curve"/>
			<point x="113" y="718"/>
			<point x="139" y="728"/>
			<point x="174" y="728" type="curve" smooth="yes"/>
			<point x="234" y="728"/>
			<point x="263" y="698"/>
			<point x="263" y="620" type="curve" smooth="yes"/>
			<point x="263" y="565" type="line"/>
			<point x="231" y="564"/>
			<point x="189" y="561"/>
			<point x="156" y="556" type="curve" smooth="yes"/>
			<point x="82" y="544"/>
			<point x="40" y="512"/>
			<point x="40" y="461" type="curve" smooth="yes"/>
			<point x="40" y="389"/>
			<point x="99" y="362"/>
		</contour>
		<contour>
			<point x="159" y="378" type="curve" smooth="yes"/>
			<point x="110" y="378"/>
			<point x="83" y="402"/>
			<point x="83" y="463" type="curve" smooth="yes"/>
			<point x="83" y="536"/>
			<point x="166" y="550"/>
			<point x="263" y="552" type="curve"/>
			<point x="263" y="487" type="line" smooth="yes"/>
			<point x="263" y="406"/>
			<point x="215" y="378"/>
		</contour>
	</outline>
</glyph>
<glyph name="logicalnot" format="2">
	<unicode hex="00AC"/>
	<advance width="582"/>
	<outline>
		<contour>
			<point x="476" y="159" type="line"/>
			<point x="494" y="159" type="line"/>
			<point x="494" y="352" type="line"/>
			<point x="88" y="352" type="line"/>
			<point x="88" y="334" type="line"/>
			<point x="476" y="334" type="line"/>
		</contour>
	</outline>
</glyph>
<glyph name="softhyphen" format="2">
	<unicode hex="00AD"/>
	<advance width="344"/>
	<outline>
		<contour>
			<point x="55" y="272" type="line"/>
			<point x="290" y="272" type="line"/>
			<point x="290" y="306" type="line"/>
			<point x="55" y="306" type="line"/>
		</contour>
	</outline>
</glyph>
<glyph name="registered" format="2">
	<unicode hex="00AE"/>
	<advance width="464"/>
	<outline>
		<contour>
			<point x="232" y="418" type="curve" smooth="yes"/>
			<point x="332" y="418"/>
			<point x="403" y="487"/>
			<point x="403" y="588" type="curve" smooth="yes"/>
			<point x="403" y="686"/>
			<point x="337" y="752"/>
			<point x="233" y="752" type="curve" smooth="yes"/>
			<point x="137" y="752"/>
			<point x="61" y="686"/>
			<point x="61" y="581" type="curve" smooth="yes"/>
			<point x="61" y="488"/>
			<point x="119" y="418"/>
		</contour>
		<contour>
			<point x="317" y="469" type="curve" smooth="yes"/>
			<point x="295" y="469"/>
			<point x="287" y="482"/>
			<point x="278" y="503" type="curve" smooth="yes"/>
			<point x="268" y="530" type="line" smooth="yes"/>
			<point x="254" y="565"/>
			<point x="244" y="584"/>
			<point x="219" y="584" type="curve" smooth="yes"/>
			<point x="194" y="584" type="line"/>
			<point x="194" y="499" type="line" smooth="yes"/>
			<point x="194" y="484"/>
			<point x="198" y="481"/>
			<point x="208" y="480" type="curve" smooth="yes"/>
			<point x="229" y="478" type="line"/>
			<point x="229" y="473" type="line"/>
			<point x="138" y="473" type="line"/>
			<point x="138" y="478" type="line"/>
			<point x="157" y="480" type="line" smooth="yes"/>
			<point x="169" y="482"/>
			<point x="171" y="490"/>
			<point x="171" y="499" type="curve" smooth="yes"/>
			<point x="171" y="678" type="line" smooth="yes"/>
			<point x="171" y="690"/>
			<point x="167" y="695"/>
			<point x="157" y="696" type="curve" smooth="yes"/>
			<point x="142" y="699" type="line"/>
			<point x="143" y="703" type="line"/>
			<point x="226" y="703" type="line" smooth="yes"/>
			<point x="277" y="703"/>
			<point x="312" y="688"/>
			<point x="312" y="646" type="curve" smooth="yes"/>
			<point x="312" y="601"/>
			<point x="267" y="590"/>
			<point x="243" y="588" type="curve"/>
			<point x="243" y="586" type="line"/>
			<point x="276" y="579"/>
			<point x="283" y="554"/>
			<point x="293" y="530" type="curve" smooth="yes"/>
			<point x="304" y="500" type="line" smooth="yes"/>
			<point x="311" y="480"/>
			<point x="319" y="477"/>
			<point x="329" y="477" type="curve" smooth="yes"/>
			<point x="334" y="477"/>
			<point x="338" y="478"/>
			<point x="342" y="479" type="curve"/>
			<point x="342" y="474" type="line"/>
			<point x="336" y="471"/>
			<point x="328" y="469"/>
		</contour>
		<contour>
			<point x="194" y="591" type="line"/>
			<point x="225" y="591" type="line" smooth="yes"/>
			<point x="260" y="591"/>
			<point x="288" y="605"/>
			<point x="288" y="648" type="curve" smooth="yes"/>
			<point x="288" y="687"/>
			<point x="254" y="696"/>
			<point x="220" y="696" type="curve" smooth="yes"/>
			<point x="194" y="696" type="line"/>
		</contour>
	</outline>
</glyph>
<glyph name="degree" format="2">
	<unicode hex="00B0"/>
	<advance width="306"/>
	<outline>
		<contour>
			<point x="153" y="559" type="curve" smooth="yes"/>
			<point x="219" y="559"/>
			<point x="261" y="600"/>
			<point x="261" y="669" type="curve" smooth="yes"/>
			<point x="261" y="738"/>
			<point x="219" y="779"/>
			<point x="153" y="779" type="curve" smooth="yes"/>
			<point x="87" y="779"/>
			<point x="45" y="738"/>
			<point x="45" y="669" type="curve" smooth="yes"/>
			<point x="45" y="600"/>
			<point x="87" y="559"/>
		</contour>
		<contour>
			<point x="153" y="582" type="curve" smooth="yes"/>
			<point x="101" y="582"/>
			<point x="69" y="615"/>
			<point x="69" y="669" type="curve" smooth="yes"/>
			<point x="69" y="723"/>
			<point x="101" y="756"/>
			<point x="153" y="756" type="curve" smooth="yes"/>
			<point x="205" y="756"/>
			<point x="237" y="723"/>
			<point x="237" y="669" type="curve" smooth="yes"/>
			<point x="237" y="615"/>
			<point x="205" y="582"/>
		</contour>
	</outline>
</glyph>
<glyph name="plusminus" format="2">
	<unicode hex="00B1"/>
	<advance width="582"/>
	<outline>
		<contour>
			<point x="281" y="128" type="line"/>
			<point x="300" y="128" type="line"/>
			<point x="300" y="312" type="line"/>
			<point x="112" y="312" type="line"/>
			<point x="112" y="330" type="line"/>
			<point x="300" y="330" type="line"/>
			<point x="300" y="505" type="line"/>
			<point x="281" y="505" type="line"/>
			<point x="281" y="330" type="line"/>
			<point x="470" y="330" type="line"/>
			<point x="470" y="312" type="line"/>
			<point x="281" y="312" type="line"/>
		</contour>
		<contour>
			<point x="112" y="1" type="line"/>
			<point x="470" y="1" type="line"/>
			<point x="470" y="19" type="line"/>
			<point x="112" y="19" type="line"/>
		</contour>
	</outline>
</glyph>
<glyph name="twosuperior" format="2">
	<unicode hex="00B2"/>
	<advance width="368"/>
	<outline>
		<contour>
			<point x="32" y="374" type="line"/>
			<point x="313" y="374" type="line"/>
			<point x="333" y="516" type="line"/>
			<point x="321" y="516" type="line"/>
			<point x="308" y="438"/>
			<point x="292" y="417"/>
			<point x="241" y="417" type="curve" smooth="yes"/>
			<point x="64" y="417" type="line"/>
			<point x="204" y="545"/>
			<point x="315" y="623"/>
			<point x="315" y="728" type="curve" smooth="yes"/>
			<point x="315" y="791"/>
			<point x="274" y="839"/>
			<point x="175" y="839" type="curve" smooth="yes"/>
			<point x="90" y="839"/>
			<point x="29" y="798"/>
			<point x="29" y="743" type="curve" smooth="yes"/>
			<point x="29" y="721"/>
			<point x="43" y="696"/>
			<point x="74" y="696" type="curve" smooth="yes"/>
			<point x="99" y="696"/>
			<point x="113" y="713"/>
			<point x="113" y="728" type="curve" smooth="yes"/>
			<point x="113" y="751"/>
			<point x="95" y="781"/>
			<point x="81" y="803" type="curve"/>
			<point x="106" y="819"/>
			<point x="134" y="825"/>
			<point x="160" y="825" type="curve" smooth="yes"/>
			<point x="227" y="825"/>
			<point x="263" y="792"/>
			<point x="263" y="722" type="curve" smooth="yes"/>
			<point x="263" y="645"/>
			<point x="237" y="587"/>
			<point x="27" y="402" type="curve"/>
		</contour>
	</outline>
</glyph>
<glyph name="acute" format="2">
	<unicode hex="00B4"/>
	<advance width="500"/>
	<outline>
		<contour>
			<point x="199" y="586" type="line"/>
			<point x="315" y="684" type="line" smooth="yes"/>
			<point x="336" y="702"/>
			<point x="345" y="716"/>
			<point x="345" y="729" type="curve" smooth="yes"/>
			<point x="345" y="743"/>
			<point x="337" y="754"/>
			<point x="323" y="754" type="curve" smooth="yes"/>
			<point x="311" y="754"/>
			<point x="302" y="747"/>
			<point x="291" y="731" type="curve" smooth="yes"/>
			<point x="192" y="593" type="line"/>
		</contour>
	</outline>
	<anchor name="_top" x="250" y="550"/>
</glyph>
<glyph name="cedilla" format="2">
	<unicode hex="00B8"/>
	<advance width="500"/>
	<outline>
		<contour>
			<point x="258" y="-224" type="curve" smooth="yes"/>
			<point x="322" y="-224"/>
			<point x="351" y="-184"/>
			<point x="351" y="-138" type="curve" smooth="yes"/>
			<point x="351" y="-86"/>
			<point x="303" y="-52"/>
			<point x="237" y="-65" type="curve"/>
			<point x="262" y="0" type="line"/>
			<point x="250" y="0" type="line"/>
			<point x="217" y="-85" type="line"/>
			<point x="219" y="-89" type="line"/>
			<point x="230" y="-86"/>
			<point x="243" y="-85"/>
			<point x="255" y="-85" type="curve" smooth="yes"/>
			<point x="284" y="-85"/>
			<point x="308" y="-102"/>
			<point x="308" y="-142" type="curve" smooth="yes"/>
			<point x="308" y="-185"/>
			<point x="284" y="-203"/>
			<point x="244" y="-203" type="curve" smooth="yes"/>
			<point x="211" y="-203"/>
			<point x="182" y="-187"/>
			<point x="166" y="-172" type="curve"/>
			<point x="159" y="-179" type="line"/>
			<point x="178" y="-200"/>
			<point x="208" y="-224"/>
		</contour>
	</outline>
	<anchor name="_bottom" x="252" y="-30"/>
</glyph>
<glyph name="onesuperior" format="2">
	<unicode hex="00B9"/>
	<advance width="277"/>
	<outline>
		<contour>
			<point x="28" y="374" type="line"/>
			<point x="254" y="374" type="line"/>
			<point x="254" y="386" type="line"/>
			<point x="189" y="390" type="line" smooth="yes"/>
			<point x="168" y="391"/>
			<point x="164" y="398"/>
			<point x="164" y="424" type="curve" smooth="yes"/>
			<point x="164" y="827" type="line"/>
			<point x="158" y="832" type="line"/>
			<point x="32" y="814" type="line"/>
			<point x="31" y="803" type="line"/>
			<point x="80" y="801" type="line" smooth="yes"/>
			<point x="117" y="799"/>
			<point x="119" y="790"/>
			<point x="119" y="762" type="curve" smooth="yes"/>
			<point x="119" y="426" type="line" smooth="yes"/>
			<point x="119" y="401"/>
			<point x="115" y="391"/>
			<point x="95" y="390" type="curve" smooth="yes"/>
			<point x="28" y="386" type="line"/>
		</contour>
	</outline>
</glyph>
<glyph name="Ccedilla" format="2">
	<unicode hex="00C7"/>
	<advance width="657"/>
	<outline>
		<contour>
			<point x="368" y="-224" type="curve" smooth="yes"/>
			<point x="432" y="-224"/>
			<point x="461" y="-184"/>
			<point x="461" y="-138" type="curve" smooth="yes"/>
			<point x="461" y="-86"/>
			<point x="413" y="-52"/>
			<point x="347" y="-65" type="curve"/>
			<point x="367" y="-14" type="line"/>
			<point x="379" y="-14"/>
			<point x="391" y="-13"/>
			<point x="403" y="-11" type="curve" smooth="yes"/>
			<point x="476" y="-1"/>
			<point x="557" y="34"/>
			<point x="617" y="124" type="curve"/>
			<point x="605" y="134" type="line"/>
			<point x="542" y="43"/>
			<point x="458" y="15"/>
			<point x="375" y="15" type="curve" smooth="yes"/>
			<point x="189" y="15"/>
			<point x="101" y="157"/>
			<point x="101" y="374" type="curve" smooth="yes"/>
			<point x="101" y="600"/>
			<point x="197" y="729"/>
			<point x="352" y="729" type="curve" smooth="yes"/>
			<point x="471" y="729"/>
			<point x="546" y="658"/>
			<point x="599" y="522" type="curve"/>
			<point x="611" y="522" type="line"/>
			<point x="576" y="744" type="line"/>
			<point x="564" y="744" type="line"/>
			<point x="554" y="659" type="line"/>
			<point x="509" y="706"/>
			<point x="445" y="744"/>
			<point x="356" y="744" type="curve" smooth="yes"/>
			<point x="169" y="744"/>
			<point x="50" y="593"/>
			<point x="50" y="357" type="curve" smooth="yes"/>
			<point x="50" y="120"/>
			<point x="170" y="-14"/>
			<point x="355" y="-14" type="curve"/>
			<point x="327" y="-85" type="line"/>
			<point x="329" y="-89" type="line"/>
			<point x="340" y="-86"/>
			<point x="353" y="-85"/>
			<point x="365" y="-85" type="curve" smooth="yes"/>
			<point x="394" y="-85"/>
			<point x="418" y="-102"/>
			<point x="418" y="-142" type="curve" smooth="yes"/>
			<point x="418" y="-185"/>
			<point x="394" y="-203"/>
			<point x="354" y="-203" type="curve" smooth="yes"/>
			<point x="321" y="-203"/>
			<point x="292" y="-187"/>
			<point x="276" y="-172" type="curve"/>
			<point x="269" y="-179" type="line"/>
			<point x="288" y="-200"/>
			<point x="318" y="-224"/>
		</contour>
	</outline>
	<anchor name="bottom" x="362" y="-30"/>
	<anchor name="top" x="352" y="730"/>
</glyph>
<glyph name="Eth" format="2">
	<unicode hex="00D0"/>
	<advance width="710"/>
	<outline>
		<contour>
			<point x="311" y="730" type="curve" smooth="yes"/>
			<point x="55" y="730" type="line"/>
			<point x="55" y="718" type="line"/>
			<point x="117" y="714" type="line" smooth="yes"/>
			<point x="143" y="712"/>
			<point x="150" y="702"/>
			<point x="150" y="666" type="curve" smooth="yes"/>
			<point x="150" y="377" type="line"/>
			<point x="54" y="377" type="line"/>
			<point x="52" y="361" type="line"/>
			<point x="150" y="361" type="line"/>
			<point x="150" y="63" type="line" smooth="yes"/>
			<point x="150" y="29"/>
			<point x="144" y="19"/>
			<point x="119" y="17" type="curve" smooth="yes"/>
			<point x="55" y="12" type="line"/>
			<point x="55" y="0" type="line"/>
			<point x="301" y="0" type="line" smooth="yes"/>
			<point x="483" y="0"/>
			<point x="660" y="77"/>
			<point x="660" y="388" type="curve" smooth="yes"/>
			<point x="660" y="640"/>
			<point x="505" y="730"/>
		</contour>
		<contour>
			<point x="287" y="16" type="curve" smooth="yes"/>
			<point x="255" y="16"/>
			<point x="224" y="18"/>
			<point x="199" y="21" type="curve"/>
			<point x="199" y="361" type="line"/>
			<point x="408" y="361" type="line"/>
			<point x="408" y="377" type="line"/>
			<point x="199" y="377" type="line"/>
			<point x="199" y="714" type="line"/>
			<point x="304" y="714" type="line" smooth="yes"/>
			<point x="493" y="714"/>
			<point x="609" y="606"/>
			<point x="609" y="379" type="curve" smooth="yes"/>
			<point x="609" y="86"/>
			<point x="470" y="16"/>
		</contour>
	</outline>
	<anchor name="bottom" x="357" y="-30"/>
	<anchor name="top" x="357" y="730"/>
</glyph>
<glyph name="ae" format="2">
	<unicode hex="00E6"/>
	<advance width="730"/>
	<outline>
		<contour>
			<point x="193" y="-14" type="curve" smooth="yes"/>
			<point x="277" y="-14"/>
			<point x="334" y="29"/>
			<point x="348" y="115" type="curve"/>
			<point x="384" y="24"/>
			<point x="449" y="-14"/>
			<point x="521" y="-14" type="curve" smooth="yes"/>
			<point x="583" y="-14"/>
			<point x="642" y="10"/>
			<point x="693" y="85" type="curve"/>
			<point x="683" y="94" type="line"/>
			<point x="638" y="44"/>
			<point x="592" y="26"/>
			<point x="541" y="26" type="curve" smooth="yes"/>
			<point x="454" y="26"/>
			<point x="370" y="90"/>
			<point x="375" y="277" type="curve"/>
			<point x="685" y="277" type="line"/>
			<point x="687" y="302"/>
			<point x="688" y="330"/>
			<point x="688" y="350" type="curve" smooth="yes"/>
			<point x="688" y="450"/>
			<point x="630" y="523"/>
			<point x="530" y="523" type="curve" smooth="yes"/>
			<point x="466" y="523"/>
			<point x="411" y="491"/>
			<point x="374" y="434" type="curve"/>
			<point x="356" y="489"/>
			<point x="310" y="523"/>
			<point x="225" y="523" type="curve" smooth="yes"/>
			<point x="147" y="523"/>
			<point x="57" y="486"/>
			<point x="57" y="410" type="curve" smooth="yes"/>
			<point x="57" y="384"/>
			<point x="74" y="370"/>
			<point x="97" y="370" type="curve" smooth="yes"/>
			<point x="123" y="370"/>
			<point x="137" y="383"/>
			<point x="137" y="403" type="curve" smooth="yes"/>
			<point x="137" y="419"/>
			<point x="131" y="431"/>
			<point x="109" y="473" type="curve"/>
			<point x="137" y="494"/>
			<point x="174" y="507"/>
			<point x="222" y="507" type="curve" smooth="yes"/>
			<point x="294" y="507"/>
			<point x="335" y="475"/>
			<point x="335" y="383" type="curve" smooth="yes"/>
			<point x="335" y="280" type="line"/>
			<point x="270" y="278"/>
			<point x="219" y="271"/>
			<point x="179" y="260" type="curve" smooth="yes"/>
			<point x="88" y="235"/>
			<point x="55" y="185"/>
			<point x="55" y="118" type="curve" smooth="yes"/>
			<point x="55" y="32"/>
			<point x="107" y="-14"/>
		</contour>
		<contour>
			<point x="210" y="13" type="curve" smooth="yes"/>
			<point x="148" y="13"/>
			<point x="106" y="52"/>
			<point x="106" y="126" type="curve" smooth="yes"/>
			<point x="106" y="188"/>
			<point x="127" y="221"/>
			<point x="180" y="240" type="curve" smooth="yes"/>
			<point x="216" y="253"/>
			<point x="266" y="259"/>
			<point x="335" y="263" type="curve"/>
			<point x="335" y="140" type="line" smooth="yes"/>
			<point x="335" y="52"/>
			<point x="271" y="13"/>
		</contour>
		<contour>
			<point x="376" y="296" type="line"/>
			<point x="384" y="442"/>
			<point x="443" y="508"/>
			<point x="527" y="508" type="curve" smooth="yes"/>
			<point x="601" y="508"/>
			<point x="638" y="460"/>
			<point x="638" y="350" type="curve" smooth="yes"/>
			<point x="638" y="334"/>
			<point x="637" y="317"/>
			<point x="635" y="296" type="curve"/>
		</contour>
	</outline>
	<anchor name="bottom" x="366.997" y="-30"/>
	<anchor name="top" x="384" y="550"/>
</glyph>
<glyph name="eth" format="2">
	<unicode hex="00F0"/>
	<advance width="533"/>
	<outline>
		<contour>
			<point x="255" y="-14" type="curve" smooth="yes"/>
			<point x="408" y="-14"/>
			<point x="479" y="107"/>
			<point x="479" y="334" type="curve" smooth="yes"/>
			<point x="479" y="479"/>
			<point x="432" y="603"/>
			<point x="344" y="682" type="curve"/>
			<point x="446" y="763" type="line"/>
			<point x="436" y="777" type="line"/>
			<point x="334" y="692" type="line"/>
			<point x="282" y="734"/>
			<point x="218" y="762"/>
			<point x="143" y="769" type="curve"/>
			<point x="140" y="755" type="line"/>
			<point x="217" y="746"/>
			<point x="270" y="723"/>
			<point x="319" y="680" type="curve"/>
			<point x="219" y="601" type="line"/>
			<point x="230" y="588" type="line"/>
			<point x="330" y="670" type="line"/>
			<point x="398" y="603"/>
			<point x="428" y="503"/>
			<point x="436" y="393" type="curve"/>
			<point x="434" y="394" type="line"/>
			<point x="406" y="455"/>
			<point x="342" y="496"/>
			<point x="260" y="496" type="curve" smooth="yes"/>
			<point x="158" y="496"/>
			<point x="42" y="420"/>
			<point x="42" y="242" type="curve" smooth="yes"/>
			<point x="42" y="83"/>
			<point x="126" y="-14"/>
		</contour>
		<contour>
			<point x="269" y="2" type="curve" smooth="yes"/>
			<point x="166" y="2"/>
			<point x="93" y="78"/>
			<point x="93" y="239" type="curve" smooth="yes"/>
			<point x="93" y="407"/>
			<point x="167" y="481"/>
			<point x="266" y="481" type="curve" smooth="yes"/>
			<point x="333" y="481"/>
			<point x="380" y="449"/>
			<point x="404" y="394" type="curve" smooth="yes"/>
			<point x="428" y="340"/>
			<point x="430" y="287"/>
			<point x="430" y="242" type="curve" smooth="yes"/>
			<point x="430" y="101"/>
			<point x="370" y="2"/>
		</contour>
	</outline>
</glyph>
<glyph name="oslash" format="2">
	<unicode hex="00F8"/>
	<advance width="525"/>
	<outline>
		<contour>
			<point x="57" y="-14" type="line"/>
			<point x="79" y="-14" type="line"/>
			<point x="120" y="41" type="line"/>
			<point x="157" y="6"/>
			<point x="206" y="-14"/>
			<point x="265" y="-14" type="curve" smooth="yes"/>
			<point x="398" y="-14"/>
			<point x="478" y="98"/>
			<point x="478" y="270" type="curve" smooth="yes"/>
			<point x="478" y="344"/>
			<point x="459" y="406"/>
			<point x="424" y="450" type="curve"/>
			<point x="478" y="523" type="line"/>
			<point x="456" y="523" type="line"/>
			<point x="412" y="463" type="line"/>
			<point x="376" y="500"/>
			<point x="328" y="521"/>
			<point x="269" y="521" type="curve" smooth="yes"/>
			<point x="127" y="521"/>
			<point x="47" y="413"/>
			<point x="47" y="248" type="curve" smooth="yes"/>
			<point x="47" y="166"/>
			<point x="69" y="100"/>
			<point x="108" y="54" type="curve"/>
		</contour>
		<contour>
			<point x="271" y="2" type="curve" smooth="yes"/>
			<point x="215" y="2"/>
			<point x="171" y="24"/>
			<point x="141" y="70" type="curve"/>
			<point x="399" y="417" type="line"/>
			<point x="418" y="375"/>
			<point x="427" y="319"/>
			<point x="427" y="248" type="curve" smooth="yes"/>
			<point x="427" y="78"/>
			<point x="369" y="2"/>
		</contour>
		<contour>
			<point x="132" y="86" type="line"/>
			<point x="110" y="129"/>
			<point x="98" y="187"/>
			<point x="98" y="263" type="curve" smooth="yes"/>
			<point x="98" y="432"/>
			<point x="159" y="506"/>
			<point x="262" y="506" type="curve" smooth="yes"/>
			<point x="320" y="506"/>
			<point x="363" y="482"/>
			<point x="390" y="434" type="curve"/>
		</contour>
	</outline>
	<anchor name="bottom" x="264" y="-30"/>
	<anchor name="top" x="263" y="550"/>
</glyph>
<glyph name="dcroat" format="2">
	<unicode hex="0111"/>
	<advance width="562"/>
	<outline>
		<contour>
			<point x="246" y="-14" type="curve" smooth="yes"/>
			<point x="321" y="-14"/>
			<point x="375" y="22"/>
			<point x="403" y="80" type="curve"/>
			<point x="404" y="80" type="line"/>
			<point x="406" y="-9" type="line"/>
			<point x="531" y="0" type="line"/>
			<point x="531" y="12" type="line"/>
			<point x="485" y="14" type="line" smooth="yes"/>
			<point x="459" y="15"/>
			<point x="453" y="29"/>
			<point x="453" y="60" type="curve" smooth="yes"/>
			<point x="453" y="623" type="line"/>
			<point x="530" y="623" type="line"/>
			<point x="530" y="638" type="line"/>
			<point x="453" y="638" type="line"/>
			<point x="453" y="762" type="line"/>
			<point x="447" y="766" type="line"/>
			<point x="312" y="761" type="line"/>
			<point x="311" y="751" type="line"/>
			<point x="361" y="748" type="line" smooth="yes"/>
			<point x="397" y="746"/>
			<point x="404" y="737"/>
			<point x="404" y="690" type="curve" smooth="yes"/>
			<point x="404" y="638" type="line"/>
			<point x="259" y="638" type="line"/>
			<point x="256" y="623" type="line"/>
			<point x="404" y="623" type="line"/>
			<point x="404" y="488" type="line"/>
			<point x="371" y="506"/>
			<point x="326" y="523"/>
			<point x="273" y="523" type="curve" smooth="yes"/>
			<point x="136" y="523"/>
			<point x="47" y="419"/>
			<point x="47" y="248" type="curve" smooth="yes"/>
			<point x="47" y="74"/>
			<point x="117" y="-14"/>
		</contour>
		<contour>
			<point x="258" y="12" type="curve" smooth="yes"/>
			<point x="156" y="12"/>
			<point x="98" y="94"/>
			<point x="98" y="256" type="curve" smooth="yes"/>
			<point x="98" y="440"/>
			<point x="166" y="507"/>
			<point x="266" y="507" type="curve" smooth="yes"/>
			<point x="316" y="507"/>
			<point x="361" y="490"/>
			<point x="404" y="462" type="curve"/>
			<point x="404" y="160" type="line" smooth="yes"/>
			<point x="404" y="64"/>
			<point x="346" y="12"/>
		</contour>
	</outline>
	<anchor name="bottom" x="279" y="-30"/>
	<anchor name="top" x="264" y="550"/>
</glyph>
<glyph name="Eogonek" format="2">
	<unicode hex="0118"/>
	<advance width="567"/>
	<outline>
		<contour>
			<point x="414" y="-223" type="curve" smooth="yes"/>
			<point x="448" y="-223"/>
			<point x="471" y="-211"/>
			<point x="499" y="-171" type="curve"/>
			<point x="491" y="-165" type="line"/>
			<point x="470" y="-186"/>
			<point x="450" y="-192"/>
			<point x="431" y="-192" type="curve" smooth="yes"/>
			<point x="405" y="-192"/>
			<point x="389" y="-176"/>
			<point x="389" y="-144" type="curve" smooth="yes"/>
			<point x="389" y="-91"/>
			<point x="431" y="-49"/>
			<point x="509" y="0" type="curve"/>
			<point x="524" y="162" type="line"/>
			<point x="512" y="162" type="line"/>
			<point x="479" y="30"/>
			<point x="456" y="16"/>
			<point x="359" y="16" type="curve" smooth="yes"/>
			<point x="199" y="16" type="line"/>
			<point x="199" y="366" type="line"/>
			<point x="329" y="366" type="line" smooth="yes"/>
			<point x="408" y="366"/>
			<point x="416" y="351"/>
			<point x="428" y="276" type="curve"/>
			<point x="440" y="275" type="line"/>
			<point x="440" y="474" type="line"/>
			<point x="428" y="474" type="line"/>
			<point x="413" y="394"/>
			<point x="408" y="382"/>
			<point x="333" y="382" type="curve" smooth="yes"/>
			<point x="199" y="382" type="line"/>
			<point x="199" y="714" type="line"/>
			<point x="333" y="714" type="line" smooth="yes"/>
			<point x="437" y="714"/>
			<point x="458" y="709"/>
			<point x="498" y="581" type="curve"/>
			<point x="510" y="580" type="line"/>
			<point x="482" y="730" type="line"/>
			<point x="55" y="730" type="line"/>
			<point x="55" y="718" type="line"/>
			<point x="117" y="714" type="line" smooth="yes"/>
			<point x="143" y="712"/>
			<point x="150" y="702"/>
			<point x="150" y="666" type="curve" smooth="yes"/>
			<point x="150" y="63" type="line" smooth="yes"/>
			<point x="150" y="29"/>
			<point x="144" y="19"/>
			<point x="119" y="17" type="curve" smooth="yes"/>
			<point x="55" y="12" type="line"/>
			<point x="55" y="0" type="line"/>
			<point x="489" y="0" type="line"/>
			<point x="393" y="-57"/>
			<point x="344" y="-100"/>
			<point x="344" y="-154" type="curve" smooth="yes"/>
			<point x="344" y="-195"/>
			<point x="372" y="-223"/>
		</contour>
	</outline>
	<anchor name="bottom" x="322" y="-30"/>
	<anchor name="top" x="294" y="730"/>
</glyph>
<glyph name="eogonek" format="2">
	<unicode hex="0119"/>
	<advance width="453"/>
	<outline>
		<contour>
			<point x="289" y="-223" type="curve" smooth="yes"/>
			<point x="323" y="-223"/>
			<point x="346" y="-211"/>
			<point x="374" y="-171" type="curve"/>
			<point x="366" y="-165" type="line"/>
			<point x="345" y="-186"/>
			<point x="325" y="-192"/>
			<point x="306" y="-192" type="curve" smooth="yes"/>
			<point x="280" y="-192"/>
			<point x="262" y="-176"/>
			<point x="262" y="-139" type="curve" smooth="yes"/>
			<point x="262" y="-87"/>
			<point x="284" y="-53"/>
			<point x="359" y="25" type="curve"/>
			<point x="379" y="41"/>
			<point x="398" y="61"/>
			<point x="416" y="88" type="curve"/>
			<point x="409" y="94" type="line"/>
			<point x="364" y="44"/>
			<point x="318" y="26"/>
			<point x="262" y="26" type="curve" smooth="yes"/>
			<point x="170" y="26"/>
			<point x="86" y="90"/>
			<point x="91" y="277" type="curve"/>
			<point x="411" y="277" type="line"/>
			<point x="413" y="302"/>
			<point x="414" y="330"/>
			<point x="414" y="350" type="curve" smooth="yes"/>
			<point x="414" y="450"/>
			<point x="356" y="523"/>
			<point x="251" y="523" type="curve" smooth="yes"/>
			<point x="127" y="523"/>
			<point x="42" y="416"/>
			<point x="42" y="250" type="curve" smooth="yes"/>
			<point x="42" y="66"/>
			<point x="130" y="-14"/>
			<point x="242" y="-14" type="curve" smooth="yes"/>
			<point x="270" y="-14"/>
			<point x="296" y="-9"/>
			<point x="320" y="2" type="curve"/>
			<point x="249" y="-64"/>
			<point x="217" y="-102"/>
			<point x="217" y="-149" type="curve" smooth="yes"/>
			<point x="217" y="-195"/>
			<point x="247" y="-223"/>
		</contour>
		<contour>
			<point x="92" y="296" type="line"/>
			<point x="100" y="442"/>
			<point x="159" y="508"/>
			<point x="248" y="508" type="curve" smooth="yes"/>
			<point x="327" y="508"/>
			<point x="364" y="460"/>
			<point x="364" y="350" type="curve" smooth="yes"/>
			<point x="364" y="334"/>
			<point x="363" y="317"/>
			<point x="361" y="296" type="curve"/>
		</contour>
	</outline>
	<anchor name="bottom" x="255" y="-30"/>
	<anchor name="top" x="245" y="550"/>
</glyph>
<glyph name="hbar" format="2">
	<unicode hex="0127"/>
	<advance width="594"/>
	<outline>
		<contour>
			<point x="45" y="0" type="line"/>
			<point x="250" y="0" type="line"/>
			<point x="250" y="11" type="line"/>
			<point x="197" y="16" type="line" smooth="yes"/>
			<point x="177" y="18"/>
			<point x="172" y="27"/>
			<point x="172" y="59" type="curve" smooth="yes"/>
			<point x="172" y="344" type="line" smooth="yes"/>
			<point x="172" y="433"/>
			<point x="237" y="493"/>
			<point x="323" y="493" type="curve" smooth="yes"/>
			<point x="407" y="493"/>
			<point x="443" y="450"/>
			<point x="443" y="359" type="curve" smooth="yes"/>
			<point x="443" y="58" type="line" smooth="yes"/>
			<point x="443" y="27"/>
			<point x="438" y="19"/>
			<point x="412" y="16" type="curve" smooth="yes"/>
			<point x="365" y="11" type="line"/>
			<point x="365" y="0" type="line"/>
			<point x="570" y="0" type="line"/>
			<point x="570" y="12" type="line"/>
			<point x="522" y="16" type="line" smooth="yes"/>
			<point x="497" y="18"/>
			<point x="492" y="28"/>
			<point x="492" y="57" type="curve" smooth="yes"/>
			<point x="492" y="364" type="line" smooth="yes"/>
			<point x="492" y="465"/>
			<point x="441" y="523"/>
			<point x="342" y="523" type="curve" smooth="yes"/>
			<point x="275" y="523"/>
			<point x="204" y="488"/>
			<point x="173" y="414" type="curve"/>
			<point x="172" y="414" type="line"/>
			<point x="172" y="623" type="line"/>
			<point x="327" y="623" type="line"/>
			<point x="327" y="638" type="line"/>
			<point x="172" y="638" type="line"/>
			<point x="172" y="762" type="line"/>
			<point x="166" y="766" type="line"/>
			<point x="31" y="761" type="line"/>
			<point x="30" y="751" type="line"/>
			<point x="80" y="748" type="line" smooth="yes"/>
			<point x="116" y="746"/>
			<point x="123" y="737"/>
			<point x="123" y="690" type="curve" smooth="yes"/>
			<point x="123" y="638" type="line"/>
			<point x="36" y="638" type="line"/>
			<point x="33" y="623" type="line"/>
			<point x="123" y="623" type="line"/>
			<point x="123" y="60" type="line" smooth="yes"/>
			<point x="123" y="25"/>
			<point x="118" y="18"/>
			<point x="97" y="16" type="curve" smooth="yes"/>
			<point x="45" y="12" type="line"/>
		</contour>
	</outline>
	<anchor name="bottom" x="313" y="-30"/>
	<anchor name="top" x="121" y="782"/>
</glyph>
<glyph name="iogonek" format="2">
	<unicode hex="012F"/>
	<advance width="284"/>
	<outline>
		<contour>
			<point x="150" y="-223" type="curve" smooth="yes"/>
			<point x="184" y="-223"/>
			<point x="209" y="-213"/>
			<point x="237" y="-171" type="curve"/>
			<point x="229" y="-165" type="line"/>
			<point x="208" y="-186"/>
			<point x="186" y="-192"/>
			<point x="167" y="-192" type="curve" smooth="yes"/>
			<point x="141" y="-192"/>
			<point x="127" y="-176"/>
			<point x="127" y="-139" type="curve" smooth="yes"/>
			<point x="127" y="-94"/>
			<point x="150" y="-53"/>
			<point x="209" y="0" type="curve"/>
			<point x="249" y="0" type="line"/>
			<point x="249" y="11" type="line"/>
			<point x="196" y="16" type="line" smooth="yes"/>
			<point x="176" y="18"/>
			<point x="171" y="27"/>
			<point x="171" y="59" type="curve" smooth="yes"/>
			<point x="171" y="511" type="line"/>
			<point x="167" y="515" type="line"/>
			<point x="42" y="503" type="line"/>
			<point x="41" y="493" type="line"/>
			<point x="89" y="489" type="line" smooth="yes"/>
			<point x="117" y="487"/>
			<point x="122" y="477"/>
			<point x="122" y="427" type="curve" smooth="yes"/>
			<point x="122" y="60" type="line" smooth="yes"/>
			<point x="122" y="25"/>
			<point x="117" y="18"/>
			<point x="96" y="16" type="curve" smooth="yes"/>
			<point x="44" y="12" type="line"/>
			<point x="44" y="0" type="line"/>
			<point x="194" y="0" type="line"/>
			<point x="118" y="-56"/>
			<point x="82" y="-102"/>
			<point x="82" y="-154" type="curve" smooth="yes"/>
			<point x="82" y="-195"/>
			<point x="108" y="-223"/>
		</contour>
		<contour>
			<point x="133" y="635" type="curve" smooth="yes"/>
			<point x="159" y="635"/>
			<point x="174" y="659"/>
			<point x="174" y="684" type="curve" smooth="yes"/>
			<point x="174" y="710"/>
			<point x="158" y="729"/>
			<point x="134" y="729" type="curve" smooth="yes"/>
			<point x="110" y="729"/>
			<point x="93" y="707"/>
			<point x="93" y="680" type="curve" smooth="yes"/>
			<point x="93" y="656"/>
			<point x="109" y="635"/>
		</contour>
	</outline>
	<anchor name="bottom" x="148" y="-30"/>
</glyph>
<glyph name="idotless" format="2">
	<unicode hex="0131"/>
	<advance width="285"/>
	<outline>
		<contour>
			<point x="44" y="0" type="line"/>
			<point x="249" y="0" type="line"/>
			<point x="249" y="11" type="line"/>
			<point x="196" y="16" type="line" smooth="yes"/>
			<point x="176" y="18"/>
			<point x="171" y="27"/>
			<point x="171" y="59" type="curve" smooth="yes"/>
			<point x="171" y="511" type="line"/>
			<point x="167" y="515" type="line"/>
			<point x="42" y="503" type="line"/>
			<point x="41" y="493" type="line"/>
			<point x="89" y="489" type="line" smooth="yes"/>
			<point x="117" y="487"/>
			<point x="122" y="478"/>
			<point x="122" y="427" type="curve" smooth="yes"/>
			<point x="122" y="60" type="line" smooth="yes"/>
			<point x="122" y="25"/>
			<point x="117" y="18"/>
			<point x="96" y="16" type="curve" smooth="yes"/>
			<point x="44" y="12" type="line"/>
		</contour>
	</outline>
	<anchor name="bottom" x="146" y="-30"/>
	<anchor name="top" x="123" y="550"/>
</glyph>
<glyph name="kgreenlandic" format="2">
	<unicode hex="0138"/>
	<advance width="538"/>
	<outline>
		<contour>
			<point x="450" y="-8" type="curve" smooth="yes"/>
			<point x="485" y="-8"/>
			<point x="513" y="11"/>
			<point x="538" y="34" type="curve"/>
			<point x="532" y="41" type="line"/>
			<point x="516" y="29"/>
			<point x="502" y="18"/>
			<point x="475" y="18" type="curve" smooth="yes"/>
			<point x="446" y="18"/>
			<point x="417" y="43"/>
			<point x="389" y="84" type="curve" smooth="yes"/>
			<point x="237" y="306" type="line"/>
			<point x="392" y="447" type="line" smooth="yes"/>
			<point x="410" y="464"/>
			<point x="433" y="489"/>
			<point x="456" y="492" type="curve" smooth="yes"/>
			<point x="491" y="497" type="line"/>
			<point x="491" y="509" type="line"/>
			<point x="340" y="509" type="line"/>
			<point x="340" y="497" type="line"/>
			<point x="379" y="492" type="line" smooth="yes"/>
			<point x="406" y="489"/>
			<point x="396" y="472"/>
			<point x="375" y="454" type="curve" smooth="yes"/>
			<point x="193" y="291" type="line"/>
			<point x="193" y="283" type="line"/>
			<point x="346" y="61" type="line" smooth="yes"/>
			<point x="388" y="1"/>
			<point x="420" y="-8"/>
		</contour>
		<contour>
			<point x="44" y="0" type="line"/>
			<point x="249" y="0" type="line"/>
			<point x="249" y="11" type="line"/>
			<point x="196" y="16" type="line" smooth="yes"/>
			<point x="176" y="18"/>
			<point x="171" y="27"/>
			<point x="171" y="59" type="curve" smooth="yes"/>
			<point x="171" y="511" type="line"/>
			<point x="167" y="515" type="line"/>
			<point x="42" y="503" type="line"/>
			<point x="41" y="493" type="line"/>
			<point x="89" y="489" type="line" smooth="yes"/>
			<point x="117" y="487"/>
			<point x="122" y="478"/>
			<point x="122" y="427" type="curve" smooth="yes"/>
			<point x="122" y="60" type="line" smooth="yes"/>
			<point x="122" y="25"/>
			<point x="117" y="18"/>
			<point x="96" y="16" type="curve" smooth="yes"/>
			<point x="44" y="12" type="line"/>
		</contour>
	</outline>
</glyph>
<glyph name="Lslash" format="2">
	<unicode hex="0141"/>
	<advance width="543"/>
	<outline>
		<contour>
			<point x="501" y="174" type="line"/>
			<point x="459" y="28"/>
			<point x="454" y="16"/>
			<point x="350" y="16" type="curve" smooth="yes"/>
			<point x="199" y="16" type="line"/>
			<point x="199" y="351" type="line"/>
			<point x="393" y="452" type="line"/>
			<point x="393" y="471" type="line"/>
			<point x="199" y="370" type="line"/>
			<point x="199" y="666" type="line" smooth="yes"/>
			<point x="199" y="702"/>
			<point x="204" y="713"/>
			<point x="230" y="714" type="curve" smooth="yes"/>
			<point x="314" y="718" type="line"/>
			<point x="314" y="730" type="line"/>
			<point x="55" y="730" type="line"/>
			<point x="55" y="718" type="line"/>
			<point x="117" y="714" type="line" smooth="yes"/>
			<point x="143" y="712"/>
			<point x="150" y="702"/>
			<point x="150" y="666" type="curve" smooth="yes"/>
			<point x="150" y="347" type="line"/>
			<point x="26" y="282" type="line"/>
			<point x="26" y="263" type="line"/>
			<point x="150" y="328" type="line"/>
			<point x="150" y="63" type="line" smooth="yes"/>
			<point x="150" y="29"/>
			<point x="144" y="19"/>
			<point x="119" y="17" type="curve" smooth="yes"/>
			<point x="55" y="12" type="line"/>
			<point x="55" y="0" type="line"/>
			<point x="487" y="0" type="line"/>
			<point x="513" y="174" type="line"/>
		</contour>
	</outline>
	<anchor name="bottom" x="298" y="-30"/>
	<anchor name="top" x="177" y="730"/>
</glyph>
<glyph name="Tcedilla" format="2">
	<unicode hex="0162"/>
	<advance width="594"/>
	<outline>
		<contour>
			<point x="304" y="-224" type="curve" smooth="yes"/>
			<point x="368" y="-224"/>
			<point x="397" y="-184"/>
			<point x="397" y="-138" type="curve" smooth="yes"/>
			<point x="397" y="-86"/>
			<point x="349" y="-52"/>
			<point x="283" y="-65" type="curve"/>
			<point x="308" y="0" type="line"/>
			<point x="441" y="0" type="line"/>
			<point x="441" y="12" type="line"/>
			<point x="365" y="17" type="line" smooth="yes"/>
			<point x="338" y="19"/>
			<point x="331" y="27"/>
			<point x="331" y="63" type="curve" smooth="yes"/>
			<point x="331" y="714" type="line"/>
			<point x="420" y="714" type="line" smooth="yes"/>
			<point x="516" y="714"/>
			<point x="536" y="694"/>
			<point x="585" y="526" type="curve"/>
			<point x="597" y="526" type="line"/>
			<point x="568" y="730" type="line"/>
			<point x="48" y="730" type="line"/>
			<point x="17" y="526" type="line"/>
			<point x="30" y="526" type="line"/>
			<point x="79" y="694"/>
			<point x="93" y="714"/>
			<point x="195" y="714" type="curve" smooth="yes"/>
			<point x="282" y="714" type="line"/>
			<point x="282" y="63" type="line" smooth="yes"/>
			<point x="282" y="26"/>
			<point x="271" y="19"/>
			<point x="247" y="17" type="curve" smooth="yes"/>
			<point x="172" y="12" type="line"/>
			<point x="172" y="0" type="line"/>
			<point x="296" y="0" type="line"/>
			<point x="263" y="-85" type="line"/>
			<point x="265" y="-89" type="line"/>
			<point x="276" y="-86"/>
			<point x="289" y="-85"/>
			<point x="301" y="-85" type="curve" smooth="yes"/>
			<point x="330" y="-85"/>
			<point x="354" y="-102"/>
			<point x="354" y="-142" type="curve" smooth="yes"/>
			<point x="354" y="-185"/>
			<point x="330" y="-203"/>
			<point x="290" y="-203" type="curve" smooth="yes"/>
			<point x="257" y="-203"/>
			<point x="228" y="-187"/>
			<point x="212" y="-172" type="curve"/>
			<point x="205" y="-179" type="line"/>
			<point x="224" y="-200"/>
			<point x="254" y="-224"/>
		</contour>
	</outline>
	<anchor name="bottom" x="306" y="-30"/>
	<anchor name="top" x="307" y="730"/>
</glyph>
<glyph name="tcedilla" format="2">
	<unicode hex="0163"/>
	<advance width="340"/>
	<outline>
		<contour>
			<point x="223" y="-224" type="curve" smooth="yes"/>
			<point x="287" y="-224"/>
			<point x="316" y="-184"/>
			<point x="316" y="-138" type="curve" smooth="yes"/>
			<point x="316" y="-86"/>
			<point x="268" y="-52"/>
			<point x="202" y="-65" type="curve"/>
			<point x="222" y="-14" type="line"/>
			<point x="269" y="-11"/>
			<point x="307" y="12"/>
			<point x="340" y="60" type="curve"/>
			<point x="332" y="66" type="line"/>
			<point x="303" y="32"/>
			<point x="266" y="17"/>
			<point x="234" y="17" type="curve" smooth="yes"/>
			<point x="176" y="17"/>
			<point x="154" y="42"/>
			<point x="154" y="123" type="curve" smooth="yes"/>
			<point x="154" y="493" type="line"/>
			<point x="306" y="493" type="line"/>
			<point x="306" y="509" type="line"/>
			<point x="154" y="509" type="line"/>
			<point x="154" y="640" type="line"/>
			<point x="152" y="641" type="line"/>
			<point x="134" y="638" type="line"/>
			<point x="122" y="528"/>
			<point x="88" y="503"/>
			<point x="31" y="503" type="curve"/>
			<point x="31" y="493" type="line"/>
			<point x="105" y="493" type="line"/>
			<point x="105" y="131" type="line" smooth="yes"/>
			<point x="105" y="29"/>
			<point x="137" y="-13"/>
			<point x="210" y="-14" type="curve"/>
			<point x="182" y="-85" type="line"/>
			<point x="184" y="-89" type="line"/>
			<point x="195" y="-86"/>
			<point x="208" y="-85"/>
			<point x="220" y="-85" type="curve" smooth="yes"/>
			<point x="249" y="-85"/>
			<point x="273" y="-102"/>
			<point x="273" y="-142" type="curve" smooth="yes"/>
			<point x="273" y="-185"/>
			<point x="249" y="-203"/>
			<point x="209" y="-203" type="curve" smooth="yes"/>
			<point x="176" y="-203"/>
			<point x="147" y="-187"/>
			<point x="131" y="-172" type="curve"/>
			<point x="124" y="-179" type="line"/>
			<point x="143" y="-200"/>
			<point x="173" y="-224"/>
		</contour>
	</outline>
	<anchor name="bottom" x="217" y="-30"/>
</glyph>
<glyph name="tbar" format="2">
	<unicode hex="0167"/>
	<advance width="340"/>
	<outline>
		<contour>
			<point x="213" y="-14" type="curve" smooth="yes"/>
			<point x="264" y="-14"/>
			<point x="305" y="9"/>
			<point x="340" y="60" type="curve"/>
			<point x="332" y="66" type="line"/>
			<point x="303" y="32"/>
			<point x="266" y="17"/>
			<point x="234" y="17" type="curve" smooth="yes"/>
			<point x="176" y="17"/>
			<point x="154" y="42"/>
			<point x="154" y="123" type="curve" smooth="yes"/>
			<point x="154" y="293" type="line"/>
			<point x="306" y="293" type="line"/>
			<point x="306" y="308" type="line"/>
			<point x="154" y="308" type="line"/>
			<point x="154" y="493" type="line"/>
			<point x="306" y="493" type="line"/>
			<point x="306" y="509" type="line"/>
			<point x="154" y="509" type="line"/>
			<point x="154" y="640" type="line"/>
			<point x="152" y="641" type="line"/>
			<point x="134" y="638" type="line"/>
			<point x="122" y="528"/>
			<point x="88" y="503"/>
			<point x="31" y="503" type="curve"/>
			<point x="31" y="493" type="line"/>
			<point x="105" y="493" type="line"/>
			<point x="105" y="308" type="line"/>
			<point x="28" y="308" type="line"/>
			<point x="25" y="293" type="line"/>
			<point x="105" y="293" type="line"/>
			<point x="105" y="131" type="line" smooth="yes"/>
			<point x="105" y="27"/>
			<point x="138" y="-14"/>
		</contour>
	</outline>
	<anchor name="bottom" x="217" y="-30"/>
</glyph>
<glyph name="Uogonek" format="2">
	<unicode hex="0172"/>
	<advance width="730"/>
	<outline>
		<contour>
			<point x="414" y="-223" type="curve" smooth="yes"/>
			<point x="448" y="-223"/>
			<point x="471" y="-211"/>
			<point x="499" y="-171" type="curve"/>
			<point x="491" y="-165" type="line"/>
			<point x="470" y="-186"/>
			<point x="450" y="-192"/>
			<point x="431" y="-192" type="curve" smooth="yes"/>
			<point x="405" y="-192"/>
			<point x="389" y="-176"/>
			<point x="389" y="-144" type="curve" smooth="yes"/>
			<point x="389" y="-93"/>
			<point x="431" y="-31"/>
			<point x="499" y="17" type="curve"/>
			<point x="571" y="60"/>
			<point x="610" y="147"/>
			<point x="610" y="271" type="curve" smooth="yes"/>
			<point x="610" y="667" type="line" smooth="yes"/>
			<point x="610" y="702"/>
			<point x="614" y="712"/>
			<point x="639" y="714" type="curve" smooth="yes"/>
			<point x="690" y="718" type="line"/>
			<point x="690" y="730" type="line"/>
			<point x="512" y="730" type="line"/>
			<point x="512" y="718" type="line"/>
			<point x="561" y="714" type="line" smooth="yes"/>
			<point x="587" y="712"/>
			<point x="592" y="700"/>
			<point x="592" y="668" type="curve" smooth="yes"/>
			<point x="592" y="281" type="line" smooth="yes"/>
			<point x="592" y="115"/>
			<point x="528" y="12"/>
			<point x="391" y="12" type="curve" smooth="yes"/>
			<point x="241" y="12"/>
			<point x="182" y="100"/>
			<point x="182" y="273" type="curve" smooth="yes"/>
			<point x="182" y="668" type="line" smooth="yes"/>
			<point x="182" y="706"/>
			<point x="190" y="713"/>
			<point x="212" y="714" type="curve" smooth="yes"/>
			<point x="277" y="718" type="line"/>
			<point x="277" y="730" type="line"/>
			<point x="40" y="730" type="line"/>
			<point x="40" y="718" type="line"/>
			<point x="103" y="714" type="line" smooth="yes"/>
			<point x="129" y="712"/>
			<point x="135" y="702"/>
			<point x="135" y="668" type="curve" smooth="yes"/>
			<point x="135" y="250" type="line" smooth="yes"/>
			<point x="135" y="67"/>
			<point x="214" y="-14"/>
			<point x="374" y="-14" type="curve" smooth="yes"/>
			<point x="404" y="-14"/>
			<point x="432" y="-10"/>
			<point x="457" y="-2" type="curve"/>
			<point x="381" y="-58"/>
			<point x="344" y="-106"/>
			<point x="344" y="-154" type="curve" smooth="yes"/>
			<point x="344" y="-195"/>
			<point x="372" y="-223"/>
		</contour>
	</outline>
	<anchor name="bottom" x="380" y="-30"/>
	<anchor name="top" x="391" y="730"/>
</glyph>
<glyph name="Schwa" format="2">
	<unicode hex="018F"/>
	<advance width="634"/>
	<outline>
		<contour>
			<point x="291" y="-14" type="curve" smooth="yes"/>
			<point x="483" y="-14"/>
			<point x="584" y="143"/>
			<point x="584" y="367" type="curve" smooth="yes"/>
			<point x="584" y="607"/>
			<point x="485" y="744"/>
			<point x="300" y="744" type="curve" smooth="yes"/>
			<point x="176" y="744"/>
			<point x="101" y="677"/>
			<point x="55" y="587" type="curve"/>
			<point x="65" y="582" type="line"/>
			<point x="102" y="648"/>
			<point x="179" y="715"/>
			<point x="289" y="715" type="curve" smooth="yes"/>
			<point x="425" y="715"/>
			<point x="533" y="618"/>
			<point x="531" y="339" type="curve"/>
			<point x="58" y="339" type="line"/>
			<point x="54" y="313"/>
			<point x="50" y="267"/>
			<point x="50" y="228" type="curve" smooth="yes"/>
			<point x="50" y="66"/>
			<point x="156" y="-14"/>
		</contour>
		<contour>
			<point x="295" y="1" type="curve" smooth="yes"/>
			<point x="178" y="1"/>
			<point x="100" y="65"/>
			<point x="100" y="232" type="curve" smooth="yes"/>
			<point x="100" y="262"/>
			<point x="100" y="282"/>
			<point x="106" y="323" type="curve"/>
			<point x="530" y="323" type="line"/>
			<point x="520" y="104"/>
			<point x="450" y="1"/>
		</contour>
	</outline>
</glyph>
<glyph name="ohorn" format="2">
	<unicode hex="01A1"/>
	<advance width="572"/>
	<outline>
		<contour>
			<point x="260" y="-14" type="curve" smooth="yes"/>
			<point x="393" y="-14"/>
			<point x="473" y="98"/>
			<point x="473" y="270" type="curve" smooth="yes"/>
			<point x="473" y="320"/>
			<point x="464" y="365"/>
			<point x="448" y="402" type="curve"/>
			<point x="537" y="444"/>
			<point x="572" y="514"/>
			<point x="572" y="583" type="curve" smooth="yes"/>
			<point x="572" y="623"/>
			<point x="552" y="654"/>
			<point x="515" y="654" type="curve" smooth="yes"/>
			<point x="489" y="654"/>
			<point x="470" y="635"/>
			<point x="470" y="609" type="curve" smooth="yes"/>
			<point x="470" y="576"/>
			<point x="491" y="562"/>
			<point x="525" y="562" type="curve" smooth="yes"/>
			<point x="542" y="562" type="line"/>
			<point x="538" y="505"/>
			<point x="519" y="452"/>
			<point x="442" y="414" type="curve"/>
			<point x="407" y="481"/>
			<point x="345" y="521"/>
			<point x="264" y="521" type="curve" smooth="yes"/>
			<point x="122" y="521"/>
			<point x="42" y="413"/>
			<point x="42" y="248" type="curve" smooth="yes"/>
			<point x="42" y="88"/>
			<point x="125" y="-14"/>
		</contour>
		<contour>
			<point x="266" y="2" type="curve" smooth="yes"/>
			<point x="158" y="2"/>
			<point x="93" y="85"/>
			<point x="93" y="263" type="curve" smooth="yes"/>
			<point x="93" y="432"/>
			<point x="154" y="506"/>
			<point x="257" y="506" type="curve" smooth="yes"/>
			<point x="367" y="506"/>
			<point x="422" y="420"/>
			<point x="422" y="248" type="curve" smooth="yes"/>
			<point x="422" y="78"/>
			<point x="364" y="2"/>
		</contour>
	</outline>
	<anchor name="bottom" x="259" y="-30"/>
	<anchor name="top" x="258" y="550"/>
</glyph>
<glyph name="Uhorn" format="2">
	<unicode hex="01AF"/>
	<advance width="798"/>
	<outline>
		<contour>
			<point x="374" y="-14" type="curve" smooth="yes"/>
			<point x="526" y="-14"/>
			<point x="610" y="89"/>
			<point x="610" y="271" type="curve" smooth="yes"/>
			<point x="610" y="486" type="line"/>
			<point x="753" y="526"/>
			<point x="798" y="614"/>
			<point x="798" y="690" type="curve" smooth="yes"/>
			<point x="798" y="730"/>
			<point x="779" y="761"/>
			<point x="741" y="761" type="curve" smooth="yes"/>
			<point x="713" y="761"/>
			<point x="695" y="741"/>
			<point x="695" y="716" type="curve" smooth="yes"/>
			<point x="695" y="684"/>
			<point x="716" y="670"/>
			<point x="752" y="670" type="curve" smooth="yes"/>
			<point x="769" y="670" type="line"/>
			<point x="765" y="609"/>
			<point x="740" y="541"/>
			<point x="610" y="500" type="curve"/>
			<point x="610" y="730" type="line"/>
			<point x="512" y="730" type="line"/>
			<point x="512" y="718" type="line"/>
			<point x="561" y="714" type="line" smooth="yes"/>
			<point x="587" y="712"/>
			<point x="592" y="701"/>
			<point x="592" y="668" type="curve" smooth="yes"/>
			<point x="592" y="281" type="line" smooth="yes"/>
			<point x="592" y="115"/>
			<point x="528" y="12"/>
			<point x="391" y="12" type="curve" smooth="yes"/>
			<point x="241" y="12"/>
			<point x="182" y="100"/>
			<point x="182" y="273" type="curve" smooth="yes"/>
			<point x="182" y="668" type="line" smooth="yes"/>
			<point x="182" y="704"/>
			<point x="188" y="713"/>
			<point x="212" y="714" type="curve" smooth="yes"/>
			<point x="277" y="718" type="line"/>
			<point x="277" y="730" type="line"/>
			<point x="40" y="730" type="line"/>
			<point x="40" y="718" type="line"/>
			<point x="103" y="714" type="line" smooth="yes"/>
			<point x="129" y="712"/>
			<point x="135" y="702"/>
			<point x="135" y="668" type="curve" smooth="yes"/>
			<point x="135" y="250" type="line" smooth="yes"/>
			<point x="135" y="67"/>
			<point x="214" y="-14"/>
		</contour>
	</outline>
	<anchor name="bottom" x="383" y="-30"/>
	<anchor name="top" x="391" y="730"/>
</glyph>
<glyph name="Oogonek" format="2">
	<unicode hex="01EA"/>
	<advance width="690"/>
	<outline>
		<contour>
			<point x="396" y="-223" type="curve" smooth="yes"/>
			<point x="430" y="-223"/>
			<point x="455" y="-213"/>
			<point x="483" y="-171" type="curve"/>
			<point x="475" y="-165" type="line"/>
			<point x="454" y="-186"/>
			<point x="432" y="-192"/>
			<point x="413" y="-192" type="curve" smooth="yes"/>
			<point x="387" y="-192"/>
			<point x="373" y="-176"/>
			<point x="373" y="-139" type="curve" smooth="yes"/>
			<point x="373" y="-91"/>
			<point x="399" y="-49"/>
			<point x="465" y="9" type="curve"/>
			<point x="575" y="57"/>
			<point x="640" y="182"/>
			<point x="640" y="379" type="curve" smooth="yes"/>
			<point x="640" y="606"/>
			<point x="536" y="744"/>
			<point x="348" y="744" type="curve" smooth="yes"/>
			<point x="155" y="744"/>
			<point x="50" y="602"/>
			<point x="50" y="354" type="curve" smooth="yes"/>
			<point x="50" y="123"/>
			<point x="159" y="-14"/>
			<point x="347" y="-14" type="curve" smooth="yes"/>
			<point x="380" y="-14"/>
			<point x="412" y="-9"/>
			<point x="440" y="0" type="curve"/>
			<point x="364" y="-56"/>
			<point x="328" y="-102"/>
			<point x="328" y="-154" type="curve" smooth="yes"/>
			<point x="328" y="-195"/>
			<point x="354" y="-223"/>
		</contour>
		<contour>
			<point x="352" y="1" type="curve" smooth="yes"/>
			<point x="190" y="1"/>
			<point x="103" y="138"/>
			<point x="103" y="370" type="curve" smooth="yes"/>
			<point x="103" y="599"/>
			<point x="180" y="729"/>
			<point x="341" y="729" type="curve" smooth="yes"/>
			<point x="504" y="729"/>
			<point x="587" y="595"/>
			<point x="587" y="366" type="curve" smooth="yes"/>
			<point x="587" y="130"/>
			<point x="511" y="1"/>
		</contour>
	</outline>
	<anchor name="bottom" x="348" y="-30"/>
	<anchor name="top" x="346" y="730"/>
</glyph>
<glyph name="Aringacute" format="2">
	<unicode hex="01FA"/>
	<advance width="592"/>
	<outline>
		<contour>
			<point x="-10" y="0" type="line"/>
			<point x="161" y="0" type="line"/>
			<point x="161" y="12" type="line"/>
			<point x="104" y="17" type="line" smooth="yes"/>
			<point x="77" y="19"/>
			<point x="77" y="37"/>
			<point x="85" y="61" type="curve" smooth="yes"/>
			<point x="146" y="250" type="line"/>
			<point x="407" y="250" type="line"/>
			<point x="461" y="64" type="line" smooth="yes"/>
			<point x="469" y="36"/>
			<point x="470" y="20"/>
			<point x="443" y="17" type="curve" smooth="yes"/>
			<point x="394" y="12" type="line"/>
			<point x="394" y="0" type="line"/>
			<point x="602" y="0" type="line"/>
			<point x="602" y="12" type="line"/>
			<point x="563" y="17" type="line" smooth="yes"/>
			<point x="535" y="21"/>
			<point x="524" y="32"/>
			<point x="513" y="67" type="curve" smooth="yes"/>
			<point x="306" y="729" type="line"/>
			<point x="363" y="734"/>
			<point x="394" y="772"/>
			<point x="394" y="826" type="curve" smooth="yes"/>
			<point x="394" y="878"/>
			<point x="357" y="917"/>
			<point x="296" y="917" type="curve" smooth="yes"/>
			<point x="228" y="917"/>
			<point x="196" y="871"/>
			<point x="196" y="824" type="curve" smooth="yes"/>
			<point x="196" y="773"/>
			<point x="221" y="736"/>
			<point x="279" y="730" type="curve"/>
			<point x="67" y="61" type="line" smooth="yes"/>
			<point x="56" y="28"/>
			<point x="52" y="20"/>
			<point x="29" y="17" type="curve" smooth="yes"/>
			<point x="-10" y="12" type="line"/>
		</contour>
		<contour>
			<point x="151" y="266" type="line"/>
			<point x="277" y="669" type="line"/>
			<point x="278" y="669" type="line"/>
			<point x="401" y="266" type="line"/>
		</contour>
		<contour>
			<point x="297" y="741" type="curve" smooth="yes"/>
			<point x="253" y="741"/>
			<point x="237" y="773"/>
			<point x="237" y="823" type="curve" smooth="yes"/>
			<point x="237" y="873"/>
			<point x="251" y="905"/>
			<point x="293" y="905" type="curve" smooth="yes"/>
			<point x="334" y="905"/>
			<point x="353" y="874"/>
			<point x="353" y="823" type="curve" smooth="yes"/>
			<point x="353" y="770"/>
			<point x="340" y="741"/>
		</contour>
		<contour>
			<point x="216" y="947" type="line"/>
			<point x="362" y="1026" type="line" smooth="yes"/>
			<point x="385" y="1039"/>
			<point x="394" y="1051"/>
			<point x="394" y="1066" type="curve" smooth="yes"/>
			<point x="394" y="1081"/>
			<point x="384" y="1094"/>
			<point x="369" y="1094" type="curve" smooth="yes"/>
			<point x="359" y="1094"/>
			<point x="350" y="1090"/>
			<point x="332" y="1072" type="curve" smooth="yes"/>
			<point x="210" y="955" type="line"/>
		</contour>
	</outline>
	<anchor name="bottom" x="272" y="-30"/>
	<anchor name="top" x="293" y="730"/>
</glyph>
<glyph name="alpha-latin" format="2">
	<unicode hex="0251"/>
	<advance width="559"/>
	<outline>
		<contour>
			<point x="246" y="-14" type="curve" smooth="yes"/>
			<point x="321" y="-14"/>
			<point x="375" y="22"/>
			<point x="403" y="80" type="curve"/>
			<point x="404" y="80" type="line"/>
			<point x="406" y="19"/>
			<point x="424" y="-14"/>
			<point x="482" y="-14" type="curve" smooth="yes"/>
			<point x="510" y="-14"/>
			<point x="537" y="3"/>
			<point x="556" y="30" type="curve"/>
			<point x="550" y="37" type="line"/>
			<point x="532" y="23"/>
			<point x="515" y="17"/>
			<point x="496" y="17" type="curve" smooth="yes"/>
			<point x="465" y="17"/>
			<point x="453" y="38"/>
			<point x="453" y="77" type="curve" smooth="yes"/>
			<point x="453" y="522" type="line"/>
			<point x="449" y="523" type="line"/>
			<point x="412" y="486" type="line"/>
			<point x="365" y="512"/>
			<point x="321" y="523"/>
			<point x="273" y="523" type="curve" smooth="yes"/>
			<point x="136" y="523"/>
			<point x="47" y="419"/>
			<point x="47" y="248" type="curve" smooth="yes"/>
			<point x="47" y="74"/>
			<point x="117" y="-14"/>
		</contour>
		<contour>
			<point x="258" y="12" type="curve" smooth="yes"/>
			<point x="156" y="12"/>
			<point x="98" y="94"/>
			<point x="98" y="256" type="curve" smooth="yes"/>
			<point x="98" y="440"/>
			<point x="166" y="507"/>
			<point x="266" y="507" type="curve" smooth="yes"/>
			<point x="316" y="507"/>
			<point x="361" y="493"/>
			<point x="404" y="465" type="curve"/>
			<point x="404" y="160" type="line" smooth="yes"/>
			<point x="404" y="64"/>
			<point x="346" y="12"/>
		</contour>
	</outline>
</glyph>
<glyph name="ringhalfright" format="2">
	<unicode hex="02BE"/>
	<advance width="500"/>
	<outline>
		<contour>
			<point x="216" y="584" type="line"/>
			<point x="221" y="584" type="line" smooth="yes"/>
			<point x="287" y="584"/>
			<point x="321" y="626"/>
			<point x="321" y="684" type="curve" smooth="yes"/>
			<point x="321" y="748"/>
			<point x="285" y="783"/>
			<point x="222" y="783" type="curve" smooth="yes"/>
			<point x="216" y="783" type="line"/>
			<point x="216" y="773" type="line"/>
			<point x="220" y="773" type="line" smooth="yes"/>
			<point x="266" y="773"/>
			<point x="284" y="743"/>
			<point x="284" y="684" type="curve" smooth="yes"/>
			<point x="284" y="629"/>
			<point x="268" y="596"/>
			<point x="219" y="596" type="curve" smooth="yes"/>
			<point x="216" y="596" type="line"/>
		</contour>
	</outline>
	<anchor name="_top" x="250" y="550"/>
</glyph>
<glyph name="circumflex" format="2">
	<unicode hex="02C6"/>
	<advance width="500"/>
	<outline>
		<contour>
			<point x="127" y="586" type="line"/>
			<point x="249" y="695" type="line"/>
			<point x="374" y="586" type="line"/>
			<point x="381" y="593" type="line"/>
			<point x="281" y="733" type="line" smooth="yes"/>
			<point x="268" y="751"/>
			<point x="259" y="753"/>
			<point x="250" y="753" type="curve" smooth="yes"/>
			<point x="240" y="753"/>
			<point x="229" y="747"/>
			<point x="221" y="736" type="curve" smooth="yes"/>
			<point x="120" y="593" type="line"/>
		</contour>
	</outline>
	<anchor name="_top" x="250" y="550"/>
</glyph>
<glyph name="caron" format="2">
	<unicode hex="02C7"/>
	<advance width="500"/>
	<outline>
		<contour>
			<point x="249" y="591" type="curve" smooth="yes"/>
			<point x="259" y="591"/>
			<point x="270" y="597"/>
			<point x="278" y="608" type="curve" smooth="yes"/>
			<point x="379" y="751" type="line"/>
			<point x="372" y="758" type="line"/>
			<point x="250" y="649" type="line"/>
			<point x="125" y="758" type="line"/>
			<point x="118" y="751" type="line"/>
			<point x="218" y="611" type="line" smooth="yes"/>
			<point x="231" y="593"/>
			<point x="240" y="591"/>
		</contour>
	</outline>
	<anchor name="_top" x="249" y="550"/>
</glyph>
<glyph name="verticallinelowmod" format="2">
	<unicode hex="02CC"/>
	<advance width="500"/>
	<outline>
		<contour>
			<point x="233" y="-216" type="line"/>
			<point x="267" y="-216" type="line"/>
			<point x="267" y="-55" type="line"/>
			<point x="233" y="-55" type="line"/>
		</contour>
	</outline>
	<anchor name="_bottom" x="250" y="-30"/>
</glyph>
<glyph name="breve" format="2">
	<unicode hex="02D8"/>
	<advance width="500"/>
	<outline>
		<contour>
			<point x="245" y="597" type="curve" smooth="yes"/>
			<point x="332" y="597"/>
			<point x="361" y="651"/>
			<point x="371" y="750" type="curve"/>
			<point x="361" y="752" type="line"/>
			<point x="338" y="684"/>
			<point x="315" y="647"/>
			<point x="247" y="647" type="curve" smooth="yes"/>
			<point x="180" y="647"/>
			<point x="156" y="679"/>
			<point x="131" y="752" type="curve"/>
			<point x="121" y="750" type="line"/>
			<point x="132" y="650"/>
			<point x="159" y="597"/>
		</contour>
	</outline>
	<anchor name="_top" x="245" y="550"/>
</glyph>
<glyph name="tilde" format="2">
	<unicode hex="02DC"/>
	<advance width="500"/>
	<outline>
		<contour>
			<point x="322" y="628" type="curve" smooth="yes"/>
			<point x="350" y="628"/>
			<point x="374" y="640"/>
			<point x="384" y="710" type="curve"/>
			<point x="374" y="713" type="line"/>
			<point x="355" y="672"/>
			<point x="345" y="667"/>
			<point x="333" y="667" type="curve" smooth="yes"/>
			<point x="320" y="667"/>
			<point x="309" y="671"/>
			<point x="259" y="692" type="curve" smooth="yes"/>
			<point x="218" y="709"/>
			<point x="199" y="713"/>
			<point x="179" y="713" type="curve" smooth="yes"/>
			<point x="149" y="713"/>
			<point x="126" y="698"/>
			<point x="117" y="631" type="curve"/>
			<point x="127" y="628" type="line"/>
			<point x="144" y="665"/>
			<point x="153" y="674"/>
			<point x="168" y="674" type="curve" smooth="yes"/>
			<point x="180" y="674"/>
			<point x="191" y="670"/>
			<point x="242" y="650" type="curve" smooth="yes"/>
			<point x="278" y="636"/>
			<point x="300" y="628"/>
		</contour>
	</outline>
	<anchor name="_top" x="250" y="550"/>
</glyph>
<glyph name="hungarumlaut" format="2">
	<unicode hex="02DD"/>
	<advance width="500"/>
	<outline>
		<contour>
			<point x="305" y="586" type="line"/>
			<point x="418" y="682" type="line" smooth="yes"/>
			<point x="439" y="700"/>
			<point x="448" y="714"/>
			<point x="448" y="727" type="curve" smooth="yes"/>
			<point x="448" y="741"/>
			<point x="440" y="752"/>
			<point x="426" y="752" type="curve" smooth="yes"/>
			<point x="414" y="752"/>
			<point x="405" y="745"/>
			<point x="394" y="729" type="curve" smooth="yes"/>
			<point x="298" y="593" type="line"/>
		</contour>
		<contour>
			<point x="173" y="586" type="line"/>
			<point x="283" y="684" type="line" smooth="yes"/>
			<point x="304" y="702"/>
			<point x="313" y="716"/>
			<point x="313" y="729" type="curve" smooth="yes"/>
			<point x="313" y="743"/>
			<point x="305" y="754"/>
			<point x="291" y="754" type="curve" smooth="yes"/>
			<point x="279" y="754"/>
			<point x="270" y="747"/>
			<point x="259" y="731" type="curve" smooth="yes"/>
			<point x="166" y="593" type="line"/>
		</contour>
	</outline>
	<anchor name="_top" x="250" y="550"/>
</glyph>
<glyph name="macroncomb" format="2">
	<unicode hex="0304"/>
	<outline>
		<contour>
			<point x="-119" y="650" type="line"/>
			<point x="119" y="650" type="line"/>
			<point x="119" y="690" type="line"/>
			<point x="-119" y="690" type="line"/>
		</contour>
	</outline>
	<anchor name="_top" x="0" y="550"/>
</glyph>
<glyph name="dotaccentcomb" format="2">
	<unicode hex="0307"/>
	<outline>
		<contour>
			<point x="0" y="637" type="curve" smooth="yes"/>
			<point x="28" y="637"/>
			<point x="41" y="657"/>
			<point x="41" y="684" type="curve" smooth="yes"/>
			<point x="41" y="713"/>
			<point x="27" y="727"/>
			<point x="1" y="727" type="curve" smooth="yes"/>
			<point x="-25" y="727"/>
			<point x="-40" y="711"/>
			<point x="-40" y="681" type="curve" smooth="yes"/>
			<point x="-40" y="655"/>
			<point x="-26" y="637"/>
		</contour>
	</outline>
	<anchor name="_top" x="0" y="550"/>
</glyph>
<glyph name="dieresiscomb" format="2">
	<unicode hex="0308"/>
	<outline>
		<contour>
			<point x="89" y="637" type="curve" smooth="yes"/>
			<point x="117" y="637"/>
			<point x="131" y="659"/>
			<point x="131" y="684" type="curve" smooth="yes"/>
			<point x="131" y="710"/>
			<point x="116" y="726"/>
			<point x="90" y="726" type="curve" smooth="yes"/>
			<point x="61" y="726"/>
			<point x="48" y="707"/>
			<point x="48" y="680" type="curve" smooth="yes"/>
			<point x="48" y="655"/>
			<point x="61" y="637"/>
		</contour>
		<contour>
			<point x="-85" y="637" type="curve" smooth="yes"/>
			<point x="-56" y="637"/>
			<point x="-43" y="659"/>
			<point x="-43" y="684" type="curve" smooth="yes"/>
			<point x="-43" y="710"/>
			<point x="-57" y="726"/>
			<point x="-84" y="726" type="curve" smooth="yes"/>
			<point x="-112" y="726"/>
			<point x="-126" y="707"/>
			<point x="-126" y="680" type="curve" smooth="yes"/>
			<point x="-126" y="655"/>
			<point x="-113" y="637"/>
		</contour>
	</outline>
	<anchor name="_top" x="3" y="550"/>
</glyph>
<glyph name="hookabovecomb" format="2">
	<unicode hex="0309"/>
	<outline>
		<contour>
			<point x="-21" y="579" type="line"/>
			<point x="20" y="579" type="line"/>
			<point x="20" y="607" type="line" smooth="yes"/>
			<point x="20" y="643"/>
			<point x="104" y="656"/>
			<point x="104" y="724" type="curve" smooth="yes"/>
			<point x="104" y="779"/>
			<point x="63" y="804"/>
			<point x="5" y="804" type="curve" smooth="yes"/>
			<point x="-53" y="804"/>
			<point x="-99" y="773"/>
			<point x="-99" y="724" type="curve" smooth="yes"/>
			<point x="-99" y="701"/>
			<point x="-84" y="694"/>
			<point x="-69" y="694" type="curve" smooth="yes"/>
			<point x="-52" y="694"/>
			<point x="-36" y="703"/>
			<point x="-36" y="718" type="curve" smooth="yes"/>
			<point x="-36" y="731"/>
			<point x="-42" y="743"/>
			<point x="-61" y="772" type="curve"/>
			<point x="-49" y="783"/>
			<point x="-28" y="792"/>
			<point x="0" y="792" type="curve" smooth="yes"/>
			<point x="35" y="792"/>
			<point x="61" y="775"/>
			<point x="61" y="737" type="curve" smooth="yes"/>
			<point x="61" y="671"/>
			<point x="-21" y="673"/>
			<point x="-21" y="615" type="curve" smooth="yes"/>
		</contour>
	</outline>
	<anchor name="_top" x="0" y="550"/>
</glyph>
<glyph name="ringcomb" format="2">
	<unicode hex="030A"/>
	<outline>
		<contour>
			<point x="0" y="592" type="curve" smooth="yes"/>
			<point x="64" y="592"/>
			<point x="99" y="632"/>
			<point x="99" y="689" type="curve" smooth="yes"/>
			<point x="99" y="741"/>
			<point x="62" y="780"/>
			<point x="1" y="780" type="curve" smooth="yes"/>
			<point x="-67" y="780"/>
			<point x="-99" y="734"/>
			<point x="-99" y="687" type="curve" smooth="yes"/>
			<point x="-99" y="632"/>
			<point x="-69" y="592"/>
		</contour>
		<contour>
			<point x="2" y="604" type="curve" smooth="yes"/>
			<point x="-42" y="604"/>
			<point x="-58" y="636"/>
			<point x="-58" y="686" type="curve" smooth="yes"/>
			<point x="-58" y="736"/>
			<point x="-44" y="768"/>
			<point x="-2" y="768" type="curve" smooth="yes"/>
			<point x="39" y="768"/>
			<point x="58" y="737"/>
			<point x="58" y="686" type="curve" smooth="yes"/>
			<point x="58" y="633"/>
			<point x="45" y="604"/>
		</contour>
	</outline>
	<anchor name="_top" x="0" y="550"/>
</glyph>
<glyph name="dblgravecomb" format="2">
	<unicode hex="030F"/>
	<outline>
		<contour>
			<point x="-53" y="586" type="line"/>
			<point x="-46" y="593" type="line"/>
			<point x="-142" y="729" type="line" smooth="yes"/>
			<point x="-153" y="745"/>
			<point x="-162" y="752"/>
			<point x="-174" y="752" type="curve" smooth="yes"/>
			<point x="-188" y="752"/>
			<point x="-196" y="741"/>
			<point x="-196" y="727" type="curve" smooth="yes"/>
			<point x="-196" y="714"/>
			<point x="-187" y="700"/>
			<point x="-166" y="682" type="curve" smooth="yes"/>
		</contour>
		<contour>
			<point x="79" y="586" type="line"/>
			<point x="86" y="593" type="line"/>
			<point x="-7" y="731" type="line" smooth="yes"/>
			<point x="-18" y="747"/>
			<point x="-27" y="754"/>
			<point x="-39" y="754" type="curve" smooth="yes"/>
			<point x="-53" y="754"/>
			<point x="-61" y="743"/>
			<point x="-61" y="729" type="curve" smooth="yes"/>
			<point x="-61" y="716"/>
			<point x="-52" y="702"/>
			<point x="-31" y="684" type="curve" smooth="yes"/>
		</contour>
	</outline>
	<anchor name="_top" x="0.994" y="550"/>
</glyph>
<glyph name="breveinvertedcomb" format="2">
	<unicode hex="0311"/>
	<outline>
		<contour>
			<point x="1" y="740" type="curve" smooth="yes"/>
			<point x="-86" y="740"/>
			<point x="-115" y="686"/>
			<point x="-125" y="587" type="curve"/>
			<point x="-115" y="585" type="line"/>
			<point x="-92" y="653"/>
			<point x="-69" y="690"/>
			<point x="-1" y="690" type="curve" smooth="yes"/>
			<point x="66" y="690"/>
			<point x="90" y="658"/>
			<point x="115" y="585" type="curve"/>
			<point x="125" y="587" type="line"/>
			<point x="114" y="687"/>
			<point x="87" y="740"/>
		</contour>
	</outline>
	<anchor name="_top" x="0" y="550"/>
</glyph>
<glyph name="commaturnedabovecomb" format="2">
	<unicode hex="0312"/>
	<outline>
		<contour>
			<point x="1" y="586" type="curve" smooth="yes"/>
			<point x="26" y="586"/>
			<point x="38" y="606"/>
			<point x="38" y="623" type="curve" smooth="yes"/>
			<point x="38" y="649"/>
			<point x="26" y="665"/>
			<point x="-10" y="665" type="curve" smooth="yes"/>
			<point x="-18" y="665" type="line"/>
			<point x="-19" y="696"/>
			<point x="-3" y="729"/>
			<point x="37" y="767" type="curve"/>
			<point x="29" y="776" type="line"/>
			<point x="-29" y="728"/>
			<point x="-44" y="680"/>
			<point x="-44" y="641" type="curve" smooth="yes"/>
			<point x="-44" y="612"/>
			<point x="-31" y="586"/>
		</contour>
	</outline>
	<anchor name="_top" x="0" y="550"/>
</glyph>
<glyph name="horncomb" format="2">
	<unicode hex="031B"/>
	<outline>
		<contour>
			<point x="-98" y="390" type="line"/>
			<point x="12" y="430"/>
			<point x="59" y="507"/>
			<point x="59" y="583" type="curve" smooth="yes"/>
			<point x="59" y="623"/>
			<point x="39" y="654"/>
			<point x="1" y="654" type="curve" smooth="yes"/>
			<point x="-26" y="654"/>
			<point x="-45" y="635"/>
			<point x="-45" y="609" type="curve" smooth="yes"/>
			<point x="-45" y="576"/>
			<point x="-24" y="562"/>
			<point x="11" y="562" type="curve" smooth="yes"/>
			<point x="28" y="562" type="line"/>
			<point x="24" y="500"/>
			<point x="-1" y="448"/>
			<point x="-98" y="406" type="curve"/>
		</contour>
	</outline>
</glyph>
<glyph name="dotbelowcomb" format="2">
	<unicode hex="0323"/>
	<outline>
		<contour>
			<point x="-1" y="-169" type="curve" smooth="yes"/>
			<point x="27" y="-169"/>
			<point x="40" y="-149"/>
			<point x="40" y="-122" type="curve" smooth="yes"/>
			<point x="40" y="-93"/>
			<point x="26" y="-79"/>
			<point x="0" y="-79" type="curve" smooth="yes"/>
			<point x="-26" y="-79"/>
			<point x="-41" y="-95"/>
			<point x="-41" y="-125" type="curve" smooth="yes"/>
			<point x="-41" y="-151"/>
			<point x="-27" y="-169"/>
		</contour>
	</outline>
	<anchor name="_bottom" x="0" y="-30"/>
</glyph>
<glyph name="dieresisbelowcomb" format="2">
	<unicode hex="0324"/>
	<outline>
		<contour>
			<point x="87" y="-167" type="curve" smooth="yes"/>
			<point x="115" y="-167"/>
			<point x="129" y="-145"/>
			<point x="129" y="-120" type="curve" smooth="yes"/>
			<point x="129" y="-94"/>
			<point x="114" y="-78"/>
			<point x="88" y="-78" type="curve" smooth="yes"/>
			<point x="59" y="-78"/>
			<point x="46" y="-97"/>
			<point x="46" y="-124" type="curve" smooth="yes"/>
			<point x="46" y="-149"/>
			<point x="59" y="-167"/>
		</contour>
		<contour>
			<point x="-87" y="-167" type="curve" smooth="yes"/>
			<point x="-58" y="-167"/>
			<point x="-45" y="-145"/>
			<point x="-45" y="-120" type="curve" smooth="yes"/>
			<point x="-45" y="-94"/>
			<point x="-59" y="-78"/>
			<point x="-86" y="-78" type="curve" smooth="yes"/>
			<point x="-114" y="-78"/>
			<point x="-128" y="-97"/>
			<point x="-128" y="-124" type="curve" smooth="yes"/>
			<point x="-128" y="-149"/>
			<point x="-115" y="-167"/>
		</contour>
	</outline>
	<anchor name="_bottom" x="0" y="-30"/>
</glyph>
<glyph name="cedillacomb" format="2">
	<unicode hex="0327"/>
	<outline>
		<contour>
			<point x="-2" y="-224" type="curve" smooth="yes"/>
			<point x="62" y="-224"/>
			<point x="91" y="-184"/>
			<point x="91" y="-138" type="curve" smooth="yes"/>
			<point x="91" y="-86"/>
			<point x="43" y="-52"/>
			<point x="-23" y="-65" type="curve"/>
			<point x="2" y="0" type="line"/>
			<point x="-10" y="0" type="line"/>
			<point x="-43" y="-85" type="line"/>
			<point x="-41" y="-89" type="line"/>
			<point x="-30" y="-86"/>
			<point x="-17" y="-85"/>
			<point x="-5" y="-85" type="curve" smooth="yes"/>
			<point x="24" y="-85"/>
			<point x="48" y="-102"/>
			<point x="48" y="-142" type="curve" smooth="yes"/>
			<point x="48" y="-185"/>
			<point x="24" y="-203"/>
			<point x="-16" y="-203" type="curve" smooth="yes"/>
			<point x="-49" y="-203"/>
			<point x="-78" y="-187"/>
			<point x="-94" y="-172" type="curve"/>
			<point x="-101" y="-179" type="line"/>
			<point x="-82" y="-200"/>
			<point x="-52" y="-224"/>
		</contour>
	</outline>
	<anchor name="_bottom" x="2" y="-30"/>
</glyph>
<glyph name="ypogegrammeni" format="2">
	<unicode hex="037A"/>
	<advance width="212"/>
	<outline>
		<contour>
			<point x="138" y="-226" type="curve" smooth="yes"/>
			<point x="170" y="-226"/>
			<point x="201" y="-206"/>
			<point x="217" y="-175" type="curve"/>
			<point x="213" y="-171" type="line"/>
			<point x="195" y="-187"/>
			<point x="173" y="-196"/>
			<point x="153" y="-196" type="curve" smooth="yes"/>
			<point x="121" y="-196"/>
			<point x="106" y="-176"/>
			<point x="106" y="-133" type="curve" smooth="yes"/>
			<point x="106" y="-110"/>
			<point x="109" y="-63"/>
			<point x="111" y="-53" type="curve"/>
			<point x="106" y="-46" type="line"/>
			<point x="63" y="-51" type="line"/>
			<point x="63" y="-141" type="line" smooth="yes"/>
			<point x="63" y="-198"/>
			<point x="88" y="-226"/>
		</contour>
	</outline>
	<anchor name="_bottom" x="89" y="-30"/>
</glyph>
<glyph name="tonos" format="2">
	<unicode hex="0384"/>
	<advance width="476"/>
	<outline>
		<contour>
			<point x="201" y="571" type="line"/>
			<point x="321" y="736" type="line"/>
			<point x="321" y="741" type="line"/>
			<point x="306" y="761"/>
			<point x="296" y="768"/>
			<point x="284" y="768" type="curve" smooth="yes"/>
			<point x="264" y="768"/>
			<point x="262" y="757"/>
			<point x="252" y="732" type="curve" smooth="yes"/>
			<point x="192" y="576" type="line"/>
		</contour>
	</outline>
	<anchor name="_top" x="200" y="550"/>
</glyph>
<glyph name="dieresistonos" format="2">
	<unicode hex="0385"/>
	<advance width="575"/>
	<outline>
		<contour>
			<point x="248" y="583" type="line"/>
			<point x="350" y="755" type="line"/>
			<point x="350" y="759" type="line"/>
			<point x="334" y="774"/>
			<point x="324" y="779"/>
			<point x="312" y="779" type="curve" smooth="yes"/>
			<point x="297" y="779"/>
			<point x="289" y="771"/>
			<point x="283" y="749" type="curve" smooth="yes"/>
			<point x="240" y="586" type="line"/>
		</contour>
		<contour>
			<point x="165" y="629" type="curve" smooth="yes"/>
			<point x="191" y="629"/>
			<point x="207" y="647"/>
			<point x="207" y="676" type="curve" smooth="yes"/>
			<point x="207" y="703"/>
			<point x="192" y="718"/>
			<point x="166" y="718" type="curve" smooth="yes"/>
			<point x="140" y="718"/>
			<point x="124" y="701"/>
			<point x="124" y="672" type="curve" smooth="yes"/>
			<point x="124" y="645"/>
			<point x="139" y="629"/>
		</contour>
		<contour>
			<point x="414" y="629" type="curve" smooth="yes"/>
			<point x="439" y="629"/>
			<point x="456" y="648"/>
			<point x="456" y="676" type="curve" smooth="yes"/>
			<point x="456" y="702"/>
			<point x="441" y="718"/>
			<point x="415" y="718" type="curve" smooth="yes"/>
			<point x="388" y="718"/>
			<point x="373" y="701"/>
			<point x="373" y="672" type="curve" smooth="yes"/>
			<point x="373" y="645"/>
			<point x="388" y="629"/>
		</contour>
	</outline>
	<anchor name="_top" x="246" y="550"/>
</glyph>
<glyph name="Delta" format="2">
	<unicode hex="0394"/>
	<advance width="501"/>
	<outline>
		<contour>
			<point x="3" y="0" type="line"/>
			<point x="498" y="0" type="line"/>
			<point x="501" y="10" type="line"/>
			<point x="266" y="730" type="line"/>
			<point x="239" y="730" type="line"/>
			<point x="0" y="10" type="line"/>
		</contour>
		<contour>
			<point x="26" y="35" type="line"/>
			<point x="237" y="669" type="line"/>
			<point x="238" y="669" type="line"/>
			<point x="439" y="35" type="line"/>
		</contour>
	</outline>
</glyph>
<glyph name="Lambda" format="2">
	<unicode hex="039B"/>
	<advance width="572"/>
	<outline>
		<contour>
			<point x="-10" y="0" type="line"/>
			<point x="161" y="0" type="line"/>
			<point x="161" y="12" type="line"/>
			<point x="104" y="17" type="line" smooth="yes"/>
			<point x="81" y="19"/>
			<point x="75" y="32"/>
			<point x="85" y="61" type="curve"/>
			<point x="267" y="669" type="line"/>
			<point x="268" y="669" type="line"/>
			<point x="441" y="64" type="line"/>
			<point x="451" y="32"/>
			<point x="446" y="20"/>
			<point x="423" y="17" type="curve" smooth="yes"/>
			<point x="374" y="12" type="line"/>
			<point x="374" y="0" type="line"/>
			<point x="582" y="0" type="line"/>
			<point x="582" y="12" type="line"/>
			<point x="543" y="17" type="line" smooth="yes"/>
			<point x="515" y="21"/>
			<point x="503" y="32"/>
			<point x="493" y="67" type="curve" smooth="yes"/>
			<point x="296" y="730" type="line"/>
			<point x="269" y="730" type="line"/>
			<point x="67" y="61" type="line" smooth="yes"/>
			<point x="56" y="26"/>
			<point x="51" y="20"/>
			<point x="29" y="17" type="curve" smooth="yes"/>
			<point x="-10" y="12" type="line"/>
		</contour>
	</outline>
</glyph>
<glyph name="Xi" format="2">
	<unicode hex="039E"/>
	<advance width="603"/>
	<outline>
		<contour>
			<point x="59" y="0" type="line"/>
			<point x="544" y="0" type="line"/>
			<point x="560" y="173" type="line"/>
			<point x="548" y="173" type="line"/>
			<point x="516" y="49"/>
			<point x="500" y="36"/>
			<point x="385" y="36" type="curve" smooth="yes"/>
			<point x="218" y="36" type="line" smooth="yes"/>
			<point x="103" y="36"/>
			<point x="87" y="49"/>
			<point x="55" y="173" type="curve"/>
			<point x="43" y="173" type="line"/>
		</contour>
		<contour>
			<point x="127" y="250" type="line"/>
			<point x="139" y="250" type="line"/>
			<point x="152" y="321"/>
			<point x="166" y="332"/>
			<point x="237" y="332" type="curve" smooth="yes"/>
			<point x="362" y="332" type="line" smooth="yes"/>
			<point x="433" y="332"/>
			<point x="447" y="321"/>
			<point x="460" y="252" type="curve"/>
			<point x="472" y="251" type="line"/>
			<point x="472" y="450" type="line"/>
			<point x="460" y="450" type="line"/>
			<point x="447" y="379"/>
			<point x="433" y="368"/>
			<point x="362" y="368" type="curve" smooth="yes"/>
			<point x="237" y="368" type="line" smooth="yes"/>
			<point x="166" y="368"/>
			<point x="152" y="379"/>
			<point x="139" y="448" type="curve"/>
			<point x="127" y="449" type="line"/>
		</contour>
		<contour>
			<point x="73" y="574" type="line"/>
			<point x="112" y="679"/>
			<point x="124" y="694"/>
			<point x="247" y="694" type="curve" smooth="yes"/>
			<point x="356" y="694" type="line" smooth="yes"/>
			<point x="479" y="694"/>
			<point x="491" y="686"/>
			<point x="530" y="581" type="curve"/>
			<point x="542" y="580" type="line"/>
			<point x="514" y="730" type="line"/>
			<point x="89" y="730" type="line"/>
			<point x="61" y="580" type="line"/>
		</contour>
	</outline>
</glyph>
<glyph name="Pi" format="2">
	<unicode hex="03A0"/>
	<advance width="763"/>
	<outline>
		<contour>
			<point x="55" y="0" type="line"/>
			<point x="293" y="0" type="line"/>
			<point x="293" y="12" type="line"/>
			<point x="231" y="17" type="line" smooth="yes"/>
			<point x="207" y="19"/>
			<point x="200" y="29"/>
			<point x="200" y="62" type="curve" smooth="yes"/>
			<point x="199" y="714" type="line"/>
			<point x="564" y="714" type="line"/>
			<point x="564" y="63" type="line" smooth="yes"/>
			<point x="564" y="28"/>
			<point x="558" y="19"/>
			<point x="533" y="17" type="curve" smooth="yes"/>
			<point x="469" y="12" type="line"/>
			<point x="469" y="0" type="line"/>
			<point x="708" y="0" type="line"/>
			<point x="708" y="12" type="line"/>
			<point x="646" y="17" type="line" smooth="yes"/>
			<point x="620" y="19"/>
			<point x="613" y="29"/>
			<point x="613" y="62" type="curve" smooth="yes"/>
			<point x="613" y="665" type="line" smooth="yes"/>
			<point x="613" y="702"/>
			<point x="619" y="712"/>
			<point x="644" y="714" type="curve" smooth="yes"/>
			<point x="708" y="718" type="line"/>
			<point x="708" y="730" type="line"/>
			<point x="55" y="730" type="line"/>
			<point x="55" y="718" type="line"/>
			<point x="119" y="714" type="line" smooth="yes"/>
			<point x="144" y="712"/>
			<point x="151" y="702"/>
			<point x="151" y="666" type="curve" smooth="yes"/>
			<point x="151" y="63" type="line" smooth="yes"/>
			<point x="151" y="28"/>
			<point x="145" y="19"/>
			<point x="120" y="17" type="curve" smooth="yes"/>
			<point x="55" y="12" type="line"/>
		</contour>
	</outline>
</glyph>
<glyph name="Phi" format="2">
	<unicode hex="03A6"/>
	<advance width="791"/>
	<outline>
		<contour>
			<point x="277" y="-20" type="line"/>
			<point x="516" y="-20" type="line"/>
			<point x="516" y="-8" type="line"/>
			<point x="455" y="-3" type="line" smooth="yes"/>
			<point x="428" y="-1"/>
			<point x="421" y="8"/>
			<point x="421" y="43" type="curve" smooth="yes"/>
			<point x="421" y="68" type="line"/>
			<point x="619" y="68"/>
			<point x="741" y="187"/>
			<point x="741" y="381" type="curve" smooth="yes"/>
			<point x="741" y="558"/>
			<point x="624" y="662"/>
			<point x="421" y="666" type="curve"/>
			<point x="421" y="684" type="line" smooth="yes"/>
			<point x="421" y="723"/>
			<point x="427" y="732"/>
			<point x="451" y="734" type="curve" smooth="yes"/>
			<point x="516" y="738" type="line"/>
			<point x="516" y="750" type="line"/>
			<point x="277" y="750" type="line"/>
			<point x="277" y="738" type="line"/>
			<point x="338" y="734" type="line" smooth="yes"/>
			<point x="365" y="732"/>
			<point x="372" y="722"/>
			<point x="372" y="688" type="curve" smooth="yes"/>
			<point x="372" y="665" type="line"/>
			<point x="170" y="665"/>
			<point x="50" y="553"/>
			<point x="50" y="365" type="curve" smooth="yes"/>
			<point x="50" y="177"/>
			<point x="166" y="69"/>
			<point x="372" y="67" type="curve"/>
			<point x="372" y="47" type="line" smooth="yes"/>
			<point x="372" y="6"/>
			<point x="366" y="-1"/>
			<point x="333" y="-4" type="curve" smooth="yes"/>
			<point x="277" y="-8" type="line"/>
		</contour>
		<contour>
			<point x="372" y="80" type="line"/>
			<point x="204" y="85"/>
			<point x="104" y="195"/>
			<point x="104" y="374" type="curve" smooth="yes"/>
			<point x="104" y="552"/>
			<point x="201" y="654"/>
			<point x="372" y="654" type="curve"/>
		</contour>
		<contour>
			<point x="421" y="79" type="curve"/>
			<point x="421" y="653" type="line"/>
			<point x="588" y="649"/>
			<point x="687" y="541"/>
			<point x="687" y="363" type="curve" smooth="yes"/>
			<point x="687" y="181"/>
			<point x="591" y="79"/>
		</contour>
	</outline>
</glyph>
<glyph name="Omega" format="2">
	<unicode hex="03A9"/>
	<advance width="719"/>
	<outline>
		<contour>
			<point x="56" y="0" type="line"/>
			<point x="290" y="0" type="line"/>
			<point x="290" y="121" type="line"/>
			<point x="171" y="160"/>
			<point x="113" y="259"/>
			<point x="113" y="427" type="curve" smooth="yes"/>
			<point x="113" y="612"/>
			<point x="209" y="729"/>
			<point x="361" y="729" type="curve" smooth="yes"/>
			<point x="511" y="729"/>
			<point x="606" y="612"/>
			<point x="606" y="428" type="curve" smooth="yes"/>
			<point x="606" y="248"/>
			<point x="553" y="155"/>
			<point x="428" y="117" type="curve"/>
			<point x="428" y="0" type="line"/>
			<point x="663" y="0" type="line"/>
			<point x="689" y="174" type="line"/>
			<point x="674" y="174" type="line"/>
			<point x="637" y="37"/>
			<point x="637" y="35"/>
			<point x="558" y="35" type="curve" smooth="yes"/>
			<point x="453" y="35" type="line"/>
			<point x="453" y="101" type="line"/>
			<point x="582" y="150"/>
			<point x="660" y="274"/>
			<point x="660" y="431" type="curve" smooth="yes"/>
			<point x="660" y="623"/>
			<point x="547" y="744"/>
			<point x="367" y="744" type="curve" smooth="yes"/>
			<point x="185" y="744"/>
			<point x="61" y="613"/>
			<point x="61" y="420" type="curve" smooth="yes"/>
			<point x="61" y="269"/>
			<point x="141" y="144"/>
			<point x="265" y="102" type="curve"/>
			<point x="265" y="35" type="line"/>
			<point x="167" y="35" type="line" smooth="yes"/>
			<point x="86" y="35"/>
			<point x="78" y="44"/>
			<point x="45" y="174" type="curve"/>
			<point x="30" y="174" type="line"/>
		</contour>
	</outline>
	<anchor name="bottom" x="361" y="-45"/>
	<anchor name="side" x="782" y="217"/>
	<anchor name="topleft" x="41" y="730"/>
</glyph>
<glyph name="alpha" format="2">
	<unicode hex="03B1"/>
	<advance width="578"/>
	<outline>
		<contour>
			<point x="246" y="-14" type="curve" smooth="yes"/>
			<point x="302" y="-14"/>
			<point x="369" y="31"/>
			<point x="400" y="90" type="curve"/>
			<point x="402" y="90" type="line"/>
			<point x="405" y="18"/>
			<point x="429" y="-14"/>
			<point x="479" y="-14" type="curve" smooth="yes"/>
			<point x="513" y="-14"/>
			<point x="545" y="3"/>
			<point x="563" y="31" type="curve"/>
			<point x="558" y="38" type="line"/>
			<point x="539" y="25"/>
			<point x="516" y="16"/>
			<point x="499" y="16" type="curve" smooth="yes"/>
			<point x="452" y="16"/>
			<point x="445" y="32"/>
			<point x="445" y="136" type="curve" smooth="yes"/>
			<point x="445" y="231"/>
			<point x="459" y="427"/>
			<point x="472" y="511" type="curve"/>
			<point x="468" y="515" type="line"/>
			<point x="418" y="510" type="line"/>
			<point x="414" y="422" type="line"/>
			<point x="412" y="422" type="line"/>
			<point x="382" y="486"/>
			<point x="326" y="523"/>
			<point x="257" y="523" type="curve" smooth="yes"/>
			<point x="128" y="523"/>
			<point x="48" y="418"/>
			<point x="48" y="250" type="curve" smooth="yes"/>
			<point x="48" y="87"/>
			<point x="124" y="-14"/>
		</contour>
		<contour>
			<point x="254" y="11" type="curve" smooth="yes"/>
			<point x="161" y="11"/>
			<point x="99" y="108"/>
			<point x="99" y="254" type="curve" smooth="yes"/>
			<point x="99" y="421"/>
			<point x="152" y="507"/>
			<point x="256" y="507" type="curve" smooth="yes"/>
			<point x="327" y="507"/>
			<point x="377" y="473"/>
			<point x="411" y="401" type="curve"/>
			<point x="403" y="275"/>
			<point x="401" y="219"/>
			<point x="401" y="119" type="curve"/>
			<point x="365" y="49"/>
			<point x="313" y="11"/>
		</contour>
	</outline>
	<anchor name="bottom" x="239" y="-45"/>
	<anchor name="top" x="269" y="550"/>
</glyph>
<glyph name="beta" format="2">
	<unicode hex="03B2"/>
	<advance width="558"/>
	<outline>
		<contour>
			<point x="90" y="-220" type="line"/>
			<point x="137" y="-215" type="line"/>
			<point x="131" y="-184"/>
			<point x="123" y="-47"/>
			<point x="123" y="19" type="curve"/>
			<point x="124" y="19" type="line"/>
			<point x="175" y="-5"/>
			<point x="215" y="-14"/>
			<point x="271" y="-14" type="curve" smooth="yes"/>
			<point x="410" y="-14"/>
			<point x="511" y="88"/>
			<point x="511" y="228" type="curve" smooth="yes"/>
			<point x="511" y="321"/>
			<point x="455" y="391"/>
			<point x="353" y="423" type="curve"/>
			<point x="353" y="424" type="line"/>
			<point x="424" y="455"/>
			<point x="466" y="522"/>
			<point x="466" y="605" type="curve" smooth="yes"/>
			<point x="466" y="715"/>
			<point x="394" y="782"/>
			<point x="276" y="782" type="curve" smooth="yes"/>
			<point x="141" y="782"/>
			<point x="73" y="699"/>
			<point x="73" y="535" type="curve" smooth="yes"/>
			<point x="73" y="4" type="line" smooth="yes"/>
			<point x="73" y="-50"/>
			<point x="80" y="-170"/>
			<point x="85" y="-216" type="curve"/>
		</contour>
		<contour>
			<point x="272" y="2" type="curve" smooth="yes"/>
			<point x="217" y="2"/>
			<point x="164" y="17"/>
			<point x="123" y="44" type="curve"/>
			<point x="123" y="535" type="line" smooth="yes"/>
			<point x="123" y="696"/>
			<point x="170" y="767"/>
			<point x="276" y="767" type="curve" smooth="yes"/>
			<point x="371" y="767"/>
			<point x="421" y="711"/>
			<point x="421" y="605" type="curve" smooth="yes"/>
			<point x="421" y="527"/>
			<point x="396" y="473"/>
			<point x="341" y="431" type="curve"/>
			<point x="302" y="459"/>
			<point x="285" y="467"/>
			<point x="265" y="467" type="curve" smooth="yes"/>
			<point x="234" y="467"/>
			<point x="215" y="447"/>
			<point x="215" y="415" type="curve" smooth="yes"/>
			<point x="215" y="388"/>
			<point x="235" y="368"/>
			<point x="264" y="368" type="curve" smooth="yes"/>
			<point x="285" y="368"/>
			<point x="310" y="382"/>
			<point x="341" y="412" type="curve"/>
			<point x="419" y="383"/>
			<point x="459" y="319"/>
			<point x="459" y="223" type="curve" smooth="yes"/>
			<point x="459" y="81"/>
			<point x="392" y="2"/>
		</contour>
	</outline>
</glyph>
<glyph name="gamma" format="2">
	<unicode hex="03B3"/>
	<advance width="510"/>
	<outline>
		<contour>
			<point x="185" y="-183" type="curve"/>
			<point x="196" y="-183"/>
			<point x="210" y="-181"/>
			<point x="213" y="-179" type="curve"/>
			<point x="213" y="-117"/>
			<point x="211" y="-44"/>
			<point x="209" y="-11" type="curve"/>
			<point x="365" y="130"/>
			<point x="458" y="302"/>
			<point x="458" y="448" type="curve" smooth="yes"/>
			<point x="458" y="480"/>
			<point x="457" y="498"/>
			<point x="455" y="511" type="curve"/>
			<point x="451" y="515" type="line"/>
			<point x="402" y="510" type="line"/>
			<point x="407" y="489"/>
			<point x="409" y="465"/>
			<point x="409" y="441" type="curve" smooth="yes"/>
			<point x="409" y="313"/>
			<point x="332" y="147"/>
			<point x="214" y="21" type="curve"/>
			<point x="215" y="21" type="line"/>
			<point x="193" y="413"/>
			<point x="162" y="518"/>
			<point x="69" y="518" type="curve" smooth="yes"/>
			<point x="42" y="518"/>
			<point x="25" y="507"/>
			<point x="0" y="474" type="curve"/>
			<point x="6" y="467" type="line"/>
			<point x="12" y="479"/>
			<point x="28" y="487"/>
			<point x="45" y="487" type="curve" smooth="yes"/>
			<point x="117" y="487"/>
			<point x="153" y="356"/>
			<point x="181" y="-10" type="curve"/>
			<point x="158" y="-42"/>
			<point x="160" y="-152"/>
		</contour>
	</outline>
</glyph>
<glyph name="delta" format="2">
	<unicode hex="03B4"/>
	<advance width="493"/>
	<outline>
		<contour>
			<point x="241" y="-14" type="curve" smooth="yes"/>
			<point x="356" y="-14"/>
			<point x="456" y="90"/>
			<point x="456" y="208" type="curve" smooth="yes"/>
			<point x="456" y="335"/>
			<point x="414" y="403"/>
			<point x="273" y="505" type="curve" smooth="yes"/>
			<point x="146" y="597"/>
			<point x="127" y="619"/>
			<point x="127" y="671" type="curve" smooth="yes"/>
			<point x="127" y="730"/>
			<point x="182" y="767"/>
			<point x="268" y="767" type="curve" smooth="yes"/>
			<point x="326" y="767"/>
			<point x="371" y="748"/>
			<point x="407" y="708" type="curve"/>
			<point x="382" y="678"/>
			<point x="370" y="654"/>
			<point x="370" y="634" type="curve" smooth="yes"/>
			<point x="370" y="616"/>
			<point x="384" y="604"/>
			<point x="406" y="604" type="curve" smooth="yes"/>
			<point x="431" y="604"/>
			<point x="448" y="623"/>
			<point x="448" y="651" type="curve" smooth="yes"/>
			<point x="448" y="720"/>
			<point x="362" y="782"/>
			<point x="268" y="782" type="curve" smooth="yes"/>
			<point x="165" y="782"/>
			<point x="97" y="729"/>
			<point x="97" y="649" type="curve" smooth="yes"/>
			<point x="97" y="583"/>
			<point x="139" y="531"/>
			<point x="239" y="469" type="curve"/>
			<point x="106" y="440"/>
			<point x="32" y="349"/>
			<point x="32" y="215" type="curve" smooth="yes"/>
			<point x="32" y="82"/>
			<point x="120" y="-14"/>
		</contour>
		<contour>
			<point x="248" y="2" type="curve" smooth="yes"/>
			<point x="142" y="2"/>
			<point x="84" y="76"/>
			<point x="84" y="213" type="curve" smooth="yes"/>
			<point x="84" y="351"/>
			<point x="144" y="439"/>
			<point x="252" y="459" type="curve"/>
			<point x="361" y="388"/>
			<point x="406" y="315"/>
			<point x="406" y="209" type="curve" smooth="yes"/>
			<point x="406" y="84"/>
			<point x="343" y="2"/>
		</contour>
	</outline>
</glyph>
<glyph name="zeta" format="2">
	<unicode hex="03B6"/>
	<advance width="395"/>
	<outline>
		<contour>
			<point x="296" y="-222" type="line"/>
			<point x="364" y="-172"/>
			<point x="396" y="-126"/>
			<point x="396" y="-78" type="curve" smooth="yes"/>
			<point x="396" y="-10"/>
			<point x="362" y="19"/>
			<point x="237" y="59" type="curve" smooth="yes"/>
			<point x="107" y="100"/>
			<point x="55" y="146"/>
			<point x="55" y="221" type="curve" smooth="yes"/>
			<point x="55" y="345"/>
			<point x="204" y="565"/>
			<point x="403" y="736" type="curve"/>
			<point x="403" y="740" type="line"/>
			<point x="363" y="774" type="line"/>
			<point x="337" y="745"/>
			<point x="318" y="724"/>
			<point x="285" y="686" type="curve"/>
			<point x="259" y="673"/>
			<point x="225" y="666"/>
			<point x="188" y="666" type="curve" smooth="yes"/>
			<point x="142" y="666"/>
			<point x="106" y="678"/>
			<point x="92" y="698" type="curve"/>
			<point x="110" y="723"/>
			<point x="123" y="753"/>
			<point x="123" y="770" type="curve" smooth="yes"/>
			<point x="123" y="790"/>
			<point x="109" y="805"/>
			<point x="90" y="805" type="curve" smooth="yes"/>
			<point x="65" y="805"/>
			<point x="48" y="786"/>
			<point x="48" y="757" type="curve" smooth="yes"/>
			<point x="48" y="694"/>
			<point x="104" y="651"/>
			<point x="186" y="651" type="curve" smooth="yes"/>
			<point x="220" y="651"/>
			<point x="247" y="655"/>
			<point x="268" y="664" type="curve"/>
			<point x="102" y="457"/>
			<point x="32" y="322"/>
			<point x="32" y="206" type="curve" smooth="yes"/>
			<point x="32" y="107"/>
			<point x="80" y="57"/>
			<point x="219" y="12" type="curve" smooth="yes"/>
			<point x="336" y="-25"/>
			<point x="358" y="-43"/>
			<point x="358" y="-102" type="curve" smooth="yes"/>
			<point x="358" y="-134"/>
			<point x="333" y="-175"/>
			<point x="290" y="-215" type="curve"/>
		</contour>
	</outline>
</glyph>
<glyph name="kappa" format="2">
	<unicode hex="03BA"/>
	<advance width="516"/>
	<outline>
		<contour>
			<point x="399" y="-14" type="curve" smooth="yes"/>
			<point x="435" y="-14"/>
			<point x="470" y="4"/>
			<point x="486" y="31" type="curve"/>
			<point x="481" y="38" type="line"/>
			<point x="463" y="23"/>
			<point x="443" y="16"/>
			<point x="422" y="16" type="curve" smooth="yes"/>
			<point x="386" y="16"/>
			<point x="358" y="45"/>
			<point x="318" y="123" type="curve" smooth="yes"/>
			<point x="287" y="183"/>
			<point x="262" y="224"/>
			<point x="225" y="309" type="curve"/>
			<point x="313" y="423" type="line" smooth="yes"/>
			<point x="367" y="490"/>
			<point x="382" y="503"/>
			<point x="404" y="504" type="curve"/>
			<point x="379" y="461"/>
			<point x="392" y="427"/>
			<point x="432" y="427" type="curve" smooth="yes"/>
			<point x="455" y="427"/>
			<point x="471" y="444"/>
			<point x="471" y="468" type="curve" smooth="yes"/>
			<point x="471" y="502"/>
			<point x="450" y="523"/>
			<point x="418" y="523" type="curve" smooth="yes"/>
			<point x="377" y="523"/>
			<point x="349" y="503"/>
			<point x="299" y="437" type="curve" smooth="yes"/>
			<point x="118" y="199" type="line"/>
			<point x="119" y="334"/>
			<point x="118" y="414"/>
			<point x="123" y="511" type="curve"/>
			<point x="119" y="515" type="line"/>
			<point x="68" y="510" type="line"/>
			<point x="76" y="0" type="line"/>
			<point x="119" y="0" type="line"/>
			<point x="119" y="172" type="line"/>
			<point x="193" y="268" type="line"/>
			<point x="234" y="180"/>
			<point x="266" y="118"/>
			<point x="289" y="82" type="curve" smooth="yes"/>
			<point x="332" y="9"/>
			<point x="358" y="-14"/>
		</contour>
	</outline>
</glyph>
<glyph name="mu" format="2">
	<unicode hex="03BC"/>
	<advance width="547"/>
	<outline>
		<contour>
			<point x="88" y="-220" type="line"/>
			<point x="135" y="-215" type="line"/>
			<point x="127" y="-141"/>
			<point x="121" y="-40"/>
			<point x="122" y="19" type="curve"/>
			<point x="123" y="19" type="line"/>
			<point x="145" y="-1"/>
			<point x="187" y="-14"/>
			<point x="228" y="-14" type="curve" smooth="yes"/>
			<point x="297" y="-14"/>
			<point x="358" y="22"/>
			<point x="387" y="81" type="curve"/>
			<point x="388" y="81" type="line"/>
			<point x="388" y="13"/>
			<point x="409" y="-14"/>
			<point x="462" y="-14" type="curve" smooth="yes"/>
			<point x="490" y="-14"/>
			<point x="515" y="1"/>
			<point x="537" y="30" type="curve"/>
			<point x="531" y="37" type="line"/>
			<point x="512" y="23"/>
			<point x="497" y="17"/>
			<point x="478" y="17" type="curve" smooth="yes"/>
			<point x="444" y="17"/>
			<point x="429" y="40"/>
			<point x="429" y="95" type="curve" smooth="yes"/>
			<point x="429" y="227"/>
			<point x="428" y="406"/>
			<point x="431" y="511" type="curve"/>
			<point x="427" y="515" type="line"/>
			<point x="382" y="510" type="line"/>
			<point x="384" y="482"/>
			<point x="386" y="281"/>
			<point x="386" y="154" type="curve" smooth="yes"/>
			<point x="386" y="68"/>
			<point x="328" y="16"/>
			<point x="233" y="16" type="curve" smooth="yes"/>
			<point x="187" y="16"/>
			<point x="144" y="35"/>
			<point x="120" y="67" type="curve"/>
			<point x="120" y="214"/>
			<point x="119" y="431"/>
			<point x="122" y="511" type="curve"/>
			<point x="118" y="515" type="line"/>
			<point x="73" y="510" type="line"/>
			<point x="73" y="483"/>
			<point x="78" y="84"/>
			<point x="78" y="66" type="curve" smooth="yes"/>
			<point x="78" y="-121"/>
			<point x="79" y="-178"/>
			<point x="83" y="-216" type="curve"/>
		</contour>
	</outline>
</glyph>
<glyph name="nu" format="2">
	<unicode hex="03BD"/>
	<advance width="520"/>
	<outline>
		<contour>
			<point x="221" y="-18" type="line"/>
			<point x="381" y="132"/>
			<point x="468" y="296"/>
			<point x="468" y="450" type="curve" smooth="yes"/>
			<point x="468" y="479"/>
			<point x="467" y="498"/>
			<point x="465" y="505" type="curve"/>
			<point x="461" y="509" type="line"/>
			<point x="415" y="509" type="line"/>
			<point x="418" y="494"/>
			<point x="419" y="474"/>
			<point x="419" y="449" type="curve" smooth="yes"/>
			<point x="419" y="308"/>
			<point x="347" y="145"/>
			<point x="225" y="11" type="curve"/>
			<point x="225" y="11" type="line"/>
			<point x="203" y="413"/>
			<point x="173" y="518"/>
			<point x="79" y="518" type="curve" smooth="yes"/>
			<point x="49" y="518"/>
			<point x="22" y="503"/>
			<point x="0" y="474" type="curve"/>
			<point x="6" y="467" type="line"/>
			<point x="21" y="480"/>
			<point x="39" y="487"/>
			<point x="55" y="487" type="curve" smooth="yes"/>
			<point x="128" y="487"/>
			<point x="163" y="354"/>
			<point x="185" y="-8" type="curve"/>
		</contour>
	</outline>
</glyph>
<glyph name="xi" format="2">
	<unicode hex="03BE"/>
	<advance width="428"/>
	<outline>
		<contour>
			<point x="306" y="-222" type="line"/>
			<point x="373" y="-173"/>
			<point x="406" y="-125"/>
			<point x="406" y="-77" type="curve" smooth="yes"/>
			<point x="406" y="-10"/>
			<point x="373" y="18"/>
			<point x="249" y="58" type="curve" smooth="yes"/>
			<point x="113" y="102"/>
			<point x="67" y="137"/>
			<point x="67" y="197" type="curve" smooth="yes"/>
			<point x="67" y="262"/>
			<point x="140" y="322"/>
			<point x="254" y="351" type="curve"/>
			<point x="280" y="330"/>
			<point x="303" y="320"/>
			<point x="325" y="320" type="curve" smooth="yes"/>
			<point x="355" y="320"/>
			<point x="376" y="338"/>
			<point x="376" y="365" type="curve" smooth="yes"/>
			<point x="376" y="392"/>
			<point x="357" y="409"/>
			<point x="327" y="409" type="curve" smooth="yes"/>
			<point x="305" y="409"/>
			<point x="281" y="397"/>
			<point x="255" y="374" type="curve"/>
			<point x="160" y="392"/>
			<point x="104" y="437"/>
			<point x="104" y="496" type="curve" smooth="yes"/>
			<point x="104" y="587"/>
			<point x="216" y="667"/>
			<point x="397" y="706" type="curve"/>
			<point x="397" y="709" type="line"/>
			<point x="369" y="748" type="line"/>
			<point x="303" y="731"/>
			<point x="247" y="708"/>
			<point x="187" y="672" type="curve"/>
			<point x="142" y="659"/>
			<point x="74" y="674"/>
			<point x="56" y="701" type="curve"/>
			<point x="76" y="726"/>
			<point x="87" y="752"/>
			<point x="87" y="772" type="curve" smooth="yes"/>
			<point x="87" y="792"/>
			<point x="73" y="806"/>
			<point x="52" y="806" type="curve" smooth="yes"/>
			<point x="29" y="806"/>
			<point x="12" y="785"/>
			<point x="12" y="757" type="curve" smooth="yes"/>
			<point x="12" y="688"/>
			<point x="71" y="650"/>
			<point x="167" y="657" type="curve"/>
			<point x="112" y="621"/>
			<point x="76" y="559"/>
			<point x="76" y="500" type="curve" smooth="yes"/>
			<point x="76" y="430"/>
			<point x="118" y="382"/>
			<point x="199" y="358" type="curve"/>
			<point x="199" y="356" type="line"/>
			<point x="98" y="321"/>
			<point x="41" y="256"/>
			<point x="44" y="178" type="curve" smooth="yes"/>
			<point x="46" y="103"/>
			<point x="101" y="54"/>
			<point x="231" y="12" type="curve" smooth="yes"/>
			<point x="344" y="-24"/>
			<point x="368" y="-44"/>
			<point x="368" y="-101" type="curve" smooth="yes"/>
			<point x="368" y="-133"/>
			<point x="343" y="-175"/>
			<point x="300" y="-215" type="curve"/>
		</contour>
	</outline>
</glyph>
<glyph name="pi" format="2">
	<unicode hex="03C0"/>
	<advance width="565"/>
	<outline>
		<contour>
			<point x="445" y="-14" type="curve" smooth="yes"/>
			<point x="483" y="-14"/>
			<point x="517" y="3"/>
			<point x="535" y="31" type="curve"/>
			<point x="530" y="38" type="line"/>
			<point x="511" y="23"/>
			<point x="488" y="16"/>
			<point x="463" y="16" type="curve" smooth="yes"/>
			<point x="419" y="16"/>
			<point x="408" y="39"/>
			<point x="408" y="126" type="curve" smooth="yes"/>
			<point x="408" y="212"/>
			<point x="409" y="300"/>
			<point x="410" y="478" type="curve"/>
			<point x="529" y="478" type="line"/>
			<point x="533" y="482" type="line"/>
			<point x="533" y="521" type="line"/>
			<point x="134" y="516" type="line" smooth="yes"/>
			<point x="102" y="515"/>
			<point x="29" y="499"/>
			<point x="10" y="488" type="curve"/>
			<point x="9" y="478" type="line"/>
			<point x="154" y="478" type="line"/>
			<point x="61" y="4" type="line"/>
			<point x="65" y="0" type="line"/>
			<point x="117" y="0" type="line"/>
			<point x="178" y="478" type="line"/>
			<point x="390" y="478" type="line"/>
			<point x="383" y="373"/>
			<point x="363" y="194"/>
			<point x="363" y="83" type="curve" smooth="yes"/>
			<point x="363" y="21"/>
			<point x="393" y="-14"/>
		</contour>
	</outline>
</glyph>
<glyph name="sigmafinal" format="2">
	<unicode hex="03C2"/>
	<advance width="438"/>
	<outline>
		<contour>
			<point x="306" y="-222" type="line"/>
			<point x="374" y="-172"/>
			<point x="406" y="-126"/>
			<point x="406" y="-78" type="curve" smooth="yes"/>
			<point x="406" y="-10"/>
			<point x="372" y="19"/>
			<point x="247" y="59" type="curve" smooth="yes"/>
			<point x="131" y="96"/>
			<point x="65" y="174"/>
			<point x="65" y="274" type="curve" smooth="yes"/>
			<point x="65" y="423"/>
			<point x="134" y="506"/>
			<point x="259" y="506" type="curve" smooth="yes"/>
			<point x="299" y="506"/>
			<point x="330" y="495"/>
			<point x="357" y="471" type="curve"/>
			<point x="324" y="421"/>
			<point x="321" y="415"/>
			<point x="321" y="399" type="curve" smooth="yes"/>
			<point x="321" y="374"/>
			<point x="335" y="360"/>
			<point x="360" y="360" type="curve" smooth="yes"/>
			<point x="389" y="360"/>
			<point x="404" y="379"/>
			<point x="404" y="418" type="curve" smooth="yes"/>
			<point x="404" y="476"/>
			<point x="339" y="521"/>
			<point x="255" y="521" type="curve" smooth="yes"/>
			<point x="125" y="521"/>
			<point x="44" y="425"/>
			<point x="42" y="268" type="curve" smooth="yes"/>
			<point x="42" y="123"/>
			<point x="91" y="56"/>
			<point x="229" y="12" type="curve" smooth="yes"/>
			<point x="347" y="-26"/>
			<point x="368" y="-43"/>
			<point x="368" y="-102" type="curve" smooth="yes"/>
			<point x="368" y="-134"/>
			<point x="343" y="-175"/>
			<point x="300" y="-215" type="curve"/>
		</contour>
	</outline>
</glyph>
<glyph name="sigma" format="2">
	<unicode hex="03C3"/>
	<advance width="548"/>
	<outline>
		<contour>
			<point x="255" y="-14" type="curve" smooth="yes"/>
			<point x="371" y="-14"/>
			<point x="463" y="101"/>
			<point x="463" y="247" type="curve" smooth="yes"/>
			<point x="463" y="360"/>
			<point x="418" y="443"/>
			<point x="333" y="487" type="curve"/>
			<point x="333" y="485" type="line"/>
			<point x="509" y="478" type="line"/>
			<point x="513" y="482" type="line"/>
			<point x="513" y="521" type="line"/>
			<point x="322" y="518" type="line" smooth="yes"/>
			<point x="142" y="515"/>
			<point x="42" y="413"/>
			<point x="42" y="235" type="curve" smooth="yes"/>
			<point x="42" y="90"/>
			<point x="131" y="-14"/>
		</contour>
		<contour>
			<point x="250" y="2" type="curve" smooth="yes"/>
			<point x="158" y="2"/>
			<point x="92" y="99"/>
			<point x="92" y="234" type="curve" smooth="yes"/>
			<point x="92" y="391"/>
			<point x="174" y="485"/>
			<point x="310" y="485" type="curve" smooth="yes"/>
			<point x="316" y="485" type="line"/>
			<point x="383" y="432"/>
			<point x="412" y="357"/>
			<point x="412" y="239" type="curve" smooth="yes"/>
			<point x="412" y="84"/>
			<point x="356" y="2"/>
		</contour>
	</outline>
</glyph>
<glyph name="phi" format="2">
	<unicode hex="03C6"/>
	<advance width="691"/>
	<outline>
		<contour>
			<point x="324" y="-216" type="line"/>
			<point x="358" y="-216" type="line"/>
			<point x="362" y="-14" type="line"/>
			<point x="539" y="-9"/>
			<point x="649" y="100"/>
			<point x="649" y="270" type="curve" smooth="yes"/>
			<point x="649" y="417"/>
			<point x="541" y="514"/>
			<point x="371" y="521" type="curve"/>
			<point x="375" y="700" type="line"/>
			<point x="371" y="704" type="line"/>
			<point x="321" y="699" type="line"/>
			<point x="322" y="520" type="line"/>
			<point x="147" y="507"/>
			<point x="42" y="405"/>
			<point x="42" y="248" type="curve" smooth="yes"/>
			<point x="42" y="95"/>
			<point x="149" y="-5"/>
			<point x="323" y="-14" type="curve"/>
		</contour>
		<contour>
			<point x="323" y="2" type="line"/>
			<point x="171" y="14"/>
			<point x="93" y="102"/>
			<point x="93" y="263" type="curve" smooth="yes"/>
			<point x="93" y="417"/>
			<point x="169" y="497"/>
			<point x="322" y="505" type="curve"/>
		</contour>
		<contour>
			<point x="363" y="2" type="curve"/>
			<point x="371" y="505" type="line"/>
			<point x="523" y="495"/>
			<point x="597" y="411"/>
			<point x="597" y="248" type="curve" smooth="yes"/>
			<point x="597" y="85"/>
			<point x="520" y="4"/>
		</contour>
	</outline>
</glyph>
<glyph name="chi" format="2">
	<unicode hex="03C7"/>
	<advance width="498"/>
	<outline>
		<contour>
			<point x="448" y="-230" type="curve" smooth="yes"/>
			<point x="476" y="-230"/>
			<point x="500" y="-216"/>
			<point x="523" y="-186" type="curve"/>
			<point x="517" y="-178" type="line"/>
			<point x="497" y="-193"/>
			<point x="482" y="-199"/>
			<point x="463" y="-199" type="curve" smooth="yes"/>
			<point x="434" y="-199"/>
			<point x="408" y="-175"/>
			<point x="393" y="-135" type="curve" smooth="yes"/>
			<point x="281" y="157" type="line"/>
			<point x="472" y="511" type="line"/>
			<point x="468" y="515" type="line"/>
			<point x="417" y="509" type="line"/>
			<point x="274" y="176" type="line"/>
			<point x="273" y="176" type="line"/>
			<point x="176" y="423" type="line" smooth="yes"/>
			<point x="147" y="498"/>
			<point x="127" y="518"/>
			<point x="82" y="518" type="curve" smooth="yes"/>
			<point x="50" y="518"/>
			<point x="24" y="504"/>
			<point x="0" y="474" type="curve"/>
			<point x="6" y="467" type="line"/>
			<point x="24" y="481"/>
			<point x="41" y="487"/>
			<point x="60" y="487" type="curve" smooth="yes"/>
			<point x="97" y="487"/>
			<point x="110" y="474"/>
			<point x="135" y="410" type="curve" smooth="yes"/>
			<point x="240" y="138" type="line"/>
			<point x="55" y="-217" type="line"/>
			<point x="59" y="-221" type="line"/>
			<point x="110" y="-215" type="line"/>
			<point x="247" y="119" type="line"/>
			<point x="249" y="119" type="line"/>
			<point x="354" y="-152" type="line" smooth="yes"/>
			<point x="376" y="-208"/>
			<point x="402" y="-230"/>
		</contour>
	</outline>
</glyph>
<glyph name="omega" format="2">
	<unicode hex="03C9"/>
	<advance width="723"/>
	<outline>
		<contour>
			<point x="219" y="-14" type="curve" smooth="yes"/>
			<point x="284" y="-14"/>
			<point x="341" y="39"/>
			<point x="362" y="118" type="curve"/>
			<point x="365" y="118" type="line"/>
			<point x="392" y="31"/>
			<point x="439" y="-14"/>
			<point x="503" y="-14" type="curve" smooth="yes"/>
			<point x="603" y="-14"/>
			<point x="676" y="92"/>
			<point x="676" y="237" type="curve" smooth="yes"/>
			<point x="676" y="338"/>
			<point x="635" y="449"/>
			<point x="574" y="511" type="curve"/>
			<point x="569" y="515" type="line"/>
			<point x="517" y="505" type="line"/>
			<point x="585" y="428"/>
			<point x="627" y="324"/>
			<point x="627" y="229" type="curve" smooth="yes"/>
			<point x="627" y="99"/>
			<point x="575" y="2"/>
			<point x="505" y="2" type="curve" smooth="yes"/>
			<point x="448" y="2"/>
			<point x="406" y="56"/>
			<point x="382" y="161" type="curve"/>
			<point x="436" y="332"/>
			<point x="410" y="240"/>
			<point x="410" y="259" type="curve" smooth="yes"/>
			<point x="410" y="297"/>
			<point x="391" y="322"/>
			<point x="362" y="322" type="curve" smooth="yes"/>
			<point x="333" y="322"/>
			<point x="313" y="297"/>
			<point x="313" y="261" type="curve" smooth="yes"/>
			<point x="313" y="235"/>
			<point x="317" y="223"/>
			<point x="344" y="161" type="curve"/>
			<point x="323" y="53"/>
			<point x="283" y="2"/>
			<point x="219" y="2" type="curve" smooth="yes"/>
			<point x="142" y="2"/>
			<point x="96" y="87"/>
			<point x="96" y="229" type="curve" smooth="yes"/>
			<point x="96" y="342"/>
			<point x="145" y="453"/>
			<point x="220" y="509" type="curve"/>
			<point x="210" y="518" type="line"/>
			<point x="115" y="470"/>
			<point x="47" y="345"/>
			<point x="47" y="217" type="curve" smooth="yes"/>
			<point x="47" y="83"/>
			<point x="119" y="-14"/>
		</contour>
	</outline>
	<anchor name="bottom" x="362" y="-45"/>
	<anchor name="top" x="362" y="550"/>
</glyph>
<glyph name="stigma" format="2">
	<unicode hex="03DB"/>
	<advance width="458"/>
	<outline>
		<contour>
			<point x="306" y="-222" type="line"/>
			<point x="374" y="-172"/>
			<point x="406" y="-126"/>
			<point x="406" y="-78" type="curve" smooth="yes"/>
			<point x="406" y="-10"/>
			<point x="372" y="19"/>
			<point x="247" y="59" type="curve" smooth="yes"/>
			<point x="131" y="96"/>
			<point x="65" y="174"/>
			<point x="65" y="274" type="curve" smooth="yes"/>
			<point x="65" y="418"/>
			<point x="133" y="476"/>
			<point x="300" y="475" type="curve" smooth="yes"/>
			<point x="388" y="474"/>
			<point x="426" y="499"/>
			<point x="426" y="557" type="curve" smooth="yes"/>
			<point x="426" y="590"/>
			<point x="405" y="623"/>
			<point x="365" y="651" type="curve"/>
			<point x="358" y="646" type="line"/>
			<point x="370" y="627"/>
			<point x="379" y="595"/>
			<point x="379" y="571" type="curve" smooth="yes"/>
			<point x="379" y="535"/>
			<point x="350" y="521"/>
			<point x="275" y="521" type="curve" smooth="yes"/>
			<point x="138" y="521"/>
			<point x="44" y="418"/>
			<point x="42" y="268" type="curve" smooth="yes"/>
			<point x="42" y="132"/>
			<point x="99" y="54"/>
			<point x="229" y="12" type="curve" smooth="yes"/>
			<point x="347" y="-26"/>
			<point x="368" y="-43"/>
			<point x="368" y="-102" type="curve" smooth="yes"/>
			<point x="368" y="-134"/>
			<point x="343" y="-175"/>
			<point x="300" y="-215" type="curve"/>
		</contour>
	</outline>
</glyph>
<glyph name="digamma" format="2">
	<unicode hex="03DD"/>
	<advance width="318"/>
	<outline>
		<contour>
			<point x="117" y="-4" type="line"/>
			<point x="162" y="0" type="line"/>
			<point x="162" y="493" type="line"/>
			<point x="310" y="493" type="line"/>
			<point x="310" y="509" type="line"/>
			<point x="162" y="509" type="line"/>
			<point x="162" y="608" type="line" smooth="yes"/>
			<point x="162" y="720"/>
			<point x="193" y="767"/>
			<point x="265" y="767" type="curve" smooth="yes"/>
			<point x="291" y="767"/>
			<point x="313" y="761"/>
			<point x="329" y="750" type="curve"/>
			<point x="309" y="722"/>
			<point x="303" y="707"/>
			<point x="303" y="692" type="curve" smooth="yes"/>
			<point x="303" y="676"/>
			<point x="315" y="665"/>
			<point x="333" y="665" type="curve" smooth="yes"/>
			<point x="358" y="665"/>
			<point x="373" y="681"/>
			<point x="373" y="705" type="curve" smooth="yes"/>
			<point x="373" y="752"/>
			<point x="331" y="782"/>
			<point x="264" y="782" type="curve" smooth="yes"/>
			<point x="170" y="782"/>
			<point x="113" y="697"/>
			<point x="113" y="558" type="curve" smooth="yes"/>
			<point x="113" y="509" type="line"/>
			<point x="40" y="503" type="line"/>
			<point x="40" y="493" type="line"/>
			<point x="113" y="493" type="line"/>
			<point x="113" y="0" type="line"/>
		</contour>
	</outline>
</glyph>
<glyph name="Sampi" format="2">
	<unicode hex="03E0"/>
	<advance width="776"/>
	<outline>
		<contour>
			<point x="253" y="-177" type="line"/>
			<point x="263" y="-169" type="line"/>
			<point x="241" y="-125" type="line" smooth="yes"/>
			<point x="232" y="-107"/>
			<point x="233" y="-95"/>
			<point x="245" y="-86" type="curve" smooth="yes"/>
			<point x="637" y="211" type="line"/>
			<point x="661" y="141"/>
			<point x="673" y="56"/>
			<point x="673" y="-47" type="curve" smooth="yes"/>
			<point x="673" y="-95"/>
			<point x="672" y="-125"/>
			<point x="668" y="-170" type="curve"/>
			<point x="719" y="-172" type="line"/>
			<point x="726" y="-87"/>
			<point x="726" y="-86"/>
			<point x="726" y="-45" type="curve" smooth="yes"/>
			<point x="726" y="332"/>
			<point x="535" y="528"/>
			<point x="164" y="532" type="curve"/>
			<point x="163" y="514" type="line"/>
			<point x="296" y="509"/>
			<point x="404" y="478"/>
			<point x="483" y="423" type="curve"/>
			<point x="104" y="134" type="line" smooth="yes"/>
			<point x="84" y="119"/>
			<point x="69" y="122"/>
			<point x="50" y="143" type="curve" smooth="yes"/>
			<point x="25" y="171" type="line"/>
			<point x="17" y="165" type="line"/>
			<point x="129" y="3" type="line"/>
			<point x="139" y="11" type="line"/>
			<point x="117" y="55" type="line" smooth="yes"/>
			<point x="108" y="73"/>
			<point x="109" y="85"/>
			<point x="121" y="94" type="curve" smooth="yes"/>
			<point x="519" y="395" type="line"/>
			<point x="563" y="357"/>
			<point x="597" y="310"/>
			<point x="621" y="254" type="curve"/>
			<point x="228" y="-46" type="line" smooth="yes"/>
			<point x="208" y="-61"/>
			<point x="193" y="-58"/>
			<point x="174" y="-37" type="curve" smooth="yes"/>
			<point x="149" y="-9" type="line"/>
			<point x="141" y="-15" type="line"/>
		</contour>
	</outline>
</glyph>
<glyph name="sampi" format="2">
	<unicode hex="03E1"/>
	<advance width="600"/>
	<outline>
		<contour>
			<point x="200" y="502" type="curve"/>
			<point x="189" y="468" type="line"/>
			<point x="272" y="448"/>
			<point x="341" y="411"/>
			<point x="393" y="362" type="curve"/>
			<point x="106" y="242" type="line" smooth="yes"/>
			<point x="68" y="226"/>
			<point x="55" y="227"/>
			<point x="42" y="248" type="curve" smooth="yes"/>
			<point x="8" y="303" type="line"/>
			<point x="-2" y="298" type="line"/>
			<point x="77" y="101" type="line"/>
			<point x="88" y="105" type="line"/>
			<point x="76" y="168" type="line" smooth="yes"/>
			<point x="72" y="193"/>
			<point x="77" y="200"/>
			<point x="108" y="213" type="curve" smooth="yes"/>
			<point x="415" y="339" type="line"/>
			<point x="467" y="281"/>
			<point x="498" y="207"/>
			<point x="507" y="121" type="curve"/>
			<point x="206" y="-4" type="line" smooth="yes"/>
			<point x="175" y="-16"/>
			<point x="158" y="-23"/>
			<point x="142" y="2" type="curve" smooth="yes"/>
			<point x="108" y="58" type="line"/>
			<point x="98" y="53" type="line"/>
			<point x="177" y="-145" type="line"/>
			<point x="188" y="-140" type="line"/>
			<point x="176" y="-78" type="line"/>
			<point x="173" y="-51"/>
			<point x="178" y="-44"/>
			<point x="208" y="-33" type="curve" smooth="yes"/>
			<point x="510" y="90" type="line"/>
			<point x="510" y="-24"/>
			<point x="486" y="-141"/>
			<point x="439" y="-242" type="curve"/>
			<point x="470" y="-253" type="line"/>
			<point x="518" y="-159"/>
			<point x="547" y="-39"/>
			<point x="547" y="68" type="curve" smooth="yes"/>
			<point x="547" y="286"/>
			<point x="414" y="452"/>
		</contour>
	</outline>
</glyph>
<glyph name="E-cy" format="2">
	<unicode hex="0404"/>
	<advance width="659"/>
	<outline>
		<contour>
			<point x="354" y="-14" type="curve" smooth="yes"/>
			<point x="438" y="-14"/>
			<point x="543" y="14"/>
			<point x="617" y="124" type="curve"/>
			<point x="605" y="134" type="line"/>
			<point x="542" y="43"/>
			<point x="458" y="15"/>
			<point x="375" y="15" type="curve" smooth="yes"/>
			<point x="194" y="15"/>
			<point x="106" y="149"/>
			<point x="101" y="355" type="curve"/>
			<point x="473" y="355" type="line"/>
			<point x="473" y="371" type="line"/>
			<point x="101" y="371" type="line"/>
			<point x="101" y="596"/>
			<point x="194" y="729"/>
			<point x="352" y="729" type="curve" smooth="yes"/>
			<point x="471" y="729"/>
			<point x="546" y="658"/>
			<point x="599" y="522" type="curve"/>
			<point x="611" y="525" type="line"/>
			<point x="576" y="744" type="line"/>
			<point x="564" y="744" type="line"/>
			<point x="554" y="659" type="line"/>
			<point x="509" y="706"/>
			<point x="445" y="744"/>
			<point x="356" y="744" type="curve" smooth="yes"/>
			<point x="169" y="744"/>
			<point x="50" y="593"/>
			<point x="50" y="357" type="curve" smooth="yes"/>
			<point x="50" y="120"/>
			<point x="170" y="-14"/>
		</contour>
	</outline>
	<anchor name="top" x="361" y="730"/>
</glyph>
<glyph name="Lje-cy" format="2">
	<unicode hex="0409"/>
	<advance width="932"/>
	<outline>
		<contour>
			<point x="65" y="-12" type="curve" smooth="yes"/>
			<point x="152" y="-12"/>
			<point x="189" y="148"/>
			<point x="206" y="312" type="curve" smooth="yes"/>
			<point x="219" y="441"/>
			<point x="224" y="613"/>
			<point x="224" y="714" type="curve"/>
			<point x="491" y="714" type="line"/>
			<point x="491" y="63" type="line" smooth="yes"/>
			<point x="491" y="29"/>
			<point x="485" y="19"/>
			<point x="460" y="17" type="curve" smooth="yes"/>
			<point x="396" y="12" type="line"/>
			<point x="396" y="0" type="line"/>
			<point x="621" y="0" type="line" smooth="yes"/>
			<point x="774" y="0"/>
			<point x="887" y="62"/>
			<point x="887" y="219" type="curve" smooth="yes"/>
			<point x="887" y="352"/>
			<point x="775" y="402"/>
			<point x="634" y="402" type="curve" smooth="yes"/>
			<point x="595" y="402"/>
			<point x="565" y="399"/>
			<point x="540" y="396" type="curve"/>
			<point x="540" y="665" type="line" smooth="yes"/>
			<point x="540" y="702"/>
			<point x="546" y="712"/>
			<point x="571" y="714" type="curve" smooth="yes"/>
			<point x="636" y="718" type="line"/>
			<point x="636" y="730" type="line"/>
			<point x="106" y="730" type="line"/>
			<point x="106" y="718" type="line"/>
			<point x="170" y="714" type="line" smooth="yes"/>
			<point x="195" y="712"/>
			<point x="202" y="701"/>
			<point x="202" y="670" type="curve" smooth="yes"/>
			<point x="202" y="467"/>
			<point x="184" y="133"/>
			<point x="115" y="42" type="curve"/>
			<point x="97" y="71"/>
			<point x="82" y="89"/>
			<point x="54" y="89" type="curve" smooth="yes"/>
			<point x="32" y="89"/>
			<point x="5" y="67"/>
			<point x="5" y="37" type="curve" smooth="yes"/>
			<point x="5" y="8"/>
			<point x="31" y="-12"/>
		</contour>
		<contour>
			<point x="540" y="22" type="curve"/>
			<point x="540" y="379" type="line"/>
			<point x="562" y="382"/>
			<point x="587" y="385"/>
			<point x="629" y="385" type="curve" smooth="yes"/>
			<point x="762" y="385"/>
			<point x="836" y="329"/>
			<point x="836" y="206" type="curve" smooth="yes"/>
			<point x="836" y="69"/>
			<point x="751" y="17"/>
			<point x="617" y="17" type="curve" smooth="yes"/>
			<point x="587" y="17"/>
			<point x="553" y="20"/>
		</contour>
	</outline>
</glyph>
<glyph name="Nje-cy" format="2">
	<unicode hex="040A"/>
	<advance width="1018"/>
	<outline>
		<contour>
			<point x="55" y="0" type="line"/>
			<point x="293" y="0" type="line"/>
			<point x="293" y="12" type="line"/>
			<point x="231" y="17" type="line" smooth="yes"/>
			<point x="205" y="19"/>
			<point x="200" y="31"/>
			<point x="200" y="62" type="curve" smooth="yes"/>
			<point x="200" y="371" type="line"/>
			<point x="574" y="371" type="line"/>
			<point x="574" y="63" type="line" smooth="yes"/>
			<point x="574" y="29"/>
			<point x="568" y="19"/>
			<point x="543" y="17" type="curve" smooth="yes"/>
			<point x="479" y="12" type="line"/>
			<point x="479" y="0" type="line"/>
			<point x="704" y="0" type="line" smooth="yes"/>
			<point x="857" y="0"/>
			<point x="973" y="62"/>
			<point x="973" y="219" type="curve" smooth="yes"/>
			<point x="973" y="352"/>
			<point x="858" y="402"/>
			<point x="717" y="402" type="curve" smooth="yes"/>
			<point x="678" y="402"/>
			<point x="648" y="399"/>
			<point x="623" y="396" type="curve"/>
			<point x="623" y="665" type="line" smooth="yes"/>
			<point x="623" y="702"/>
			<point x="629" y="712"/>
			<point x="654" y="714" type="curve" smooth="yes"/>
			<point x="718" y="718" type="line"/>
			<point x="718" y="730" type="line"/>
			<point x="479" y="730" type="line"/>
			<point x="479" y="718" type="line"/>
			<point x="541" y="714" type="line" smooth="yes"/>
			<point x="567" y="712"/>
			<point x="574" y="702"/>
			<point x="574" y="666" type="curve" smooth="yes"/>
			<point x="574" y="387" type="line"/>
			<point x="200" y="387" type="line"/>
			<point x="200" y="665" type="line" smooth="yes"/>
			<point x="200" y="701"/>
			<point x="205" y="712"/>
			<point x="229" y="714" type="curve" smooth="yes"/>
			<point x="293" y="718" type="line"/>
			<point x="293" y="730" type="line"/>
			<point x="55" y="730" type="line"/>
			<point x="55" y="718" type="line"/>
			<point x="119" y="714" type="line" smooth="yes"/>
			<point x="145" y="712"/>
			<point x="151" y="700"/>
			<point x="151" y="666" type="curve" smooth="yes"/>
			<point x="151" y="63" type="line" smooth="yes"/>
			<point x="151" y="29"/>
			<point x="145" y="19"/>
			<point x="120" y="17" type="curve" smooth="yes"/>
			<point x="55" y="12" type="line"/>
		</contour>
		<contour>
			<point x="623" y="22" type="curve"/>
			<point x="623" y="379" type="line"/>
			<point x="645" y="382"/>
			<point x="670" y="385"/>
			<point x="712" y="385" type="curve" smooth="yes"/>
			<point x="848" y="385"/>
			<point x="922" y="329"/>
			<point x="922" y="206" type="curve" smooth="yes"/>
			<point x="922" y="69"/>
			<point x="837" y="17"/>
			<point x="700" y="17" type="curve" smooth="yes"/>
			<point x="670" y="17"/>
			<point x="636" y="20"/>
		</contour>
	</outline>
</glyph>
<glyph name="Tshe-cy" format="2">
	<unicode hex="040B"/>
	<advance width="830"/>
	<outline>
		<contour>
			<point x="151" y="0" type="line"/>
			<point x="390" y="0" type="line"/>
			<point x="390" y="12" type="line"/>
			<point x="328" y="16" type="line" smooth="yes"/>
			<point x="302" y="18"/>
			<point x="295" y="28"/>
			<point x="295" y="64" type="curve" smooth="yes"/>
			<point x="295" y="354" type="line"/>
			<point x="352" y="392"/>
			<point x="419" y="412"/>
			<point x="488" y="412" type="curve" smooth="yes"/>
			<point x="592" y="412"/>
			<point x="660" y="360"/>
			<point x="660" y="248" type="curve" smooth="yes"/>
			<point x="660" y="65" type="line" smooth="yes"/>
			<point x="660" y="29"/>
			<point x="655" y="18"/>
			<point x="631" y="16" type="curve" smooth="yes"/>
			<point x="567" y="12" type="line"/>
			<point x="567" y="0" type="line"/>
			<point x="805" y="0" type="line"/>
			<point x="805" y="12" type="line"/>
			<point x="741" y="16" type="line" smooth="yes"/>
			<point x="715" y="18"/>
			<point x="709" y="30"/>
			<point x="709" y="64" type="curve" smooth="yes"/>
			<point x="709" y="257" type="line" smooth="yes"/>
			<point x="709" y="370"/>
			<point x="613" y="429"/>
			<point x="497" y="429" type="curve" smooth="yes"/>
			<point x="409" y="429"/>
			<point x="341" y="399"/>
			<point x="295" y="372" type="curve"/>
			<point x="295" y="714" type="line"/>
			<point x="468" y="714" type="line" smooth="yes"/>
			<point x="564" y="714"/>
			<point x="584" y="694"/>
			<point x="633" y="526" type="curve"/>
			<point x="645" y="526" type="line"/>
			<point x="616" y="730" type="line"/>
			<point x="56" y="730" type="line"/>
			<point x="25" y="526" type="line"/>
			<point x="38" y="526" type="line"/>
			<point x="87" y="694"/>
			<point x="101" y="714"/>
			<point x="203" y="714" type="curve" smooth="yes"/>
			<point x="246" y="714" type="line"/>
			<point x="246" y="64" type="line" smooth="yes"/>
			<point x="246" y="28"/>
			<point x="239" y="18"/>
			<point x="213" y="16" type="curve" smooth="yes"/>
			<point x="151" y="12" type="line"/>
		</contour>
	</outline>
</glyph>
<glyph name="De-cy" format="2">
	<unicode hex="0414"/>
	<advance width="690"/>
	<outline>
		<contour>
			<point x="5" y="-166" type="line"/>
			<point x="18" y="-166" type="line"/>
			<point x="28" y="-90" type="line" smooth="yes"/>
			<point x="37" y="-20"/>
			<point x="59" y="0"/>
			<point x="114" y="0" type="curve" smooth="yes"/>
			<point x="552" y="0" type="line" smooth="yes"/>
			<point x="608" y="0"/>
			<point x="630" y="-19"/>
			<point x="638" y="-90" type="curve" smooth="yes"/>
			<point x="647" y="-167" type="line"/>
			<point x="660" y="-166" type="line"/>
			<point x="660" y="16" type="line"/>
			<point x="547" y="16" type="line"/>
			<point x="547" y="665" type="line" smooth="yes"/>
			<point x="547" y="702"/>
			<point x="553" y="712"/>
			<point x="578" y="714" type="curve" smooth="yes"/>
			<point x="642" y="718" type="line"/>
			<point x="642" y="730" type="line"/>
			<point x="112" y="730" type="line"/>
			<point x="112" y="718" type="line"/>
			<point x="169" y="712" type="line" smooth="yes"/>
			<point x="194" y="709"/>
			<point x="208" y="693"/>
			<point x="208" y="660" type="curve" smooth="yes"/>
			<point x="208" y="424"/>
			<point x="187" y="199"/>
			<point x="111" y="16" type="curve"/>
			<point x="5" y="16" type="line"/>
		</contour>
		<contour>
			<point x="132" y="16" type="line"/>
			<point x="167" y="104"/>
			<point x="191" y="207"/>
			<point x="207" y="323" type="curve" smooth="yes"/>
			<point x="226" y="460"/>
			<point x="228" y="609"/>
			<point x="228" y="714" type="curve"/>
			<point x="498" y="714" type="line"/>
			<point x="498" y="16" type="line"/>
		</contour>
	</outline>
</glyph>
<glyph name="Pe-cy" format="2">
	<unicode hex="041F"/>
	<advance width="773"/>
	<outline>
		<contour>
			<point x="55" y="0" type="line"/>
			<point x="293" y="0" type="line"/>
			<point x="293" y="12" type="line"/>
			<point x="231" y="17" type="line" smooth="yes"/>
			<point x="205" y="19"/>
			<point x="200" y="31"/>
			<point x="200" y="62" type="curve" smooth="yes"/>
			<point x="200" y="714" type="line"/>
			<point x="574" y="714" type="line"/>
			<point x="574" y="63" type="line" smooth="yes"/>
			<point x="574" y="29"/>
			<point x="568" y="19"/>
			<point x="543" y="17" type="curve" smooth="yes"/>
			<point x="479" y="12" type="line"/>
			<point x="479" y="0" type="line"/>
			<point x="718" y="0" type="line"/>
			<point x="718" y="12" type="line"/>
			<point x="656" y="17" type="line" smooth="yes"/>
			<point x="630" y="19"/>
			<point x="623" y="29"/>
			<point x="623" y="62" type="curve" smooth="yes"/>
			<point x="623" y="665" type="line" smooth="yes"/>
			<point x="623" y="702"/>
			<point x="629" y="712"/>
			<point x="654" y="714" type="curve" smooth="yes"/>
			<point x="718" y="718" type="line"/>
			<point x="718" y="730" type="line"/>
			<point x="55" y="730" type="line"/>
			<point x="55" y="718" type="line"/>
			<point x="119" y="714" type="line" smooth="yes"/>
			<point x="145" y="712"/>
			<point x="151" y="700"/>
			<point x="151" y="666" type="curve" smooth="yes"/>
			<point x="151" y="63" type="line" smooth="yes"/>
			<point x="151" y="29"/>
			<point x="145" y="19"/>
			<point x="120" y="17" type="curve" smooth="yes"/>
			<point x="55" y="12" type="line"/>
		</contour>
	</outline>
</glyph>
<glyph name="U-cy" format="2">
	<unicode hex="0423"/>
	<advance width="641"/>
	<outline>
		<contour>
			<point x="216" y="-14" type="curve" smooth="yes"/>
			<point x="271" y="-14"/>
			<point x="319" y="68"/>
			<point x="357" y="160" type="curve" smooth="yes"/>
			<point x="427" y="329"/>
			<point x="490" y="499"/>
			<point x="553" y="669" type="curve" smooth="yes"/>
			<point x="565" y="702"/>
			<point x="568" y="710"/>
			<point x="591" y="713" type="curve" smooth="yes"/>
			<point x="633" y="718" type="line"/>
			<point x="633" y="730" type="line"/>
			<point x="454" y="730" type="line"/>
			<point x="454" y="718" type="line"/>
			<point x="514" y="713" type="line" smooth="yes"/>
			<point x="541" y="711"/>
			<point x="541" y="693"/>
			<point x="533" y="669" type="curve" smooth="yes"/>
			<point x="480" y="518"/>
			<point x="423" y="367"/>
			<point x="360" y="216" type="curve"/>
			<point x="359" y="216" type="line"/>
			<point x="145" y="666" type="line" smooth="yes"/>
			<point x="132" y="694"/>
			<point x="136" y="710"/>
			<point x="163" y="713" type="curve" smooth="yes"/>
			<point x="212" y="718" type="line"/>
			<point x="212" y="730" type="line"/>
			<point x="5" y="730" type="line"/>
			<point x="5" y="718" type="line"/>
			<point x="44" y="713" type="line" smooth="yes"/>
			<point x="72" y="709"/>
			<point x="77" y="698"/>
			<point x="94" y="663" type="curve" smooth="yes"/>
			<point x="336" y="157" type="line"/>
			<point x="317" y="111"/>
			<point x="295" y="66"/>
			<point x="271" y="41" type="curve"/>
			<point x="253" y="68"/>
			<point x="233" y="88"/>
			<point x="206" y="88" type="curve" smooth="yes"/>
			<point x="182" y="88"/>
			<point x="161" y="62"/>
			<point x="161" y="37" type="curve" smooth="yes"/>
			<point x="161" y="7"/>
			<point x="183" y="-14"/>
		</contour>
	</outline>
	<anchor name="top" x="356" y="730"/>
</glyph>
<glyph name="Ef-cy" format="2">
	<unicode hex="0424"/>
	<advance width="753"/>
	<outline>
		<contour>
			<point x="257" y="-14" type="line"/>
			<point x="496" y="-14" type="line"/>
			<point x="496" y="-2" type="line"/>
			<point x="434" y="3" type="line" smooth="yes"/>
			<point x="408" y="5"/>
			<point x="401" y="15"/>
			<point x="401" y="48" type="curve" smooth="yes"/>
			<point x="401" y="101" type="line"/>
			<point x="419" y="98"/>
			<point x="439" y="97"/>
			<point x="455" y="97" type="curve" smooth="yes"/>
			<point x="612" y="97"/>
			<point x="708" y="208"/>
			<point x="708" y="363" type="curve" smooth="yes"/>
			<point x="708" y="546"/>
			<point x="593" y="626"/>
			<point x="460" y="626" type="curve" smooth="yes"/>
			<point x="443" y="626"/>
			<point x="422" y="625"/>
			<point x="401" y="623" type="curve"/>
			<point x="401" y="680" type="line" smooth="yes"/>
			<point x="401" y="717"/>
			<point x="407" y="726"/>
			<point x="432" y="728" type="curve" smooth="yes"/>
			<point x="496" y="732" type="line"/>
			<point x="496" y="744" type="line"/>
			<point x="257" y="744" type="line"/>
			<point x="257" y="732" type="line"/>
			<point x="319" y="728" type="line" smooth="yes"/>
			<point x="345" y="726"/>
			<point x="352" y="716"/>
			<point x="352" y="680" type="curve" smooth="yes"/>
			<point x="352" y="623" type="line"/>
			<point x="334" y="625"/>
			<point x="317" y="626"/>
			<point x="296" y="626" type="curve" smooth="yes"/>
			<point x="151" y="626"/>
			<point x="45" y="523"/>
			<point x="45" y="360" type="curve" smooth="yes"/>
			<point x="45" y="205"/>
			<point x="142" y="97"/>
			<point x="299" y="97" type="curve" smooth="yes"/>
			<point x="319" y="97"/>
			<point x="336" y="98"/>
			<point x="352" y="101" type="curve"/>
			<point x="352" y="49" type="line" smooth="yes"/>
			<point x="352" y="15"/>
			<point x="346" y="5"/>
			<point x="321" y="3" type="curve" smooth="yes"/>
			<point x="257" y="-2" type="line"/>
		</contour>
		<contour>
			<point x="310" y="113" type="curve" smooth="yes"/>
			<point x="168" y="113"/>
			<point x="97" y="221"/>
			<point x="97" y="353" type="curve" smooth="yes"/>
			<point x="97" y="521"/>
			<point x="181" y="611"/>
			<point x="305" y="611" type="curve" smooth="yes"/>
			<point x="322" y="611"/>
			<point x="333" y="610"/>
			<point x="352" y="608" type="curve"/>
			<point x="352" y="116" type="line"/>
			<point x="338" y="114"/>
			<point x="324" y="113"/>
		</contour>
		<contour>
			<point x="444" y="112" type="curve" smooth="yes"/>
			<point x="430" y="112"/>
			<point x="415" y="114"/>
			<point x="401" y="116" type="curve"/>
			<point x="401" y="608" type="line"/>
			<point x="420" y="610"/>
			<point x="433" y="611"/>
			<point x="451" y="611" type="curve" smooth="yes"/>
			<point x="574" y="611"/>
			<point x="657" y="521"/>
			<point x="657" y="353" type="curve" smooth="yes"/>
			<point x="657" y="221"/>
			<point x="586" y="112"/>
		</contour>
	</outline>
	<guideline x="312" y="158" angle="0"/>
	<guideline x="352" y="623" angle="0"/>
	<guideline x="978" y="-17" angle="0"/>
	<guideline x="978" y="744" angle="0"/>
</glyph>
<glyph name="Yeru-cy" format="2">
	<unicode hex="042B"/>
	<advance width="906"/>
	<outline>
		<contour>
			<point x="55" y="0" type="line"/>
			<point x="280" y="0" type="line" smooth="yes"/>
			<point x="433" y="0"/>
			<point x="542" y="62"/>
			<point x="542" y="219" type="curve" smooth="yes"/>
			<point x="542" y="349"/>
			<point x="430" y="402"/>
			<point x="293" y="402" type="curve" smooth="yes"/>
			<point x="254" y="402"/>
			<point x="224" y="399"/>
			<point x="199" y="396" type="curve"/>
			<point x="199" y="665" type="line" smooth="yes"/>
			<point x="199" y="702"/>
			<point x="205" y="712"/>
			<point x="230" y="714" type="curve" smooth="yes"/>
			<point x="294" y="718" type="line"/>
			<point x="294" y="730" type="line"/>
			<point x="55" y="730" type="line"/>
			<point x="55" y="718" type="line"/>
			<point x="117" y="714" type="line" smooth="yes"/>
			<point x="143" y="712"/>
			<point x="150" y="702"/>
			<point x="150" y="666" type="curve" smooth="yes"/>
			<point x="150" y="63" type="line" smooth="yes"/>
			<point x="150" y="29"/>
			<point x="144" y="19"/>
			<point x="119" y="17" type="curve" smooth="yes"/>
			<point x="55" y="12" type="line"/>
		</contour>
		<contour>
			<point x="199" y="22" type="curve"/>
			<point x="199" y="379" type="line"/>
			<point x="221" y="382"/>
			<point x="246" y="385"/>
			<point x="288" y="385" type="curve" smooth="yes"/>
			<point x="418" y="385"/>
			<point x="491" y="329"/>
			<point x="491" y="206" type="curve" smooth="yes"/>
			<point x="491" y="69"/>
			<point x="413" y="17"/>
			<point x="276" y="17" type="curve" smooth="yes"/>
			<point x="246" y="17"/>
			<point x="212" y="20"/>
		</contour>
		<contour>
			<point x="612" y="0" type="line"/>
			<point x="851" y="0" type="line"/>
			<point x="851" y="12" type="line"/>
			<point x="789" y="17" type="line" smooth="yes"/>
			<point x="763" y="19"/>
			<point x="756" y="29"/>
			<point x="756" y="62" type="curve" smooth="yes"/>
			<point x="756" y="666" type="line" smooth="yes"/>
			<point x="756" y="703"/>
			<point x="762" y="712"/>
			<point x="787" y="714" type="curve" smooth="yes"/>
			<point x="851" y="718" type="line"/>
			<point x="851" y="730" type="line"/>
			<point x="612" y="730" type="line"/>
			<point x="612" y="718" type="line"/>
			<point x="674" y="714" type="line" smooth="yes"/>
			<point x="700" y="712"/>
			<point x="707" y="702"/>
			<point x="707" y="666" type="curve" smooth="yes"/>
			<point x="707" y="63" type="line" smooth="yes"/>
			<point x="707" y="29"/>
			<point x="701" y="19"/>
			<point x="676" y="17" type="curve" smooth="yes"/>
			<point x="612" y="12" type="line"/>
		</contour>
	</outline>
	<anchor name="top" x="475" y="730"/>
</glyph>
